SplineFontDB: 3.2
FontName: D-DIN-PRO-Condensed-Bold-Italic
FullName: D-DIN-PRO-Condensed-Bold-Italic
FamilyName: D-DIN-PRO-Condensed
Weight: Bold
Copyright: Copyright (c) CyberFei. All rights reserved
Version: 1.1.0
ItalicAngle: -13
UnderlinePosition: -150
UnderlineWidth: 50
Ascent: 831
Descent: 169
InvalidEm: 0
sfntRevision: 0x0001199a
LayerCount: 2
Layer: 0 0 "Back" 1
Layer: 1 0 "Fore" 0
XUID: [1021 868 -1451673819 14155]
StyleMap: 0x0020
FSType: 4
OS2Version: 3
OS2_WeightWidthSlopeOnly: 0
OS2_UseTypoMetrics: 0
CreationTime: 1462909513
ModificationTime: 1778060080
PfmFamily: 17
TTFWeight: 700
TTFWidth: 3
LineGap: 86
VLineGap: 0
Panose: 2 11 8 6 3 2 2 3 2 4
OS2TypoAscent: 831
OS2TypoAOffset: 0
OS2TypoDescent: -169
OS2TypoDOffset: 0
OS2TypoLinegap: 86
OS2WinAscent: 902
OS2WinAOffset: 0
OS2WinDescent: 184
OS2WinDOffset: 0
HheadAscent: 831
HheadAOffset: 0
HheadDescent: -169
HheadDOffset: 0
OS2SubXSize: 650
OS2SubYSize: 600
OS2SubXOff: 0
OS2SubYOff: 75
OS2SupXSize: 650
OS2SupYSize: 600
OS2SupXOff: 0
OS2SupYOff: 350
OS2StrikeYSize: 50
OS2StrikeYPos: 316
OS2CapHeight: 690
OS2XHeight: 528
OS2Vendor: 'MONO'
OS2CodePages: 20000001.00000000
OS2UnicodeRanges: 8000006f.4000000a.00000000.00000000
Lookup: 1 0 0 "'rtla' Right to Left Alternates lookup 0" { "'rtla' Right to Left Alternates lookup 0 subtable"  } ['rtla' ('DFLT' <'dflt' > ) ]
Lookup: 1 0 0 "'sups' Superscript lookup 1" { "'sups' Superscript lookup 1 subtable" ("superior") } ['sups' ('DFLT' <'dflt' > ) ]
Lookup: 4 0 0 "'frac' Diagonal Fractions lookup 2" { "'frac' Diagonal Fractions lookup 2 subtable"  } ['frac' ('DFLT' <'dflt' > ) ]
Lookup: 4 0 0 "'dlig' Discretionary Ligatures in Latin lookup 3" { "'dlig' Discretionary Ligatures in Latin lookup 3 subtable"  } ['dlig' ('latn' <'dflt' > ) ]
Lookup: 4 0 1 "'liga' Standard Ligatures in Latin lookup 4" { "'liga' Standard Ligatures in Latin lookup 4 subtable"  } ['liga' ('latn' <'dflt' > ) ]

StartChar: .notdef
Encoding: 65536 -1 0
Width: 600
GlyphClass: 1
Flags: MW
HStem: 0 34<59.0439 388.044 59.0439 414.195> 656 34<202.645 531.645 202.645 202.645>
LayerCount: 2
Fore
SplineSet
176.494140625 690 m 1
 573.494140625 690 l 1
 414.1953125 0 l 1
 17.1953125 0 l 1
 176.494140625 690 l 1
388.043945312 34 m 1
 531.64453125 656 l 1
 202.64453125 656 l 1
 59.0439453125 34 l 1
 388.043945312 34 l 1
EndSplineSet
EndChar

StartChar: exclam
Encoding: 33 33 3
Width: 208
GlyphClass: 2
Flags: MW
HStem: 0 127<-5.48535 74.1953 -34.8047 103.515> 670 20G<116.494 242.494 242.494 242.494>
VStem: -34.8047 277.299
LayerCount: 2
Fore
SplineSet
116.494140625 690 m 1
 242.494140625 690 l 1
 109.986328125 220 l 1
 31.986328125 220 l 1
 116.494140625 690 l 1
-5.4853515625 127 m 1
 103.514648438 127 l 1
 74.1953125 0 l 1
 -34.8046875 0 l 1
 -5.4853515625 127 l 1
EndSplineSet
EndChar

StartChar: quotedbl
Encoding: 34 34 4
Width: 351
GlyphClass: 2
Flags: MW
HStem: 398 292<104.494 150.08 37.0801 217.494 217.08 217.08 217.08 217.494 284.494 330.08>
LayerCount: 2
Fore
SplineSet
104.494140625 690 m 1
 217.494140625 690 l 1
 150.080078125 398 l 1
 37.080078125 398 l 1
 104.494140625 690 l 1
284.494140625 690 m 1
 397.494140625 690 l 1
 330.080078125 398 l 1
 217.080078125 398 l 1
 284.494140625 690 l 1
EndSplineSet
EndChar

StartChar: numbersign
Encoding: 35 35 5
Width: 462
GlyphClass: 2
Flags: MW
HStem: 0 21G<-29.8047 62.1953 -29.8047 -29.8047 151.195 242.195 151.195 151.195> 213 82<-1.69922 41.3701 -20.6299 69.3008 160.301 222.37 -1.69922 133.37 341.301 394.37> 410 82<63.7822 107.851 44.8506 134.782 63.7822 198.851 226.782 287.851 406.782 458.851> 670 20G<201.494 292.494 292.494 292.494 381.494 473.494 473.494 473.494>
LayerCount: 2
Fore
SplineSet
379.850585938 410 m 1
 341.30078125 295 l 1
 413.30078125 295 l 1
 394.370117188 213 l 1
 313.370117188 213 l 1
 242.1953125 0 l 1
 151.1953125 0 l 1
 222.370117188 213 l 1
 133.370117188 213 l 1
 62.1953125 0 l 1
 -29.8046875 0 l 1
 41.3701171875 213 l 1
 -20.6298828125 213 l 1
 -1.69921875 295 l 1
 69.30078125 295 l 1
 107.850585938 410 l 1
 44.8505859375 410 l 1
 63.7822265625 492 l 1
 134.782226562 492 l 1
 201.494140625 690 l 1
 292.494140625 690 l 1
 226.782226562 492 l 1
 315.782226562 492 l 1
 381.494140625 690 l 1
 473.494140625 690 l 1
 406.782226562 492 l 1
 477.782226562 492 l 1
 458.850585938 410 l 1
 379.850585938 410 l 1
287.850585938 410 m 1
 198.850585938 410 l 1
 160.30078125 295 l 1
 249.30078125 295 l 1
 287.850585938 410 l 1
EndSplineSet
EndChar

StartChar: dollar
Encoding: 36 36 6
Width: 428
GlyphClass: 2
Flags: MW
VStem: -15.627 115<213 213> 284.474 112<482 482>
LayerCount: 2
Fore
SplineSet
281.78125 93.5 m 0
 253.4453125 63.1669921875 218.53515625 43.3330078125 177.046875 34 c 1
 158.80859375 -45 l 1
 73.80859375 -45 l 1
 90.662109375 28 l 1
 43.7392578125 32.6669921875 11.4716796875 51 -6.140625 83 c 0
 -23.751953125 115 -26.9150390625 158.333007812 -15.626953125 213 c 1
 99.373046875 213 l 1
 94.3955078125 185.666992188 95.4951171875 165.166992188 102.672851562 151.5 c 0
 109.850585938 137.833007812 123.440429688 131 143.440429688 131 c 0
 164.107421875 131 180.698242188 137.166992188 193.211914062 149.5 c 0
 205.725585938 161.833007812 215.060546875 181.333007812 221.217773438 208 c 0
 225.98828125 228.666992188 224.50390625 245.333984375 216.760742188 258 c 0
 209.018554688 270.666992188 194.122070312 282.666992188 172.071289062 294 c 2
 128.150390625 316 l 2
 91.638671875 334 67.58984375 356.166992188 56.001953125 382.5 c 0
 44.4150390625 408.833984375 43.8544921875 444.666992188 54.3203125 490 c 0
 65.40234375 538 87.27734375 577.166992188 119.947265625 607.5 c 0
 152.6171875 637.833007812 191.721679688 656.333007812 237.260742188 663 c 1
 258.5 755 l 1
 343.5 755 l 1
 321.336914062 659 l 1
 355.028320312 649 378.411132812 629 391.485351562 599 c 0
 404.55859375 569 406.221679688 530 396.473632812 482 c 1
 284.473632812 482 l 1
 289.807617188 508 289.809570312 527.5 284.479492188 540.5 c 0
 279.147460938 553.5 266.481445312 560 246.481445312 560 c 0
 208.481445312 560 184.555664062 538.666992188 174.705078125 496 c 0
 170.087890625 476 171.061523438 460 177.624023438 448 c 0
 184.186523438 436 196.544921875 426 214.697265625 418 c 2
 257.311523438 399 l 2
 298.334960938 380.333007812 325.33203125 356.5 338.303710938 327.5 c 0
 351.276367188 298.5 352.143554688 259.666992188 340.908203125 211 c 0
 329.826171875 163 310.1171875 123.833007812 281.78125 93.5 c 0
164.49609375 689.999023438 m 1024
EndSplineSet
EndChar

StartChar: percent
Encoding: 37 37 7
Width: 762
GlyphClass: 2
Flags: MW
HStem: -7 74<546 557.333 546 571.581> 0 21G<126.195 208.195 126.195 126.195> 266 74<131.025 142.358 131.025 156.605> 349 74<611.104 622.435> 622 74<196.13 207.463>
LayerCount: 2
Fore
SplineSet
547.340820312 698 m 1x78
 629.340820312 698 l 1
 208.1953125 0 l 1
 126.1953125 0 l 1
 547.340820312 698 l 1x78
34.462890625 378 m 2
 82.021484375 584 l 2
 99.259765625 658.666992188 144.87890625 696 218.87890625 696 c 0
 292.87890625 696 321.259765625 658.666992188 304.021484375 584 c 2
 256.462890625 378 l 2
 239.224609375 303.333007812 193.60546875 266 119.60546875 266 c 0
 45.60546875 266 17.224609375 303.333007812 34.462890625 378 c 2
162.614257812 350.5 m 0
 168.563476562 357.5 173.772460938 370.666992188 178.235351562 390 c 2
 220.252929688 572 l 2
 224.87109375 592 225.782226562 605.333007812 222.98828125 612 c 0
 220.193359375 618.666992188 213.129882812 622 201.796875 622 c 0
 190.462890625 622 182.026367188 618.666992188 176.487304688 612 c 0
 170.948242188 605.333007812 165.870117188 592 161.251953125 572 c 2
 119.234375 390 l 2
 114.771484375 370.666992188 113.731445312 357.5 116.115234375 350.5 c 0
 118.499023438 343.5 125.358398438 340 136.69140625 340 c 0
 148.024414062 340 156.665039062 343.5 162.614257812 350.5 c 0
449.4375 105 m 2
 496.997070312 311 l 2
 514.235351562 385.666992188 559.854492188 423 633.854492188 423 c 0
 707.854492188 423 736.235351562 385.666992188 718.997070312 311 c 2
 671.4375 105 l 2
 654.200195312 30.3330078125 608.581054688 -7 534.581054688 -7 c 0xb8
 460.581054688 -7 432.200195312 30.3330078125 449.4375 105 c 2
577.588867188 77.5 m 0
 583.538085938 84.5 588.745117188 97.6669921875 593.208007812 117 c 2
 635.2265625 299 l 2
 639.84375 319 640.754882812 332.333007812 637.9609375 339 c 0
 635.162109375 345.666992188 628.098632812 349 616.770507812 349 c 0
 605.4375 349 597.000976562 345.666992188 591.461914062 339 c 0
 585.922851562 332.333007812 580.844726562 319 576.227539062 299 c 2
 534.208984375 117 l 2
 529.74609375 97.6669921875 528.706054688 84.5 531.08984375 77.5 c 0
 533.473632812 70.5 540.333007812 67 551.666015625 67 c 0
 562.999023438 67 571.639648438 70.5 577.588867188 77.5 c 0
EndSplineSet
EndChar

StartChar: ampersand
Encoding: 38 38 8
Width: 514
GlyphClass: 2
Flags: MW
HStem: -10.0029 107<84.5532 153.257> -0.00292969 21G<332.195 343.195 343.195 391.195> 608.997 91.0029<286.803 295.46>
LayerCount: 2
Fore
SplineSet
380.397460938 107 m 0xa0
 385.809570312 103 393.180664062 100.997070312 402.512695312 100.997070312 c 2
 414.512695312 100.997070312 l 1
 391.1953125 -0.0029296875 l 1
 343.1953125 -0.0029296875 l 2x60
 321.1953125 -0.0029296875 305.28515625 3.9970703125 295.465820312 11.9970703125 c 0
 285.645507812 19.9970703125 276.275390625 34.9970703125 267.354492188 56.9970703125 c 1
 243.146484375 32.9970703125 218.18359375 15.830078125 192.46484375 5.4970703125 c 0
 166.74609375 -4.8359375 138.553710938 -10.0029296875 107.88671875 -10.0029296875 c 0
 61.2197265625 -10.0029296875 26.9384765625 4.6640625 5.0439453125 33.9970703125 c 0
 -16.8515625 63.330078125 -22.1806640625 102.330078125 -10.9443359375 150.997070312 c 0
 -2.94140625 185.6640625 13.447265625 219.831054688 38.2197265625 253.498046875 c 0
 62.9921875 287.165039062 100.303710938 325.33203125 150.154296875 367.999023438 c 1
 134.004882812 410.666015625 123.392578125 444.833007812 118.318359375 470.5 c 0
 113.244140625 496.166992188 113.708007812 522 119.7109375 548 c 0
 130.176757812 593.333007812 152.974609375 630 188.106445312 658 c 0
 223.237304688 686 263.802734375 700 309.802734375 700 c 0
 355.135742188 700 388.903320312 686 411.106445312 658 c 0
 433.30859375 630 439.176757812 593.333007812 428.7109375 548 c 0
 421.938476562 518.666015625 407.345703125 488.666015625 384.932617188 458 c 0
 362.51953125 427.333007812 328.848632812 392.666015625 283.921875 354 c 1
 321.374023438 252 l 1
 384.458007812 326 l 1
 454.298828125 269 l 1
 356.44140625 157 l 1
 367.514648438 127 l 2
 370.697265625 117.666992188 374.991210938 111 380.397460938 107 c 0xa0
252.946289062 594.497070312 m 0
 243.047851562 584.830078125 236.09765625 571.330078125 232.095703125 553.997070312 c 0
 229.326171875 541.997070312 228.96484375 528.1640625 231.014648438 512.497070312 c 0
 233.065429688 496.830078125 238.755859375 475.997070312 248.0859375 449.997070312 c 1
 271.677734375 471.330078125 288.372070312 489.497070312 298.16796875 504.497070312 c 0
 307.963867188 519.497070312 314.940429688 535.997070312 319.095703125 553.997070312 c 0
 323.251953125 571.997070312 322.57421875 585.6640625 317.061523438 594.997070312 c 0
 311.549804688 604.330078125 302.126953125 608.997070312 288.793945312 608.997070312 c 0
 274.793945312 608.997070312 262.844726562 604.1640625 252.946289062 594.497070312 c 0
186.12890625 107.997070312 m 0
 199.155273438 115.330078125 214.901367188 128.663085938 233.364257812 147.99609375 c 1
 185.454101562 273.99609375 l 1
 161.041992188 251.99609375 143.040039062 232.49609375 131.448242188 215.49609375 c 0
 119.856445312 198.49609375 111.983398438 180.99609375 107.827148438 162.99609375 c 0
 102.90234375 141.663085938 103.96484375 125.330078125 111.014648438 113.997070312 c 0
 118.065429688 102.6640625 129.924804688 96.9970703125 146.590820312 96.9970703125 c 0xa0
 159.923828125 96.9970703125 173.102539062 100.6640625 186.12890625 107.997070312 c 0
EndSplineSet
EndChar

StartChar: quotesingle
Encoding: 39 39 9
Width: 171
GlyphClass: 2
Flags: MW
HStem: 398 292<104.494 150.08 37.0801 217.494>
VStem: 37.0801 180.414
LayerCount: 2
Fore
SplineSet
104.494140625 690 m 1
 217.494140625 690 l 1
 150.080078125 398 l 1
 37.080078125 398 l 1
 104.494140625 690 l 1
EndSplineSet
EndChar

StartChar: parenleft
Encoding: 40 40 10
Width: 272
GlyphClass: 2
Flags: MW
VStem: 5.01367 111.539
LayerCount: 2
Fore
SplineSet
5.013671875 114 m 0
 4.841796875 184 13.142578125 255.331054688 29.9189453125 327.998046875 c 0
 46.6953125 400.665039062 71.3310546875 471.998046875 103.825195312 541.998046875 c 0
 136.318359375 611.998046875 175.72265625 677.998046875 222.037109375 739.998046875 c 1
 321.037109375 739.998046875 l 1
 279.440429688 675.331054688 243.5234375 607.831054688 213.286132812 537.498046875 c 0
 183.048828125 467.165039062 159.92578125 397.33203125 143.918945312 327.999023438 c 0
 127.913085938 258.666015625 118.790039062 188.833007812 116.552734375 118.5 c 0
 114.315429688 48.1669921875 119.064453125 -19.3330078125 130.801757812 -84 c 1
 31.8017578125 -84 l 1
 14.1162109375 -22 5.1865234375 44 5.013671875 114 c 0
EndSplineSet
Substitution2: "'rtla' Right to Left Alternates lookup 0 subtable" parenright
EndChar

StartChar: parenright
Encoding: 41 41 11
Width: 272
GlyphClass: 2
Flags: MW
VStem: 139.286 111.539
LayerCount: 2
Fore
SplineSet
42.552734375 118.5 m 0
 72.7900390625 188.833007812 95.9130859375 258.666992188 111.919921875 328 c 0
 127.926757812 397.333984375 137.048828125 467.166992188 139.286132812 537.5 c 0
 141.524414062 607.833007812 136.774414062 675.333007812 125.037109375 740 c 1
 224.037109375 740 l 1
 241.723632812 678 250.653320312 612 250.825195312 542 c 0
 250.998046875 472 242.696289062 400.666992188 225.919921875 328 c 0
 209.143554688 255.333007812 184.5078125 184 152.013671875 114 c 0
 119.520507812 44 80.1162109375 -22 33.8017578125 -84 c 1
 -65.1982421875 -84 l 1
 -23.6015625 -19.3330078125 12.3154296875 48.1669921875 42.552734375 118.5 c 0
EndSplineSet
Substitution2: "'rtla' Right to Left Alternates lookup 0 subtable" parenleft
EndChar

StartChar: asterisk
Encoding: 42 42 12
Width: 336
GlyphClass: 2
Flags: MW
HStem: 392 298<141.695 276.494 141.695 276.494>
VStem: 71.3213 276.7<503 584>
LayerCount: 2
Fore
SplineSet
164.55078125 491 m 1
 88.546875 452 l 1
 71.3212890625 503 l 1
 149.556640625 543 l 1
 89.021484375 584 l 1
 131.2578125 637 l 1
 189.25390625 598 l 1
 210.494140625 690 l 1
 276.494140625 690 l 1
 254.791992188 596 l 1
 330.795898438 635 l 1
 348.021484375 584 l 1
 268.787109375 544 l 1
 330.090820312 502 l 1
 288.0859375 450 l 1
 230.08984375 489 l 1
 207.6953125 392 l 1
 141.6953125 392 l 1
 164.55078125 491 l 1
EndSplineSet
EndChar

StartChar: plus
Encoding: 43 43 13
Width: 419
GlyphClass: 2
Flags: MW
HStem: 220 111<24.6123 120.986 -1.01367 146.612 24.6123 231.986 257.612 353.986>
LayerCount: 2
Fore
SplineSet
120.986328125 220 m 1
 -1.013671875 220 l 1
 24.6123046875 331 l 1
 146.612304688 331 l 1
 174.778320312 453 l 1
 285.778320312 453 l 1
 257.612304688 331 l 1
 379.612304688 331 l 1
 353.986328125 220 l 1
 231.986328125 220 l 1
 203.8203125 98 l 1
 92.8203125 98 l 1
 120.986328125 220 l 1
EndSplineSet
EndChar

StartChar: comma
Encoding: 44 44 14
Width: 171
GlyphClass: 2
Flags: MW
HStem: -160 293<-91.7441 88.9004>
VStem: -91.7441 180.645
LayerCount: 2
Fore
SplineSet
-24.099609375 133 m 1
 88.900390625 133 l 1
 42.2646484375 -69 l 1
 -91.744140625 -160 l 1
 -24.099609375 133 l 1
EndSplineSet
EndChar

StartChar: hyphen
Encoding: 45 45 15
Width: 351
GlyphClass: 2
Flags: MW
HStem: 291 110<46.7734 296.378 21.3779 321.773>
VStem: 21.3779 300.396<291 401>
LayerCount: 2
Fore
SplineSet
46.7734375 401 m 1
 321.7734375 401 l 1
 296.377929688 291 l 1
 21.3779296875 291 l 1
 46.7734375 401 l 1
EndSplineSet
EndChar

StartChar: period
Encoding: 46 46 16
Width: 175
GlyphClass: 2
Flags: MW
HStem: 0 132<-24.3301 62.1953 -54.8047 92.6699>
VStem: -54.8047 147.475<0 132>
LayerCount: 2
Fore
SplineSet
-24.330078125 132 m 1
 92.669921875 132 l 1
 62.1953125 0 l 1
 -54.8046875 0 l 1
 -24.330078125 132 l 1
EndSplineSet
EndChar

StartChar: slash
Encoding: 47 47 17
Width: 298
GlyphClass: 2
Flags: MW
HStem: 678 20G<245.341 337.341 337.341 337.341>
LayerCount: 2
Fore
SplineSet
245.340820312 698 m 1
 337.340820312 698 l 1
 42.8857421875 -10 l 1
 -48.1142578125 -10 l 1
 245.340820312 698 l 1
EndSplineSet
EndChar

StartChar: zero
Encoding: 48 48 18
Width: 409
GlyphClass: 2
Flags: MW
HStem: -10 111.001<135.513 146.219> 590.001 110.999<254.033 264.741>
LayerCount: 2
Fore
SplineSet
4.0830078125 38.5 m 0
 -15.78515625 70.8330078125 -18.1005859375 120.000976562 -2.86328125 186.000976562 c 2
 71.0146484375 506.000976562 l 2
 86.09765625 571.333984375 111.0390625 620.166992188 145.8359375 652.5 c 0
 180.633789062 684.833007812 226.033203125 701 282.033203125 701 c 0
 338.700195312 701 376.967773438 684.833007812 396.8359375 652.5 c 0
 416.704101562 620.165039062 419.09765625 571.33203125 404.013671875 506 c 2
 330.13671875 186 l 2
 314.899414062 120 289.880859375 70.8330078125 255.083007812 38.5 c 0
 220.28515625 6.1669921875 174.552734375 -10 117.885742188 -10 c 0
 61.8857421875 -10 23.951171875 6.1669921875 4.0830078125 38.5 c 0
182.899414062 120.000976562 m 0
 192.490234375 132.66796875 200.98046875 155.000976562 208.368164062 187.000976562 c 2
 281.784179688 505.000976562 l 2
 289.018554688 536.333984375 290.764648438 558.333984375 287.021484375 571.000976562 c 0
 283.279296875 583.66796875 273.07421875 590.000976562 256.407226562 590.000976562 c 0
 239.740234375 590.000976562 226.983398438 583.833984375 218.13671875 571.500976562 c 0
 209.2890625 559.16796875 201.170898438 537.000976562 193.783203125 505.000976562 c 2
 120.3671875 187.000976562 l 2
 112.979492188 155.000976562 110.990234375 132.66796875 114.399414062 120.000976562 c 0
 117.807617188 107.333984375 127.512695312 101.000976562 143.512695312 101.000976562 c 0
 160.1796875 101.000976562 173.30859375 107.333984375 182.899414062 120.000976562 c 0
EndSplineSet
EndChar

StartChar: one
Encoding: 49 49 19
Width: 293
GlyphClass: 2
Flags: MW
HStem: 0 21G<38.1953 163.195 38.1953 38.1953> 670 20G<197.494 322.494 322.494 322.494>
VStem: 38.1953 284.299
LayerCount: 2
Fore
SplineSet
164.479492188 547 m 1
 51.703125 470 l 1
 84.716796875 613 l 1
 197.494140625 690 l 1
 322.494140625 690 l 1
 163.1953125 0 l 1
 38.1953125 0 l 1
 164.479492188 547 l 1
EndSplineSet
Substitution2: "'sups' Superscript lookup 1 subtable" uni00B9
EndChar

StartChar: two
Encoding: 50 50 20
Width: 397
GlyphClass: 2
Flags: MW
HStem: 0 111<112.821 279.195> 590.001 110<255.136 265.741>
LayerCount: 2
Fore
SplineSet
-25.1025390625 107 m 1
 215.233398438 390.000976562 l 2
 231.850585938 410.000976562 244.314453125 427.16796875 252.623046875 441.500976562 c 0
 260.932617188 455.833984375 267.626953125 474.000976562 272.706054688 496.000976562 c 2
 281.709960938 535.000976562 l 2
 290.174804688 571.66796875 280.07421875 590.000976562 251.407226562 590.000976562 c 0
 223.407226562 590.000976562 204.790039062 570.000976562 195.555664062 530.000976562 c 2
 184.935546875 484.000976562 l 1
 65.935546875 484.000976562 l 1
 80.0185546875 545.000976562 l 2
 90.9462890625 592.333984375 114.641601562 630.000976562 151.106445312 658.000976562 c 0
 187.5703125 686.000976562 230.469726562 700.000976562 279.802734375 700.000976562 c 0
 329.135742188 700.000976562 364.994140625 685.66796875 387.375 657.000976562 c 0
 409.756835938 628.333984375 415.330078125 589.666992188 404.094726562 541 c 2
 392.782226562 492 l 2
 385.85546875 462 375.814453125 435.833007812 362.659179688 413.5 c 0
 349.502929688 391.166992188 331.025390625 366 307.228515625 338 c 2
 112.821289062 111 l 1
 304.821289062 111 l 1
 279.1953125 0 l 1
 -49.8046875 0 l 1
 -25.1025390625 107 l 1
EndSplineSet
Substitution2: "'sups' Superscript lookup 1 subtable" uni00B2
EndChar

StartChar: three
Encoding: 51 51 21
Width: 399
GlyphClass: 2
Flags: MW
HStem: -10 111.001<120.18 135.886> 589.001 111<249.136 255.177>
LayerCount: 2
Fore
SplineSet
-1.3017578125 32.5 m 0
 -22.7607421875 60.8330078125 -27.7939453125 99.66796875 -16.404296875 149.000976562 c 2
 -4.6298828125 200.000976562 l 1
 114.370117188 200.000976562 l 1
 103.98046875 155.000976562 l 2
 95.6689453125 119.000976562 105.846679688 101.000976562 134.513671875 101.000976562 c 0
 151.180664062 101.000976562 163.66796875 106.000976562 171.9765625 116.000976562 c 0
 180.28515625 126.000976562 186.825195312 141.333984375 191.596679688 162.000976562 c 2
 207.98828125 233.000976562 l 2
 213.68359375 257.66796875 214.3515625 275.000976562 209.993164062 285.000976562 c 0
 205.634765625 295.000976562 193.456054688 300.000976562 173.456054688 300.000976562 c 2
 147.456054688 300.000976562 l 1
 172.8515625 410.000976562 l 1
 200.8515625 410.000976562 l 2
 220.184570312 410.000976562 234.133789062 414.833984375 242.698242188 424.500976562 c 0
 251.263671875 434.16796875 258.008789062 449.66796875 262.93359375 471.000976562 c 2
 276.09375 528.000976562 l 2
 280.865234375 548.66796875 281.237304688 564.000976562 277.213867188 574.000976562 c 0
 273.189453125 584.000976562 263.176757812 589.000976562 247.176757812 589.000976562 c 0
 218.509765625 589.000976562 200.020507812 571.000976562 191.709960938 535.000976562 c 2
 182.012695312 493.000976562 l 1
 63.0126953125 493.000976562 l 1
 74.3251953125 542.000976562 l 2
 85.5615234375 590.66796875 108.950195312 629.16796875 144.491210938 657.500976562 c 0
 180.032226562 685.833984375 223.469726562 700.000976562 274.802734375 700.000976562 c 0
 326.802734375 700.000976562 363.827148438 685.66796875 385.875 657.000976562 c 0
 407.923828125 628.333984375 412.868164062 587.666992188 400.708984375 535 c 2
 389.858398438 488 l 2
 382.163085938 454.666992188 371.006835938 428 356.388671875 408 c 0
 341.771484375 388 320.078125 372 291.307617188 360 c 1
 316.537109375 348 331.342773438 332 335.725585938 312 c 0
 340.108398438 292 338.067382812 263.666992188 329.6015625 227 c 2
 313.209960938 156 l 2
 301.205078125 104 277.31640625 63.3330078125 241.543945312 34 c 0
 205.772460938 4.6669921875 161.885742188 -10 109.885742188 -10 c 0
 57.21875 -10 20.1572265625 4.1669921875 -1.3017578125 32.5 c 0
EndSplineSet
Substitution2: "'sups' Superscript lookup 1 subtable" uni00B3
EndChar

StartChar: four
Encoding: 52 52 22
Width: 427
GlyphClass: 2
Flags: MW
HStem: 0 21G<150.195 273.195 150.195 150.195> 115 111<-4.62891 -4.62891 118.371 176.745 -30.2549 -4.62891 325.371 342.745> 670 20G<239.494 362.494 362.494 362.494>
LayerCount: 2
Fore
SplineSet
342.745117188 115 m 1
 299.745117188 115 l 1
 273.1953125 0 l 1
 150.1953125 0 l 1
 176.745117188 115 l 1
 -30.2548828125 115 l 1
 -4.62890625 226 l 1
 239.494140625 690 l 1
 362.494140625 690 l 1
 118.37109375 226 l 1
 202.37109375 226 l 1
 237.462890625 378 l 1
 360.462890625 378 l 1
 325.37109375 226 l 1
 368.37109375 226 l 1
 342.745117188 115 l 1
EndSplineSet
EndChar

StartChar: five
Encoding: 53 53 23
Width: 406
GlyphClass: 2
Flags: MW
HStem: -10 110.001<133.615 143.551> 343.001 107<192.048 300.084> 578.001 112<207.635 417.635 207.635 207.635>
LayerCount: 2
Fore
SplineSet
4.3134765625 33 m 0
 -17.4013671875 61.6669921875 -21.94921875 103.333984375 -9.3291015625 158.000976562 c 2
 -1.94140625 190.000976562 l 1
 119.05859375 190.000976562 l 1
 112.825195312 163.000976562 l 2
 107.74609375 141.000976562 107.385742188 125.000976562 111.744140625 115.000976562 c 0
 116.102539062 105.000976562 125.948242188 100.000976562 141.28125 100.000976562 c 0
 156.614257812 100.000976562 168.768554688 105.000976562 177.744140625 115.000976562 c 0
 186.719726562 125.000976562 193.74609375 141.000976562 198.825195312 163.000976562 c 2
 226.760742188 284.000976562 l 2
 235.841796875 323.333984375 226.048828125 343.000976562 197.381835938 343.000976562 c 0
 186.71484375 343.000976562 177.393554688 340.16796875 169.418945312 334.500976562 c 0
 161.443359375 328.833984375 153.404296875 320.000976562 145.30078125 308.000976562 c 1
 33.30078125 308.000976562 l 1
 121.4921875 690.000976562 l 1
 443.4921875 690.000976562 l 1
 417.634765625 578.000976562 l 1
 207.634765625 578.000976562 l 1
 172.081054688 424.000976562 l 1
 195.416015625 441.333984375 223.416992188 450.000976562 256.083984375 450.000976562 c 0
 344.083984375 450.000976562 375.693359375 396.333984375 350.9140625 289.000976562 c 2
 321.36328125 161.000976562 l 2
 308.280273438 104.333984375 284.262695312 61.6669921875 249.311523438 33 c 0
 214.360351562 4.3330078125 170.217773438 -10 116.884765625 -10 c 0
 63.5517578125 -10 26.0283203125 4.3330078125 4.3134765625 33 c 0
EndSplineSet
EndChar

StartChar: six
Encoding: 54 54 24
Width: 400
GlyphClass: 2
Flags: MW
HStem: -10 111<125.179 140.219> 670 20G<265.494 392.494 392.494 392.494>
LayerCount: 2
Fore
SplineSet
0.4287109375 33.5 m 0
 -21.208984375 62.5 -25.7177734375 104.333007812 -13.0966796875 159 c 2
 10.6826171875 262 l 2
 17.916015625 293.333984375 26.6630859375 319.666992188 36.9208984375 341 c 0
 47.1787109375 362.333007812 61.541015625 387 80.0048828125 415 c 2
 265.494140625 690 l 1
 392.494140625 690 l 1
 213.390625 421 l 1
 225.134765625 425.666992188 238.340820312 428 253.006835938 428 c 0
 293.006835938 428 321.22265625 414.5 337.65625 387.5 c 0
 354.08984375 360.5 356.841796875 323.333007812 345.9140625 276 c 2
 317.979492188 155 l 2
 305.974609375 103 282.124023438 62.5 246.428710938 33.5 c 0
 210.733398438 4.5 166.552734375 -10 113.885742188 -10 c 0
 59.8857421875 -10 22.06640625 4.5 0.4287109375 33.5 c 0
174.745117188 115 m 0
 184.232421875 124.333007812 190.977539062 137.666015625 194.979492188 154.999023438 c 2
 220.836914062 266.999023438 l 2
 228.994140625 302.33203125 218.739257812 319.999023438 190.072265625 319.999023438 c 0
 176.072265625 319.999023438 164.443359375 315.83203125 155.186523438 307.499023438 c 0
 145.9296875 299.166015625 139.53125 287.333007812 135.991210938 272 c 2
 108.749023438 154 l 2
 100.590820312 118.666992188 110.845703125 101 139.512695312 101 c 0
 153.512695312 101 165.256835938 105.666992188 174.745117188 115 c 0
EndSplineSet
EndChar

StartChar: seven
Encoding: 55 55 25
Width: 381
GlyphClass: 2
Flags: MW
HStem: 0 21G<-17.8047 105.195 -17.8047 -17.8047> 579 111<98.4941 284.867 72.8672 433.494 407.867 407.867>
LayerCount: 2
Fore
SplineSet
433.494140625 690 m 1
 407.8671875 579 l 1
 105.1953125 0 l 1
 -17.8046875 0 l 1
 284.8671875 579 l 1
 72.8671875 579 l 1
 98.494140625 690 l 1
 433.494140625 690 l 1
EndSplineSet
EndChar

StartChar: eight
Encoding: 56 56 26
Width: 410
GlyphClass: 2
Flags: MW
HStem: -10 109<135.717 145.552> 590.999 109.002<257.469 264.638>
LayerCount: 2
Fore
SplineSet
5.16015625 34.5 m 0
 -16.658203125 64.1669921875 -21.025390625 107.333984375 -7.9423828125 164.000976562 c 2
 8.44921875 235.000976562 l 2
 21.9931640625 293.66796875 51.3564453125 335.66796875 96.5380859375 361.000976562 c 1
 79.822265625 372.334960938 68.92578125 388.66796875 63.8505859375 410.000976562 c 0
 58.7763671875 431.333984375 58.85546875 453.333984375 64.087890625 476.000976562 c 2
 79.0947265625 541.000976562 l 2
 90.330078125 589.66796875 114.424804688 628.334960938 151.375 657.000976562 c 0
 188.327148438 685.66796875 232.135742188 700.000976562 282.802734375 700.000976562 c 0
 334.135742188 700.000976562 371.494140625 685.66796875 394.875 657.000976562 c 0
 418.256835938 628.333984375 424.330078125 589.666992188 413.094726562 541 c 2
 398.087890625 476 l 2
 392.85546875 453.333007812 382.609375 431.333007812 367.350585938 410 c 0
 352.092773438 388.666992188 333.822265625 372.333984375 312.538085938 361.000976562 c 1
 346.176757812 336.333984375 356.147460938 294.333984375 342.44921875 235.000976562 c 2
 326.057617188 164.000976562 l 2
 312.974609375 107.333984375 288.508789062 64.1669921875 252.66015625 34.5 c 0
 216.810546875 4.8330078125 172.21875 -10 118.885742188 -10 c 0
 64.8857421875 -10 26.9775390625 4.8330078125 5.16015625 34.5 c 0
253.4296875 425.5 m 0
 261.815429688 435.833984375 268.239257812 450.666992188 272.703125 469.999023438 c 2
 288.86328125 539.999023438 l 2
 292.557617188 555.999023438 291.776367188 568.499023438 286.521484375 577.499023438 c 0
 281.265625 586.499023438 271.637695312 590.999023438 257.637695312 590.999023438 c 0
 243.637695312 590.999023438 231.931640625 586.499023438 222.521484375 577.499023438 c 0
 213.110351562 568.499023438 206.557617188 555.999023438 202.86328125 539.999023438 c 2
 186.703125 469.999023438 l 2
 182.239257812 450.666015625 181.981445312 435.833007812 185.9296875 425.5 c 0
 189.876953125 415.166992188 199.850585938 410 215.850585938 410 c 0
 232.517578125 410 245.043945312 415.166992188 253.4296875 425.5 c 0
182.245117188 115 m 0
 190.374023438 125.666992188 196.901367188 141.666992188 201.826171875 163 c 2
 220.526367188 244 l 2
 229.607421875 283.333007812 219.814453125 303 191.147460938 303 c 0
 175.147460938 303 162.788085938 297.833007812 154.069335938 287.5 c 0
 145.350585938 277.166992188 138.8359375 262.666992188 134.526367188 244 c 2
 115.826171875 163 l 2
 110.901367188 141.666992188 110.20703125 125.666992188 113.745117188 115 c 0
 117.282226562 104.333007812 127.383789062 99 144.05078125 99 c 0
 161.383789062 99 174.115234375 104.333007812 182.245117188 115 c 0
EndSplineSet
EndChar

StartChar: nine
Encoding: 57 57 27
Width: 400
GlyphClass: 2
Flags: MW
HStem: 0 21G<-0.804688 126.195 -0.804688 -0.804688> 589 111<252.136 267.177>
LayerCount: 2
Fore
SplineSet
178.298828125 269 m 1
 167.887695312 264.333007812 154.682617188 262 138.682617188 262 c 0
 98.6826171875 262 70.4658203125 275.5 54.0322265625 302.5 c 0
 37.5986328125 329.5 34.8466796875 366.666992188 45.7744140625 414 c 2
 73.708984375 535 l 2
 85.71484375 587 109.564453125 627.5 145.259765625 656.5 c 0
 180.955078125 685.5 225.469726562 700 278.802734375 700 c 0
 332.802734375 700 370.455078125 685.5 391.759765625 656.5 c 0
 413.064453125 627.5 417.40625 585.666992188 404.786132812 531 c 2
 381.006835938 428 l 2
 373.772460938 396.666992188 365.154296875 370.166992188 355.15234375 348.5 c 0
 345.150390625 326.833007812 330.994140625 302.333007812 312.68359375 275 c 2
 126.1953125 0 l 1
 -0.8046875 0 l 1
 178.298828125 269 l 1
236.501953125 382.5 m 0
 245.758789062 390.834960938 252.159179688 402.66796875 255.698242188 418 c 2
 282.94140625 536 l 2
 291.098632812 571.333007812 281.176757812 589 253.176757812 589 c 0
 223.84375 589 205.021484375 571 196.709960938 535 c 2
 170.853515625 423 l 2
 162.6953125 387.666992188 173.284179688 370 202.6171875 370 c 0
 215.950195312 370 227.245117188 374.166992188 236.501953125 382.5 c 0
EndSplineSet
EndChar

StartChar: colon
Encoding: 58 58 28
Width: 175
GlyphClass: 2
Flags: MW
HStem: 0 132<-24.3301 62.1953 -54.8047 92.6699> 338 132<53.7031 140.229 23.2285 170.703>
VStem: -54.8047 225.508
LayerCount: 2
Fore
SplineSet
-24.330078125 132 m 1
 92.669921875 132 l 1
 62.1953125 0 l 1
 -54.8046875 0 l 1
 -24.330078125 132 l 1
53.703125 470 m 1
 170.703125 470 l 1
 140.228515625 338 l 1
 23.228515625 338 l 1
 53.703125 470 l 1
EndSplineSet
EndChar

StartChar: semicolon
Encoding: 59 59 29
Width: 175
GlyphClass: 2
Flags: MW
HStem: 338 132<53.7031 140.229 23.2285 170.703>
VStem: -87.7441 258.447
LayerCount: 2
Fore
SplineSet
53.703125 470 m 1
 170.703125 470 l 1
 140.228515625 338 l 1
 23.228515625 338 l 1
 53.703125 470 l 1
-20.099609375 133 m 1
 92.900390625 133 l 1
 46.2646484375 -69 l 1
 -87.744140625 -160 l 1
 -20.099609375 133 l 1
EndSplineSet
EndChar

StartChar: less
Encoding: 60 60 30
Width: 419
GlyphClass: 2
Flags: W
LayerCount: 2
Fore
SplineSet
1.755859375 232 m 1
 22.072265625 320 l 1
 395.932617188 458 l 1
 373.076171875 359 l 1
 135.9140625 276 l 1
 334.751953125 193 l 1
 311.896484375 94 l 1
 1.755859375 232 l 1
EndSplineSet
Substitution2: "'rtla' Right to Left Alternates lookup 0 subtable" greater
EndChar

StartChar: equal
Encoding: 61 61 31
Width: 419
GlyphClass: 2
Flags: MW
HStem: 132 95<0.601562 320.67 -21.3301 342.602> 325 94<44.9287 365.227 23.2266 386.929>
LayerCount: 2
Fore
SplineSet
44.9287109375 419 m 1
 386.928710938 419 l 1
 365.2265625 325 l 1
 23.2265625 325 l 1
 44.9287109375 419 l 1
0.6015625 227 m 1
 342.6015625 227 l 1
 320.669921875 132 l 1
 -21.330078125 132 l 1
 0.6015625 227 l 1
EndSplineSet
EndChar

StartChar: greater
Encoding: 62 62 32
Width: 419
GlyphClass: 2
Flags: W
LayerCount: 2
Fore
SplineSet
-7.248046875 193 m 1
 228.9140625 276 l 1
 31.076171875 359 l 1
 53.9326171875 458 l 1
 364.072265625 320 l 1
 343.755859375 232 l 1
 -30.103515625 94 l 1
 -7.248046875 193 l 1
EndSplineSet
Substitution2: "'rtla' Right to Left Alternates lookup 0 subtable" less
EndChar

StartChar: question
Encoding: 63 63 33
Width: 376
GlyphClass: 2
Flags: MW
HStem: 0 127<74.5146 155.195 45.1953 184.515> 594 105<233.904 252.998>
VStem: 50.9365 116<497 497>
LayerCount: 2
Fore
SplineSet
100.833984375 241 m 2
 107.606445312 270.333984375 115.16015625 293.666992188 123.495117188 311 c 0
 131.829101562 328.333007812 148.306640625 351.333007812 172.924804688 380 c 2
 220.853515625 436 l 2
 235.369140625 452.666992188 245.9609375 467.5 252.627929688 480.5 c 0
 259.295898438 493.5 265.015625 510.333007812 269.787109375 531 c 0
 279.483398438 573 268.6640625 594 237.331054688 594 c 0
 216.6640625 594 201.8046875 586.666992188 192.750976562 572 c 0
 183.698242188 557.333007812 175.09375 532.333007812 166.936523438 497 c 1
 50.9365234375 497 l 1
 66.6357421875 565 91.5 615.666992188 125.528320312 649 c 0
 159.556640625 682.333007812 205.237304688 699 262.5703125 699 c 0
 313.237304688 699 350.057617188 684.5 373.029296875 655.5 c 0
 396.000976562 626.5 401.483398438 586 389.478515625 534 c 0
 383.475585938 508 375.166015625 485 364.548828125 465 c 0
 353.931640625 445 336.543945312 421.666992188 312.387695312 395 c 2
 260.228515625 338 l 2
 244.380859375 321.333007812 233.494140625 306.666015625 227.5703125 294 c 0
 221.645507812 281.333007812 216.14453125 264 211.065429688 242 c 2
 200.907226562 198 l 1
 90.9072265625 198 l 1
 100.833984375 241 l 2
74.5146484375 127 m 1
 184.514648438 127 l 1
 155.1953125 0 l 1
 45.1953125 0 l 1
 74.5146484375 127 l 1
EndSplineSet
EndChar

StartChar: at
Encoding: 64 64 34
Width: 714
GlyphClass: 2
Flags: MW
HStem: -134 92.001<209.259 261.925> 56 90.001<482.901 489.456> 411 92.001<355.417 358.32 331.32 381.083> 610.001 91.999<403.265 449.691>
LayerCount: 2
Fore
SplineSet
80.9931640625 -94 m 0
 39.482421875 -67.3330078125 11.705078125 -28.8330078125 -2.341796875 21.5 c 0
 -16.388671875 71.8330078125 -15.5615234375 131 0.1376953125 199 c 2
 39.6162109375 370 l 2
 55.1611328125 437.333007812 81.8720703125 496 119.749023438 546 c 0
 157.625 596 203.680664062 634.5 257.9140625 661.5 c 0
 312.147460938 688.5 371.264648438 702 435.264648438 702 c 0
 499.264648438 702 552.314453125 688.5 594.4140625 661.5 c 0
 636.513671875 634.5 664.831054688 596.166992188 679.364257812 546.5 c 0
 693.897460938 496.833007812 693.623046875 439.333007812 678.5390625 374 c 2
 642.0625 216 l 2
 630.057617188 164 609.06640625 124.333007812 579.088867188 97 c 0
 549.111328125 69.6669921875 511.7890625 56 467.122070312 56 c 0
 439.122070312 56 416.301757812 61.8330078125 398.663085938 73.5 c 0
 381.0234375 85.1669921875 369.333007812 101.666992188 363.590820312 123 c 1
 350.204101562 99.6669921875 334.446289062 82.6669921875 316.31640625 72 c 0
 298.186523438 61.3330078125 275.788085938 56 249.122070312 56 c 0
 212.455078125 56 188.635742188 68.3330078125 177.665039062 93 c 0
 166.692382812 117.666992188 167.055664062 155.333984375 178.752929688 206.000976562 c 2
 215.23046875 364.000976562 l 2
 225.696289062 409.333984375 241.661132812 443.833984375 263.125 467.500976562 c 0
 284.588867188 491.16796875 313.3203125 503.000976562 349.3203125 503.000976562 c 0
 367.3203125 503.000976562 381.807617188 499.333984375 392.78125 492.000976562 c 0
 403.754882812 484.66796875 411.728515625 473.000976562 416.702148438 457.000976562 c 1
 425.474609375 495.000976562 l 1
 530.474609375 495.000976562 l 1
 460.521484375 192.000976562 l 2
 456.981445312 176.66796875 457.827148438 165.16796875 463.056640625 157.500976562 c 0
 468.287109375 149.833984375 476.901367188 146.000976562 488.901367188 146.000976562 c 0
 503.572265625 146.000976562 514.89453125 151.000976562 522.865234375 161.000976562 c 0
 530.840820312 171.000976562 536.829101562 184.66796875 540.830078125 202.000976562 c 2
 582.6171875 383.000976562 l 2
 599.39453125 455.66796875 593.322265625 511.66796875 564.403320312 551.000976562 c 0
 535.484375 590.333984375 485.357421875 610.000976562 414.024414062 610.000976562 c 0
 341.357421875 610.000976562 282.03515625 589.833984375 236.056640625 549.500976562 c 0
 190.077148438 509.16796875 157.853515625 449.000976562 139.384765625 369.000976562 c 2
 102.4453125 209.000976562 l 2
 63.8134765625 41.66796875 117.498046875 -41.9990234375 263.498046875 -41.9990234375 c 0
 296.165039062 -41.9990234375 325.510742188 -38.33203125 351.537109375 -30.9990234375 c 0
 377.563476562 -23.666015625 404.91015625 -11.3330078125 433.579101562 6 c 1
 467.95703125 -66 l 1
 430.569335938 -89.3330078125 393.439453125 -106.5 356.56640625 -117.5 c 0
 319.694335938 -128.5 281.591796875 -134 242.258789062 -134 c 0
 176.258789062 -134 122.50390625 -120.666992188 80.9931640625 -94 c 0
341.942382812 163.5 m 0
 349.661132812 173.833007812 355.598632812 188 359.754882812 206 c 2
 395.077148438 359 l 2
 403.081054688 393.666992188 394.083007812 411 368.083007812 411 c 0
 342.75 411 326.081054688 393.666992188 318.077148438 359 c 2
 282.0625 203 l 2
 277.90625 185 277.583984375 171.333007812 281.096679688 162 c 0
 284.608398438 152.666992188 293.364257812 148 307.364257812 148 c 0
 322.69921875 148 334.225585938 153.166992188 341.942382812 163.5 c 0
EndSplineSet
EndChar

StartChar: A
Encoding: 65 65 35
Width: 485
GlyphClass: 2
Flags: MW
HStem: 0 21G<-77.8047 50.1953 -77.8047 -77.8047 267.195 267.195 267.195 395.195> 134 110<157.526 270.131 109.131 273.526> 670 20G<258.494 378.494 378.494 378.494>
VStem: 270.131 125.064 280.17 98.3242
LayerCount: 2
Fore
SplineSet
270.130859375 134 m 1xf0
 109.130859375 134 l 1
 50.1953125 0 l 1
 -77.8046875 0 l 1
 258.494140625 690 l 1
 378.494140625 690 l 1xe8
 395.1953125 0 l 1
 267.1953125 0 l 1
 270.130859375 134 l 1xf0
273.526367188 244 m 1
 280.169921875 524 l 1
 157.526367188 244 l 1
 273.526367188 244 l 1
EndSplineSet
EndChar

StartChar: B
Encoding: 66 66 36
Width: 456
GlyphClass: 2
Flags: MW
HStem: 0.000976562 109.999<105.591 145.194> 307 106<175.543 202.071 151.071 227.543> 580.001 110<214.099 214.099 214.099 266.099>
LayerCount: 2
Fore
SplineSet
388.147460938 303 m 0
 392.8125 277 390.21875 242.66796875 380.369140625 200.000976562 c 0
 364.208007812 130.000976562 338.139648438 79.16796875 302.161132812 47.5009765625 c 0
 266.18359375 15.833984375 213.861328125 0.0009765625 145.194335938 0.0009765625 c 2
 -41.8056640625 0.0009765625 l 1
 117.493164062 690.000976562 l 1
 304.493164062 690.000976562 l 2
 371.826171875 690.000976562 416.401367188 675.16796875 438.219726562 645.500976562 c 0
 460.037109375 615.833984375 463.481445312 568.666992188 448.551757812 504 c 0
 440.702148438 470 428.33984375 441 411.465820312 417 c 0
 394.591796875 393 371.026367188 374.666992188 340.76953125 362 c 1
 367.69140625 348.666992188 383.483398438 329 388.147460938 303 c 0
214.098632812 580.000976562 m 1
 175.54296875 413 l 1
 227.54296875 413 l 2
 256.209960938 413 277.7109375 419.5 292.044921875 432.5 c 0
 306.379882812 445.5 316.93359375 466.666992188 323.705078125 496 c 0
 330.786132812 526.668945312 330.12109375 548.3359375 321.711914062 561.000976562 c 0
 313.303710938 573.66796875 294.765625 580.000976562 266.098632812 580.000976562 c 2
 214.098632812 580.000976562 l 1
224.78515625 132.5 m 0
 239.581054688 147.5 251.134765625 173 259.446289062 209 c 0
 267.450195312 243.666992188 267.0546875 268.666992188 258.26171875 284 c 0
 249.46875 299.333007812 230.73828125 307 202.071289062 307 c 2
 151.071289062 307 l 1
 105.590820312 110 l 1
 156.590820312 110 l 2
 187.2578125 110 209.989257812 117.5 224.78515625 132.5 c 0
EndSplineSet
EndChar

StartChar: C
Encoding: 67 67 37
Width: 468
GlyphClass: 2
Flags: MW
HStem: -8 111.001<150.308 174.348> 589.001 111<285.804 298.177>
LayerCount: 2
Fore
SplineSet
16.0068359375 42.5 m 0
 -10.8876953125 76.1669921875 -16.8681640625 125.333984375 -1.939453125 190.000976562 c 2
 69.861328125 501.000976562 l 2
 84.9443359375 566.333984375 114.705078125 615.833984375 159.14453125 649.500976562 c 0
 203.584960938 683.16796875 255.803710938 700.000976562 315.803710938 700.000976562 c 0
 373.13671875 700.000976562 415.622070312 683.333984375 443.259765625 650.000976562 c 0
 470.896484375 616.66796875 476.866210938 566.000976562 461.166992188 498.000976562 c 2
 456.319335938 477.000976562 l 1
 333.319335938 477.000976562 l 1
 337.936523438 497.000976562 l 2
 345.169921875 528.333984375 344.018554688 551.500976562 334.481445312 566.500976562 c 0
 324.9453125 581.500976562 309.176757812 589.000976562 287.176757812 589.000976562 c 0
 261.176757812 589.000976562 240.265625 580.000976562 224.443359375 562.000976562 c 0
 208.620117188 544.000976562 196.553710938 517.000976562 188.2421875 481.000976562 c 2
 124.291992188 204.000976562 l 2
 108.747070312 136.66796875 125.641601562 103.000976562 174.974609375 103.000976562 c 0
 196.974609375 103.000976562 216.244140625 110.66796875 232.784179688 126.000976562 c 0
 249.32421875 141.333984375 261.057617188 164.000976562 267.983398438 194.000976562 c 2
 272.138671875 212.000976562 l 1
 394.138671875 212.000976562 l 1
 389.752929688 193.000976562 l 2
 374.361328125 126.333984375 344.279296875 76.1669921875 299.506835938 42.5 c 0
 254.734375 8.8330078125 203.34765625 -8 145.34765625 -8 c 0
 86.0146484375 -8 42.9013671875 8.8330078125 16.0068359375 42.5 c 0
EndSplineSet
EndChar

StartChar: D
Encoding: 68 68 38
Width: 463
GlyphClass: 2
Flags: MW
HStem: 0 110.001<105.591 143.195> 579.001 111<213.868 337.494 213.868 337.494>
LayerCount: 2
Fore
SplineSet
117.494140625 690 m 1
 308.494140625 690.000976562 l 2
 366.494140625 690.000976562 409.146484375 673.333984375 436.451171875 640.000976562 c 0
 463.754882812 606.666992188 469.865234375 557.333984375 454.782226562 492.000976562 c 2
 386.907226562 198.000976562 l 2
 371.977539062 133.333984375 342.29296875 84.1669921875 297.853515625 50.5 c 0
 253.4140625 16.8330078125 201.861328125 0 143.1953125 0 c 2
 -41.8046875 0 l 1
 117.494140625 690 l 1
171.590820312 110.000976562 m 2
 194.923828125 110.000976562 214.8359375 119.001953125 231.32421875 137.001953125 c 0
 247.8125 155.001953125 259.751953125 180.001953125 267.139648438 212.001953125 c 2
 326.934570312 471.001953125 l 2
 335.091796875 506.334960938 335.286132812 533.16796875 327.518554688 551.500976562 c 0
 319.750976562 569.833984375 303.868164062 579.000976562 279.868164062 579.000976562 c 2
 213.868164062 579.000976562 l 1
 105.590820312 110.000976562 l 1
 171.590820312 110.000976562 l 2
EndSplineSet
EndChar

StartChar: E
Encoding: 69 69 39
Width: 375
GlyphClass: 2
Flags: MW
HStem: 0 110<105.591 266.195> 296 110<173.928 308.532 148.532 333.928> 579 111<213.867 213.867 213.867 399.867>
LayerCount: 2
Fore
SplineSet
213.8671875 579 m 1
 173.927734375 406 l 1
 333.927734375 406 l 1
 308.532226562 296 l 1
 148.532226562 296 l 1
 105.590820312 110 l 1
 291.590820312 110 l 1
 266.1953125 0 l 1
 -41.8046875 0 l 1
 117.494140625 690 l 1
 425.494140625 690 l 1
 399.8671875 579 l 1
 213.8671875 579 l 1
EndSplineSet
EndChar

StartChar: F
Encoding: 70 70 40
Width: 371
GlyphClass: 2
Flags: MW
HStem: 0 21G<-41.8047 81.1953 -41.8047 -41.8047> 292 111<174.234 308.608 148.608 334.234> 579 111<214.867 214.867 214.867 399.867>
LayerCount: 2
Fore
SplineSet
214.8671875 579 m 1
 174.234375 403 l 1
 334.234375 403 l 1
 308.608398438 292 l 1
 148.608398438 292 l 1
 81.1953125 0 l 1
 -41.8046875 0 l 1
 117.494140625 690 l 1
 425.494140625 690 l 1
 399.8671875 579 l 1
 214.8671875 579 l 1
EndSplineSet
EndChar

StartChar: G
Encoding: 71 71 41
Width: 468
GlyphClass: 2
Flags: MW
HStem: -8 111<150.308 174.681> 271 97<235.154 285.76 212.76 431.154> 589 111<285.803 297.842>
LayerCount: 2
Fore
SplineSet
16.0068359375 42.5 m 0
 -10.8876953125 76.1669921875 -16.8701171875 125.333007812 -1.9404296875 190 c 2
 69.859375 501 l 2
 84.943359375 566.333007812 114.704101562 615.833007812 159.143554688 649.5 c 0
 203.583007812 683.166992188 255.802734375 700 315.802734375 700 c 0
 373.135742188 700 415.698242188 683.666992188 443.489257812 651 c 0
 471.280273438 618.333007812 477.7890625 570 463.012695312 506 c 2
 458.165039062 485 l 1
 335.165039062 485 l 1
 340.012695312 506 l 2
 346.169921875 532.666992188 344.235351562 553.166992188 334.211914062 567.5 c 0
 324.1875 581.833007812 308.508789062 589 287.17578125 589 c 0
 261.17578125 589 240.265625 580 224.442382812 562 c 0
 208.620117188 544 196.553710938 517 188.2421875 481 c 2
 124.291992188 204 l 2
 108.747070312 136.666992188 125.641601562 103 174.974609375 103 c 0
 198.974609375 103 218.859375 111.166992188 234.630859375 127.5 c 0
 250.401367188 143.833007812 261.827148438 167.333007812 268.907226562 198 c 2
 285.759765625 271 l 1
 212.759765625 271 l 1
 235.154296875 368 l 1
 431.154296875 368 l 1
 390.059570312 190 l 2
 375.284179688 126 345.471679688 77 300.622070312 43 c 0
 255.772460938 9 204.014648438 -8 145.34765625 -8 c 0
 86.0146484375 -8 42.9013671875 8.8330078125 16.0068359375 42.5 c 0
EndSplineSet
EndChar

StartChar: H
Encoding: 72 72 42
Width: 460
GlyphClass: 2
Flags: MW
HStem: 0 21G<-41.8047 81.1953 -41.8047 -41.8047 211.195 334.195 211.195 211.195> 296 110<174.928 279.532 149.532 304.928> 670 20G<117.494 240.494 240.494 240.494 370.494 493.494 493.494 493.494>
LayerCount: 2
Fore
SplineSet
493.494140625 690 m 1
 334.1953125 0 l 1
 211.1953125 0 l 1
 279.532226562 296 l 1
 149.532226562 296 l 1
 81.1953125 0 l 1
 -41.8046875 0 l 1
 117.494140625 690 l 1
 240.494140625 690 l 1
 174.927734375 406 l 1
 304.927734375 406 l 1
 370.494140625 690 l 1
 493.494140625 690 l 1
EndSplineSet
EndChar

StartChar: I
Encoding: 73 73 43
Width: 214
GlyphClass: 2
Flags: MW
HStem: 0 21G<-37.8047 84.1953 -37.8047 -37.8047> 670 20G<121.494 243.494 243.494 243.494>
VStem: -37.8047 281.299
LayerCount: 2
Fore
SplineSet
121.494140625 690 m 1
 243.494140625 690 l 1
 84.1953125 0 l 1
 -37.8046875 0 l 1
 121.494140625 690 l 1
EndSplineSet
EndChar

StartChar: J
Encoding: 74 74 44
Width: 266
GlyphClass: 2
Flags: MW
HStem: 0 111<-66.8047 -25.1787 -66.8047 -25.1787> 670 20G<172.494 295.494 295.494 295.494>
LayerCount: 2
Fore
SplineSet
-41.1787109375 111 m 1
 -25.1787109375 111 l 2
 17.48828125 111 43.9775390625 133.333007812 54.2890625 178 c 2
 172.494140625 690 l 1
 295.494140625 690 l 1
 174.057617188 164 l 2
 148.815429688 54.6669921875 76.5283203125 0 -42.8046875 0 c 2
 -66.8046875 0 l 1
 -41.1787109375 111 l 1
EndSplineSet
EndChar

StartChar: K
Encoding: 75 75 45
Width: 460
GlyphClass: 2
Flags: MW
HStem: 0 21G<-41.8047 80.1953 -41.8047 -41.8047 241.195 241.195 241.195 372.195> 670 20G<117.494 239.494 239.494 239.494 386.494 509.494 509.494 509.494>
LayerCount: 2
Fore
SplineSet
197.836914062 267 m 1
 116.209960938 156 l 1
 80.1953125 0 l 1
 -41.8046875 0 l 1
 117.494140625 690 l 1
 239.494140625 690 l 1
 164.461914062 365 l 1
 386.494140625 690 l 1
 509.494140625 690 l 1
 299.927734375 406 l 1
 372.1953125 0 l 1
 241.1953125 0 l 1
 197.836914062 267 l 1
EndSplineSet
EndChar

StartChar: L
Encoding: 76 76 46
Width: 367
GlyphClass: 2
Flags: MW
HStem: 0 110<106.591 266.195> 670 20G<117.494 240.494 240.494 240.494>
LayerCount: 2
Fore
SplineSet
117.494140625 690 m 1
 240.494140625 690 l 1
 106.590820312 110 l 1
 291.590820312 110 l 1
 266.1953125 0 l 1
 -41.8046875 0 l 1
 117.494140625 690 l 1
EndSplineSet
EndChar

StartChar: M
Encoding: 77 77 47
Width: 571
GlyphClass: 2
Flags: MW
HStem: 0 21G<-41.8047 81.1953 -41.8047 -41.8047 322.195 445.195 322.195 322.195> 670 20G<117.494 240.494 240.494 240.494 481.494 604.494 604.494 604.494>
LayerCount: 2
Fore
SplineSet
604.494140625 690 m 1
 445.1953125 0 l 1
 322.1953125 0 l 1
 415.465820312 404 l 1
 265.130859375 134 l 1
 199.130859375 134 l 1
 173.7734375 401 l 1
 81.1953125 0 l 1
 -41.8046875 0 l 1
 117.494140625 690 l 1
 240.494140625 690 l 1
 276.458007812 326 l 1
 481.494140625 690 l 1
 604.494140625 690 l 1
EndSplineSet
EndChar

StartChar: N
Encoding: 78 78 48
Width: 474
GlyphClass: 2
Flags: MW
HStem: 0 21G<-41.8047 81.1953 -41.8047 -41.8047 225.195 348.195 225.195 225.195> 670 20G<117.494 240.494 240.494 240.494 384.494 507.494 507.494 507.494>
LayerCount: 2
Fore
SplineSet
507.494140625 690 m 1
 348.1953125 0 l 1
 225.1953125 0 l 1
 166.154296875 368 l 1
 81.1953125 0 l 1
 -41.8046875 0 l 1
 117.494140625 690 l 1
 240.494140625 690 l 1
 295.840820312 306 l 1
 384.494140625 690 l 1
 507.494140625 690 l 1
EndSplineSet
EndChar

StartChar: O
Encoding: 79 79 49
Width: 468
GlyphClass: 2
Flags: MW
HStem: -8 110.999<150.307 174.681> 588.999 111.001<285.803 299.176>
LayerCount: 2
Fore
SplineSet
16.0068359375 42.5 m 0
 -10.8876953125 76.1669921875 -16.8701171875 125.333007812 -1.9404296875 190 c 2
 69.859375 501 l 2
 84.943359375 566.333007812 114.704101562 615.833007812 159.143554688 649.5 c 0
 203.583007812 683.166992188 255.802734375 700 315.802734375 700 c 0
 373.802734375 700 416.416015625 683.166992188 443.643554688 649.5 c 0
 470.87109375 615.833007812 476.943359375 566.333007812 461.859375 501 c 2
 390.059570312 190 l 2
 375.284179688 126 345.471679688 77 300.622070312 43 c 0
 255.772460938 9 204.014648438 -8 145.34765625 -8 c 0
 86.0146484375 -8 42.9013671875 8.8330078125 16.0068359375 42.5 c 0
234.591796875 129.499023438 m 0
 251.00390625 147.166015625 262.904296875 172 270.291992188 204 c 2
 334.2421875 481 l 2
 342.399414062 516.333007812 342.594726562 543.166015625 334.827148438 561.499023438 c 0
 327.059570312 579.83203125 311.17578125 588.999023438 287.17578125 588.999023438 c 0
 261.17578125 588.999023438 240.265625 579.999023438 224.442382812 561.999023438 c 0
 208.620117188 543.999023438 196.553710938 516.999023438 188.2421875 480.999023438 c 2
 124.291992188 203.999023438 l 2
 108.747070312 136.666015625 125.640625 102.999023438 174.973632812 102.999023438 c 0
 198.307617188 102.999023438 218.180664062 111.83203125 234.591796875 129.499023438 c 0
EndSplineSet
EndChar

StartChar: P
Encoding: 80 80 50
Width: 434
GlyphClass: 2
Flags: MW
HStem: 0 21G<-41.8047 80.1953 -41.8047 -41.8047> 255 111<164.693 203.066 139.066 224.693> 580 110<214.1 274.1 214.1 214.1>
LayerCount: 2
Fore
SplineSet
436.52734375 636 m 0
 457.215820312 600 459.172851562 545.666992188 442.396484375 473 c 0
 425.465820312 399.666992188 398.012695312 345 360.034179688 309 c 0
 322.055664062 273 269.733398438 255 203.06640625 255 c 2
 139.06640625 255 l 1
 80.1953125 0 l 1
 -41.8046875 0 l 1
 117.494140625 690 l 1
 303.494140625 690 l 2
 371.494140625 690 415.837890625 672 436.52734375 636 c 0
285.196289062 392 m 0
 299.53125 409.333007812 310.931640625 436.333007812 319.396484375 473 c 0
 327.861328125 509.666992188 328.927734375 536.666992188 322.596679688 554 c 0
 316.265625 571.333007812 300.099609375 580 274.099609375 580 c 2
 214.099609375 580 l 1
 164.693359375 366 l 1
 224.693359375 366 l 2
 250.693359375 366 270.861328125 374.666992188 285.196289062 392 c 0
EndSplineSet
EndChar

StartChar: Q
Encoding: 81 81 51
Width: 468
GlyphClass: 2
Flags: MW
HStem: 588.999 111.001<285.803 299.176>
LayerCount: 2
Fore
SplineSet
341.703125 84.5 m 0
 319.0078125 55.5 291.890625 33.33203125 260.350585938 17.9990234375 c 1
 276.4921875 -107.000976562 l 1
 163.71875 -145.000976562 l 1
 146.34765625 -8.0009765625 l 1
 145.34765625 -8.0009765625 l 2
 86.0146484375 -8.0009765625 42.900390625 8.83203125 16.0068359375 42.4990234375 c 0
 -10.8876953125 76.166015625 -16.8701171875 125.333007812 -1.9404296875 190 c 2
 69.859375 501 l 2
 84.943359375 566.333007812 114.704101562 615.833007812 159.143554688 649.5 c 0
 203.583007812 683.166992188 255.802734375 700 315.802734375 700 c 0
 373.802734375 700 416.416015625 683.166992188 443.643554688 649.5 c 0
 470.87109375 615.833007812 476.943359375 566.333007812 461.859375 501 c 2
 390.059570312 190 l 2
 380.517578125 148.666992188 364.3984375 113.5 341.703125 84.5 c 0
174.973632812 102.999023438 m 0
 198.307617188 102.999023438 218.180664062 111.833007812 234.591796875 129.5 c 0
 251.00390625 147.166992188 262.904296875 172 270.291992188 204 c 2
 334.2421875 481 l 2
 342.399414062 516.333007812 342.594726562 543.166015625 334.827148438 561.499023438 c 0
 327.059570312 579.83203125 311.17578125 588.999023438 287.17578125 588.999023438 c 0
 261.17578125 588.999023438 240.265625 579.999023438 224.442382812 561.999023438 c 0
 208.620117188 543.999023438 196.553710938 516.999023438 188.2421875 480.999023438 c 2
 124.291992188 203.999023438 l 2
 108.747070312 136.666015625 125.640625 102.999023438 174.973632812 102.999023438 c 0
EndSplineSet
EndChar

StartChar: R
Encoding: 82 82 52
Width: 460
GlyphClass: 2
Flags: MW
HStem: 0 21G<-41.8047 81.1953 -41.8047 -41.8047 227.195 227.195 227.195 355.195> 580 110<215.099 279.099 215.099 215.099>
LayerCount: 2
Fore
SplineSet
204.145507812 277 m 1
 145.145507812 277 l 1
 81.1953125 0 l 1
 -41.8046875 0 l 1
 117.494140625 690 l 1
 305.494140625 690 l 2
 373.494140625 690 417.889648438 673.666992188 438.681640625 641 c 0
 459.47265625 608.333007812 461.557617188 556 444.934570312 484 c 0
 434.315429688 438 419.131835938 399.666992188 399.384765625 369 c 0
 379.638671875 338.333007812 353.661132812 315.333007812 321.455078125 300 c 1
 355.1953125 0 l 1
 227.1953125 0 l 1
 204.145507812 277 l 1
170.541015625 387 m 1
 234.541015625 387 l 2
 259.208007812 387 278.09375 395.166992188 291.197265625 411.5 c 0
 304.30078125 427.833007812 314.546875 452 321.934570312 484 c 0
 329.323242188 516 330.36328125 540 325.057617188 556 c 0
 319.750976562 572 304.431640625 580 279.098632812 580 c 2
 215.098632812 580 l 1
 170.541015625 387 l 1
EndSplineSet
EndChar

StartChar: S
Encoding: 83 83 53
Width: 426
GlyphClass: 2
Flags: MW
HStem: -8 105.999<136.818 152.014> 594.999 106<261.366 277.561>
VStem: -19.3242 116<196.999 196.999> 311.858 113<500.999 500.999>
LayerCount: 2
Fore
SplineSet
-5.416015625 45 m 0
 -29.2587890625 80.3330078125 -33.89453125 130.999023438 -19.32421875 196.999023438 c 1
 96.67578125 196.999023438 l 1
 90.1591796875 162.999023438 91.220703125 137.999023438 99.859375 121.999023438 c 0
 108.499023438 105.999023438 124.818359375 97.9990234375 148.818359375 97.9990234375 c 0
 172.818359375 97.9990234375 192.01171875 105.33203125 206.397460938 119.999023438 c 0
 220.784179688 134.666015625 231.670898438 157.999023438 239.05859375 189.999023438 c 0
 245.21484375 216.666015625 243.934570312 237.833007812 235.21875 253.499023438 c 0
 226.502929688 269.166015625 209.017578125 283.666015625 182.762695312 296.999023438 c 2
 140.610351562 317.999023438 l 2
 100.561523438 337.999023438 74.0888671875 362.666015625 61.1943359375 391.999023438 c 0
 48.298828125 421.333007812 47.546875 460.666015625 58.9365234375 509.999023438 c 0
 72.3271484375 567.999023438 99.8564453125 614.33203125 141.52734375 648.999023438 c 0
 183.197265625 683.666015625 232.69921875 700.999023438 290.032226562 700.999023438 c 0
 346.69921875 700.999023438 386.569335938 683.83203125 409.642578125 649.499023438 c 0
 432.715820312 615.166015625 437.788085938 565.666015625 424.858398438 500.999023438 c 1
 311.858398438 500.999023438 l 1
 318.42578125 532.33203125 318.350585938 555.83203125 311.634765625 571.499023438 c 0
 304.918945312 587.166015625 289.560546875 594.999023438 265.560546875 594.999023438 c 0
 220.893554688 594.999023438 192.48046875 568.666015625 180.321289062 515.999023438 c 0
 174.78125 491.999023438 175.85546875 472.83203125 183.546875 458.499023438 c 0
 191.237304688 444.166015625 206.775390625 431.333007812 230.158203125 420 c 2
 270.541015625 400 l 2
 313.616210938 378.666992188 342.29296875 352 356.571289062 320 c 0
 370.850585938 288 371.833007812 245.333007812 359.520507812 192 c 0
 344.745117188 128 316.688476562 78.6669921875 275.352539062 44 c 0
 234.015625 9.3330078125 182.680664062 -8 121.34765625 -8 c 0
 60.6806640625 -8 18.4267578125 9.6669921875 -5.416015625 45 c 0
EndSplineSet
EndChar

StartChar: T
Encoding: 84 84 54
Width: 369
GlyphClass: 2
Flags: MW
HStem: 0 21G<40.1953 162.195 40.1953 40.1953> 579 111<79.4941 173.867 53.8672 440.494 295.867 414.867 295.867 295.867>
LayerCount: 2
Fore
SplineSet
414.8671875 579 m 1
 295.8671875 579 l 1
 162.1953125 0 l 1
 40.1953125 0 l 1
 173.8671875 579 l 1
 53.8671875 579 l 1
 79.494140625 690 l 1
 440.494140625 690 l 1
 414.8671875 579 l 1
EndSplineSet
EndChar

StartChar: U
Encoding: 85 85 55
Width: 460
GlyphClass: 2
Flags: MW
HStem: -8 111.001<158.975 162.348> 670.001 20G<117.494 240.494 240.494 240.494 370.494 493.494 493.494 493.494>
LayerCount: 2
Fore
SplineSet
53.2734375 15.5 m 0
 28.5576171875 31.1669921875 11.3408203125 53.333984375 1.6259765625 82.0009765625 c 0
 -8.0888671875 110.66796875 -8.63671875 143.66796875 -0.017578125 181.000976562 c 2
 117.494140625 690.000976562 l 1
 240.494140625 690.000976562 l 1
 123.674804688 184.000976562 l 2
 117.2109375 156.000976562 117.810546875 135.500976562 125.4765625 122.500976562 c 0
 133.142578125 109.500976562 147.974609375 103.000976562 169.974609375 103.000976562 c 0
 213.307617188 103.000976562 241.208007812 130.000976562 253.674804688 184.000976562 c 2
 370.494140625 690.000976562 l 1
 493.494140625 690.000976562 l 1
 375.982421875 181.000976562 l 2
 367.36328125 143.66796875 351.744140625 110.66796875 329.125976562 82.0009765625 c 0
 306.5078125 53.333984375 279.057617188 31.1669921875 246.7734375 15.5 c 0
 214.489257812 -0.1669921875 180.34765625 -8 144.34765625 -8 c 0
 108.34765625 -8 77.9892578125 -0.1669921875 53.2734375 15.5 c 0
EndSplineSet
EndChar

StartChar: V
Encoding: 86 86 56
Width: 449
GlyphClass: 2
Flags: MW
HStem: 0 21G<77.1953 204.195 77.1953 77.1953> 670 20G<81.4941 216.494 216.494 216.494 383.494 518.494 518.494 518.494>
VStem: 81.4941 135<690 690>
LayerCount: 2
Fore
SplineSet
81.494140625 690 m 1
 216.494140625 690 l 1
 180.366210938 174 l 1
 383.494140625 690 l 1
 518.494140625 690 l 1
 204.1953125 0 l 1
 77.1953125 0 l 1
 81.494140625 690 l 1
EndSplineSet
EndChar

StartChar: W
Encoding: 87 87 57
Width: 674
GlyphClass: 2
Flags: MW
HStem: 0 21G<45.1953 177.195 45.1953 45.1953 328.195 461.195 328.195 328.195> 670 20G<81.4941 206.494 206.494 206.494 338.494 488.494 488.494 488.494 620.494 743.494 743.494 743.494>
VStem: 81.4941 125<690 690>
LayerCount: 2
Fore
SplineSet
743.494140625 690 m 1
 461.1953125 0 l 1
 328.1953125 0 l 1
 351.083007812 424 l 1
 177.1953125 0 l 1
 45.1953125 0 l 1
 81.494140625 690 l 1
 206.494140625 690 l 1
 154.366210938 174 l 1
 338.494140625 690 l 1
 488.494140625 690 l 1
 434.366210938 174 l 1
 620.494140625 690 l 1
 743.494140625 690 l 1
EndSplineSet
EndChar

StartChar: X
Encoding: 88 88 58
Width: 415
GlyphClass: 2
Flags: MW
HStem: 0 21G<-77.8047 43.1953 -77.8047 -77.8047 204.195 325.195 204.195 204.195> 670 20G<91.4941 212.494 212.494 212.494 353.494 474.494 474.494 474.494>
LayerCount: 2
Fore
SplineSet
145.845703125 358 m 1
 91.494140625 690 l 1
 212.494140625 690 l 1
 233.625976562 474 l 1
 353.494140625 690 l 1
 474.494140625 690 l 1
 266.845703125 358 l 1
 325.1953125 0 l 1
 204.1953125 0 l 1
 179.833984375 241 l 1
 43.1953125 0 l 1
 -77.8046875 0 l 1
 145.845703125 358 l 1
EndSplineSet
EndChar

StartChar: Y
Encoding: 89 89 59
Width: 415
GlyphClass: 2
Flags: MW
HStem: 0 21G<62.1953 185.195 62.1953 62.1953> 670 20G<81.4941 216.494 216.494 216.494 348.494 484.494 484.494 484.494>
VStem: 81.4941 135<690 690>
LayerCount: 2
Fore
SplineSet
247.298828125 269 m 1
 185.1953125 0 l 1
 62.1953125 0 l 1
 124.759765625 271 l 1
 81.494140625 690 l 1
 216.494140625 690 l 1
 221.544921875 426 l 1
 348.494140625 690 l 1
 484.494140625 690 l 1
 247.298828125 269 l 1
EndSplineSet
EndChar

StartChar: Z
Encoding: 90 90 60
Width: 359
GlyphClass: 2
Flags: MW
HStem: 0 111<-37.1787 -37.1787 84.8213 256.195 -62.8047 -37.1787> 579 111<106.494 264.867 80.8672 411.494 385.867 385.867>
LayerCount: 2
Fore
SplineSet
281.821289062 111 m 1
 256.1953125 0 l 1
 -62.8046875 0 l 1
 -37.1787109375 111 l 1
 264.8671875 579 l 1
 80.8671875 579 l 1
 106.494140625 690 l 1
 411.494140625 690 l 1
 385.8671875 579 l 1
 84.8212890625 111 l 1
 281.821289062 111 l 1
EndSplineSet
EndChar

StartChar: bracketleft
Encoding: 91 91 61
Width: 283
GlyphClass: 2
Flags: MW
HStem: -84 111<78.4287 141.802> 629 111<217.411 306.411 217.411 217.411>
LayerCount: 2
Fore
SplineSet
129.037109375 740 m 1
 332.037109375 740 l 1
 306.411132812 629 l 1
 217.411132812 629 l 1
 78.4287109375 27 l 1
 167.428710938 27 l 1
 141.801757812 -84 l 1
 -61.1982421875 -84 l 1
 129.037109375 740 l 1
EndSplineSet
Substitution2: "'rtla' Right to Left Alternates lookup 0 subtable" bracketright
EndChar

StartChar: backslash
Encoding: 92 92 62
Width: 298
GlyphClass: 2
Flags: MW
HStem: 678 20G<115.341 206.341 206.341 206.341>
VStem: 81.8857 92<-10 -10> 115.341 91<698 698>
LayerCount: 2
Fore
SplineSet
115.340820312 698 m 1xa0
 206.340820312 698 l 1xa0
 173.885742188 -10 l 1
 81.8857421875 -10 l 1xc0
 115.340820312 698 l 1xa0
EndSplineSet
EndChar

StartChar: bracketright
Encoding: 93 93 63
Width: 283
GlyphClass: 2
Flags: MW
HStem: -84 111<-39.5713 48.4287 -39.5713 137.802 -65.1982 48.4287> 629 111<125.037 187.411 99.4111 328.037>
LayerCount: 2
Fore
SplineSet
-39.5712890625 27 m 1
 48.4287109375 27 l 1
 187.411132812 629 l 1
 99.4111328125 629 l 1
 125.037109375 740 l 1
 328.037109375 740 l 1
 137.801757812 -84 l 1
 -65.1982421875 -84 l 1
 -39.5712890625 27 l 1
EndSplineSet
Substitution2: "'rtla' Right to Left Alternates lookup 0 subtable" bracketleft
EndChar

StartChar: asciicircum
Encoding: 94 94 64
Width: 419
GlyphClass: 2
Flags: MW
HStem: 678 20G<236.341 328.341 328.341 328.341>
LayerCount: 2
Fore
SplineSet
236.340820312 698 m 1
 328.340820312 698 l 1
 360.607421875 279 l 1
 269.607421875 279 l 1
 250.481445312 560 l 1
 101.607421875 279 l 1
 10.607421875 279 l 1
 236.340820312 698 l 1
EndSplineSet
EndChar

StartChar: underscore
Encoding: 95 95 65
Width: 425
GlyphClass: 2
Flags: MW
HStem: -117 69<-94.8867 314.184 -110.816 330.113>
LayerCount: 2
Fore
SplineSet
-94.88671875 -48 m 1
 330.11328125 -48 l 1
 314.18359375 -117 l 1
 -110.81640625 -117 l 1
 -94.88671875 -48 l 1
EndSplineSet
EndChar

StartChar: grave
Encoding: 96 96 66
Width: 500
GlyphClass: 2
Flags: MW
HStem: 590 136<314.407 345.805 222.805 413.407 314.407 314.407>
VStem: 222.805 190.603<590 726>
LayerCount: 2
Fore
SplineSet
222.8046875 726 m 1
 345.8046875 726 l 1
 413.407226562 590 l 1
 314.407226562 590 l 1
 222.8046875 726 l 1
EndSplineSet
EndChar

StartChar: a
Encoding: 97 97 67
Width: 405
GlyphClass: 2
Flags: MW
HStem: -8.00098 100.999<55.3496 142> -0.000976562 21G<172.196 280.196 172.196 172.196> 228.999 81<175.398 235.766 191.766 217.065> 434 102<218.608 223.394>
LayerCount: 2
Fore
SplineSet
350.935546875 490.5 m 0xb0
 372.265625 460.166992188 377.006835938 419.33203125 365.15625 367.999023438 c 2
 280.196289062 -0.0009765625 l 1
 172.196289062 -0.0009765625 l 1x70
 182.354492188 43.9990234375 l 1
 164.19921875 25.9990234375 147.4921875 12.83203125 132.235351562 4.4990234375 c 0
 116.977539062 -3.833984375 98.6826171875 -8.0009765625 77.349609375 -8.0009765625 c 0
 33.349609375 -8.0009765625 3.4912109375 6.33203125 -12.22265625 34.9990234375 c 0
 -27.9375 63.666015625 -29.8701171875 103.666015625 -18.0185546875 154.999023438 c 0
 -6.6298828125 204.33203125 17.181640625 242.499023438 53.416015625 269.499023438 c 0
 89.6494140625 296.499023438 135.765625 309.999023438 191.765625 309.999023438 c 2
 235.765625 309.999023438 l 1
 251.233398438 376.999023438 l 2
 255.543945312 395.666015625 254.647460938 409.833007812 248.545898438 419.5 c 0
 242.444335938 429.166992188 231.393554688 434 215.393554688 434 c 0
 200.7265625 434 187.982421875 429.333007812 177.16015625 420 c 0
 166.338867188 410.666992188 159.081054688 398 155.387695312 382 c 2
 153.540039062 374 l 1
 46.5400390625 374 l 1
 47.4638671875 378 l 2
 59.46875 430 83.216796875 469.333007812 118.706054688 496 c 0
 154.196289062 522.666992188 195.274414062 536 241.94140625 536 c 0
 293.274414062 536 329.60546875 520.833007812 350.935546875 490.5 c 0xb0
175.20703125 110.498046875 m 0
 187.567382812 122.165039062 196.056640625 137.999023438 200.673828125 157.999023438 c 2
 217.065429688 228.999023438 l 1
 187.065429688 228.999023438 l 2
 163.731445312 228.999023438 144.666992188 223.666015625 129.87109375 212.999023438 c 0
 115.076171875 202.33203125 104.830078125 184.665039062 99.1357421875 159.998046875 c 0
 94.056640625 137.998046875 94.541015625 121.331054688 100.591796875 109.998046875 c 0
 106.642578125 98.6650390625 118.000976562 92.998046875 134.666992188 92.998046875 c 0xb0
 149.333984375 92.998046875 162.84765625 98.8310546875 175.20703125 110.498046875 c 0
EndSplineSet
EndChar

StartChar: b
Encoding: 98 98 68
Width: 410
GlyphClass: 2
Flags: MW
HStem: -8 103.999<149.014 152.69 127.356 177.348> -0.00195312 21G<-42.8066 69.1934 -42.8066 -42.8066> 431.999 103.999<213.595 305.272> 669.998 20G<116.492 232.492 232.492 232.492>
LayerCount: 2
Fore
SplineSet
111.387695312 3 m 0xb0
 98.7470703125 10.3330078125 87.5283203125 21.6650390625 77.7353515625 36.998046875 c 1
 69.193359375 -0.001953125 l 1
 -42.806640625 -0.001953125 l 1x70
 116.4921875 689.998046875 l 1
 232.4921875 689.998046875 l 1
 185.395507812 485.998046875 l 1
 198.422851562 502 213.436523438 514.333007812 230.4375 522.998046875 c 0
 247.438476562 531.665039062 265.938476562 535.998046875 285.938476562 535.998046875 c 0
 324.60546875 535.998046875 352.1171875 522.331054688 368.474609375 494.998046875 c 0
 384.831054688 467.665039062 386.159179688 424.33203125 372.461914062 364.999023438 c 2
 325.826171875 162.999023438 l 2
 312.127929688 103.666015625 290.291015625 60.3330078125 260.313476562 33 c 0
 230.3359375 5.6669921875 196.34765625 -8 158.34765625 -8 c 0
 139.680664062 -8 124.02734375 -4.3330078125 111.387695312 3 c 0xb0
186.473632812 115.999023438 m 0
 197.884765625 129.33203125 207.131835938 151.33203125 214.211914062 181.999023438 c 2
 252.07421875 345.999023438 l 2
 259 375.999023438 259.874023438 397.83203125 254.696289062 411.499023438 c 0
 249.518554688 425.166015625 238.595703125 431.999023438 221.928710938 431.999023438 c 0
 205.26171875 431.999023438 191.017578125 425.166015625 179.1953125 411.499023438 c 0
 167.373046875 397.83203125 157.999023438 375.999023438 151.073242188 345.999023438 c 2
 113.2109375 181.999023438 l 2
 99.974609375 124.666015625 110.356445312 95.9990234375 144.356445312 95.9990234375 c 0xb0
 161.0234375 95.9990234375 175.0625 102.666015625 186.473632812 115.999023438 c 0
EndSplineSet
EndChar

StartChar: c
Encoding: 99 99 69
Width: 407
GlyphClass: 2
Flags: MW
HStem: -8 104<135.026 146.682> 432 104<218.608 229.931>
LayerCount: 2
Fore
SplineSet
5.7373046875 37 m 0
 -16.00390625 67 -19.1015625 115.666992188 -3.556640625 183 c 2
 33.8447265625 345 l 2
 49.3896484375 412.333007812 74.9580078125 461 110.55078125 491 c 0
 146.14453125 521 191.274414062 536 245.94140625 536 c 0
 298.608398438 536 335.631835938 521.666992188 357.013671875 493 c 0
 378.395507812 464.333007812 382.467773438 421.333007812 369.231445312 364 c 2
 364.614257812 344 l 1
 252.614257812 344 l 1
 256.770507812 362 l 2
 262.157226562 385.333007812 261.697265625 402.833007812 255.390625 414.5 c 0
 249.083984375 426.166992188 237.930664062 432 221.930664062 432 c 0
 204.59765625 432 190.020507812 425.166992188 178.198242188 411.5 c 0
 166.375976562 397.833007812 157.001953125 376 150.076171875 346 c 2
 112.213867188 182 l 2
 105.288085938 152 104.580078125 130.166992188 110.091796875 116.5 c 0
 115.603515625 102.833007812 126.693359375 96 143.359375 96 c 0
 160.026367188 96 174.206054688 101.833007812 185.899414062 113.5 c 0
 197.592773438 125.166992188 206.209960938 143 211.750976562 167 c 2
 215.67578125 184 l 1
 327.67578125 184 l 1
 323.750976562 167 l 2
 310.206054688 108.333007812 286.086914062 64.5 251.391601562 35.5 c 0
 216.696289062 6.5 173.015625 -8 120.348632812 -8 c 0
 65.681640625 -8 27.4775390625 7 5.7373046875 37 c 0
EndSplineSet
EndChar

StartChar: d
Encoding: 100 100 70
Width: 410
GlyphClass: 2
Flags: MW
HStem: -8 104.002<62.0151 160.36> 0 21G<174.195 285.195 174.195 174.195> 432.002 103.998<211.6 214.609 185.609 228.6> 670 20G<329.494 444.494 444.494 444.494>
LayerCount: 2
Fore
SplineSet
-2.6865234375 33 m 0xb0
 -20.04296875 60.3330078125 -21.869140625 103.66796875 -8.171875 163.000976562 c 2
 38.4638671875 365.000976562 l 2
 52.162109375 424.333984375 73.666015625 467.666992188 102.9765625 495 c 0
 132.287109375 522.333007812 166.275390625 536 204.942382812 536 c 0
 224.275390625 536 240.607421875 531.666992188 253.939453125 523 c 0
 267.271484375 514.333007812 276.7578125 502 282.396484375 486 c 1
 329.494140625 690 l 1
 444.494140625 690 l 1
 285.1953125 0 l 1
 174.1953125 0 l 1x70
 182.737304688 37 l 1
 150.477539062 7 116.681640625 -8 81.3486328125 -8 c 0
 42.681640625 -8 14.669921875 5.6669921875 -2.6865234375 33 c 0xb0
214.21484375 182.001953125 m 2
 252.079101562 346.001953125 l 2
 259.004882812 376.001953125 259.711914062 397.834960938 254.200195312 411.501953125 c 0
 248.688476562 425.168945312 237.266601562 432.001953125 219.93359375 432.001953125 c 0
 203.266601562 432.001953125 189.188476562 425.168945312 177.700195312 411.501953125 c 0
 166.211914062 397.834960938 157.004882812 376.001953125 150.079101562 346.001953125 c 2
 112.215820312 182.001953125 l 2
 105.135742188 151.334960938 104.223632812 129.334960938 109.478515625 116.001953125 c 0
 114.733398438 102.668945312 126.02734375 96.001953125 143.360351562 96.001953125 c 0xb0
 177.360351562 96.001953125 200.978515625 124.668945312 214.21484375 182.001953125 c 2
EndSplineSet
EndChar

StartChar: e
Encoding: 101 101 71
Width: 411
GlyphClass: 2
Flags: MW
HStem: -8 101.999<126.561 146.679> 223 83.999<121.679 244.07 141.07 244.07 141.07 340.679> 431.999 104.001<215.607 229.595>
LayerCount: 2
Fore
SplineSet
121.678710938 223 m 1
 110.594726562 174.999023438 l 2
 98.1279296875 120.999023438 109.227539062 93.9990234375 143.89453125 93.9990234375 c 0
 177.89453125 93.9990234375 200.049804688 116.33203125 210.362304688 160.999023438 c 2
 211.516601562 165.999023438 l 1
 323.516601562 165.999023438 l 1
 322.131835938 159.999023438 l 2
 309.357421875 104.666015625 285.69921875 62.8330078125 251.158203125 34.5 c 0
 216.616210938 6.1669921875 173.012695312 -8 120.345703125 -8 c 0
 67.0126953125 -8 29.3740234375 8 7.4287109375 40 c 0
 -14.5166015625 72 -16.947265625 125 0.13671875 199 c 2
 29.9189453125 328 l 2
 46.541015625 400 72.533203125 452.666992188 107.895507812 486 c 0
 143.258789062 519.333007812 188.2734375 536 242.940429688 536 c 0
 296.940429688 536 334.848632812 519 356.666015625 485 c 0
 378.483398438 451 381.234375 398.666992188 364.919921875 328 c 2
 340.678710938 223 l 1
 121.678710938 223 l 1
178.1953125 411.499023438 m 0
 166.373046875 397.83203125 157 375.999023438 150.07421875 345.999023438 c 2
 141.0703125 306.999023438 l 1
 244.0703125 306.999023438 l 1
 253.07421875 345.999023438 l 2
 260 375.999023438 260.708007812 397.83203125 255.196289062 411.499023438 c 0
 249.684570312 425.166015625 238.26171875 431.999023438 220.928710938 431.999023438 c 0
 204.26171875 431.999023438 190.017578125 425.166015625 178.1953125 411.499023438 c 0
EndSplineSet
EndChar

StartChar: f
Encoding: 102 102 72
Width: 287
GlyphClass: 2
Flags: MW
HStem: 0 21G<-3.80469 111.195 -3.80469 -3.80469> 447 81<65.0928 99.3926 46.3926 118.093 233.093 285.393> 608 82<297.229 307.562 307.562 322.562>
LayerCount: 2
Fore
SplineSet
261.061523438 595 m 0
 250.727539062 586.333007812 243.09765625 571.333007812 238.171875 550 c 2
 233.092773438 528 l 1
 304.092773438 528 l 1
 285.392578125 447 l 1
 214.392578125 447 l 1
 111.1953125 0 l 1
 -3.8046875 0 l 1
 99.392578125 447 l 1
 46.392578125 447 l 1
 65.0927734375 528 l 1
 118.092773438 528 l 1
 125.01953125 558 l 2
 145.3359375 646 200.827148438 690 291.494140625 690 c 2
 341.494140625 690 l 1
 322.5625 608 l 1
 307.5625 608 l 2
 286.895507812 608 271.395507812 603.666992188 261.061523438 595 c 0
EndSplineSet
EndChar

StartChar: g
Encoding: 103 103 73
Width: 410
GlyphClass: 2
Flags: MW
HStem: -168 100<98.166 108.077> 41.001 104<73.3315 171.674> 432.001 103.998<211.6 214.61 185.61 228.6> 507.999 20G<292.094 407.094 407.094 407.094>
LayerCount: 2
Fore
SplineSet
-23.318359375 -130 m 0xd0
 -45.13671875 -104.666992188 -51.0146484375 -67.3330078125 -40.9580078125 -18 c 1
 67.0419921875 -18 l 1
 63.3486328125 -34 64.833984375 -46.3330078125 71.5 -55 c 0
 78.166015625 -63.6669921875 89.8330078125 -68 106.499023438 -68 c 0
 123.166015625 -68 137.229492188 -62.6669921875 148.692382812 -52 c 0
 160.155273438 -41.3330078125 168.272460938 -25.666015625 173.043945312 -4.9990234375 c 2
 194.052734375 86.0009765625 l 1
 161.793945312 56.0009765625 127.998046875 41.0009765625 92.6650390625 41.0009765625 c 0
 53.998046875 41.0009765625 25.986328125 54.66796875 8.62890625 82.0009765625 c 0
 -8.7275390625 109.333984375 -10.556640625 152.666992188 3.1416015625 212 c 2
 38.46484375 365 l 2
 52.1630859375 424.333007812 73.6669921875 467.666015625 102.977539062 494.999023438 c 0
 132.288085938 522.33203125 166.276367188 535.999023438 204.943359375 535.999023438 c 0xe0
 224.276367188 535.999023438 240.608398438 531.666015625 253.940429688 522.999023438 c 0
 267.272460938 514.33203125 276.758789062 501.999023438 282.397460938 485.999023438 c 1
 292.09375 527.999023438 l 1
 407.09375 527.999023438 l 1
 286.581054688 5.9990234375 l 2
 274.267578125 -47.333984375 249.994140625 -89.6669921875 213.760742188 -121 c 0
 177.52734375 -152.333007812 133.743164062 -168 82.41015625 -168 c 0
 33.7431640625 -168 -1.5 -155.333007812 -23.318359375 -130 c 0xd0
225.528320312 231.000976562 m 2
 252.079101562 346.000976562 l 2
 259.005859375 376.000976562 259.712890625 397.833984375 254.201171875 411.500976562 c 0
 248.689453125 425.16796875 237.266601562 432.000976562 219.93359375 432.000976562 c 0
 203.266601562 432.000976562 189.189453125 425.16796875 177.701171875 411.500976562 c 0
 166.212890625 397.833984375 157.005859375 376.000976562 150.079101562 346.000976562 c 2
 123.529296875 231.000976562 l 2
 116.44921875 200.333984375 115.537109375 178.333984375 120.791992188 165.000976562 c 0
 126.046875 151.66796875 137.340820312 145.000976562 154.673828125 145.000976562 c 0
 188.673828125 145.000976562 212.291992188 173.66796875 225.528320312 231.000976562 c 2
EndSplineSet
EndChar

StartChar: h
Encoding: 104 104 74
Width: 410
GlyphClass: 2
Flags: MW
HStem: 0 21G<-42.8047 73.1953 -42.8047 -42.8047 169.196 285.196 169.196 169.196> 432 103.999<213.597 302.274> 670 20G<116.494 116.494>
LayerCount: 2
Fore
SplineSet
116.494140625 690 m 1
 232.493164062 689.999023438 l 1
 187.2421875 493.999023438 l 1
 218.374023438 521.999023438 249.2734375 535.999023438 279.940429688 535.999023438 c 0
 324.607421875 535.999023438 354.119140625 522.33203125 368.475585938 494.999023438 c 0
 382.83203125 467.666015625 384.083984375 428.333007812 372.233398438 377 c 2
 285.196289062 0 l 1
 169.196289062 0 l 1
 256.001953125 376 l 2
 260.158203125 394 258.8515625 407.833007812 252.083007812 417.5 c 0
 245.315429688 427.166992188 234.930664062 432 220.930664062 432 c 0
 206.263671875 432 193.481445312 427.166992188 182.58203125 417.5 c 0
 171.68359375 407.833007812 164.157226562 394 160.000976562 376 c 2
 73.1953125 0 l 1
 -42.8046875 0 l 1
 116.494140625 690 l 1
EndSplineSet
EndChar

StartChar: i
Encoding: 105 105 75
Width: 206
GlyphClass: 2
Flags: MW
HStem: 0 21G<-38.8047 77.1953 -38.8047 -38.8047> 508 20G<83.0928 199.093 199.093 199.093> 593 97<120.494 214.1 98.0996 236.494>
VStem: -38.8047 275.299
LayerCount: 2
Fore
SplineSet
83.0927734375 528 m 1
 199.092773438 528 l 1
 77.1953125 0 l 1
 -38.8046875 0 l 1
 83.0927734375 528 l 1
120.494140625 690 m 1
 236.494140625 690 l 1
 214.099609375 593 l 1
 98.099609375 593 l 1
 120.494140625 690 l 1
EndSplineSet
EndChar

StartChar: j
Encoding: 106 106 76
Width: 206
GlyphClass: 2
Flags: MW
HStem: -158 104<-144.282 -115.272 -144.282 -115.272> 508 20G<83.0928 199.093 199.093 199.093> 593 97<120.494 214.1 98.0996 236.494>
LayerCount: 2
Fore
SplineSet
120.494140625 690 m 1
 236.494140625 690 l 1
 214.099609375 593 l 1
 98.099609375 593 l 1
 120.494140625 690 l 1
-120.272460938 -54 m 1
 -115.272460938 -54 l 2
 -72.60546875 -54 -46.1162109375 -31.6669921875 -35.8037109375 13 c 2
 83.0927734375 528 l 1
 199.092773438 528 l 1
 78.580078125 6 l 2
 53.3388671875 -103.333007812 -18.94921875 -158 -138.282226562 -158 c 2
 -144.282226562 -158 l 1
 -120.272460938 -54 l 1
EndSplineSet
EndChar

StartChar: k
Encoding: 107 107 77
Width: 419
GlyphClass: 2
Flags: MW
HStem: 0 21G<-42.8047 73.1953 -42.8047 -42.8047 197.195 197.195 197.195 325.195> 508 20G<321.093 442.093 442.093 442.093> 670 20G<116.494 232.494 232.494 232.494>
LayerCount: 2
Fore
SplineSet
161.676757812 210 m 1
 107.59375 149 l 1
 73.1953125 0 l 1
 -42.8046875 0 l 1
 116.494140625 690 l 1
 232.494140625 690 l 1
 145.45703125 313 l 1
 321.092773438 528 l 1
 442.092773438 528 l 1
 259.303710938 321 l 1
 325.1953125 0 l 1
 197.1953125 0 l 1
 161.676757812 210 l 1
EndSplineSet
EndChar

StartChar: l
Encoding: 108 108 78
Width: 240
GlyphClass: 2
Flags: MW
HStem: 0 21G<76.5288 136.195 136.195 142.195> 670 20G<116.494 232.494 232.494 232.494>
LayerCount: 2
Fore
SplineSet
-4.9423828125 164 m 2
 116.494140625 690 l 1
 232.494140625 690 l 1
 112.672851562 171 l 2
 102.361328125 126.333007812 118.538085938 104 161.205078125 104 c 2
 166.205078125 104 l 1
 142.1953125 0 l 1
 136.1953125 0 l 2
 16.8623046875 0 -30.1845703125 54.6669921875 -4.9423828125 164 c 2
EndSplineSet
EndChar

StartChar: m
Encoding: 109 109 79
Width: 622
GlyphClass: 2
Flags: MW
HStem: 0 21G<-42.8047 73.1953 -42.8047 -42.8047 169.196 285.196 169.196 169.196 381.196 497.196 381.196 381.196> 432 104.001<213.597 291.608> 508.001 20G<190.095 190.095>
LayerCount: 2
Fore
SplineSet
79.0927734375 528 m 1xc0
 190.094726562 528.000976562 l 1xa0
 181.090820312 489.000976562 l 1
 212.32421875 520.333984375 245.608398438 536.000976562 280.94140625 536.000976562 c 0
 302.274414062 536.000976562 320.825195312 531.16796875 336.59375 521.500976562 c 0
 352.362304688 511.833984375 363.912109375 498.333984375 371.243164062 481.000976562 c 1
 388.271484375 497.000976562 407.14453125 510.16796875 427.86328125 520.500976562 c 0
 448.58203125 530.833984375 468.608398438 536.000976562 487.94140625 536.000976562 c 0
 535.94140625 536.000976562 567.030273438 522.66796875 581.20703125 496.000976562 c 0
 595.3828125 469.333984375 596.392578125 429.666992188 584.233398438 377 c 2
 497.196289062 0 l 1
 381.196289062 0 l 1
 468.001953125 376 l 2
 472.158203125 394 470.8515625 407.833007812 464.083007812 417.5 c 0
 457.315429688 427.166992188 446.930664062 432 432.930664062 432 c 0
 418.930664062 432 406.315429688 427.166992188 395.083007812 417.5 c 0
 383.8515625 407.833007812 376.158203125 394 372.001953125 376 c 2
 285.196289062 0 l 1
 169.196289062 0 l 1
 256.001953125 376 l 2
 260.158203125 394 258.8515625 407.833007812 252.083007812 417.5 c 0
 245.315429688 427.166992188 234.930664062 432 220.930664062 432 c 0
 206.263671875 432 193.481445312 427.166992188 182.58203125 417.5 c 0
 171.68359375 407.833007812 164.157226562 394 160.000976562 376 c 2
 73.1953125 0 l 1
 -42.8046875 0 l 1
 79.0927734375 528 l 1xc0
EndSplineSet
EndChar

StartChar: n
Encoding: 110 110 80
Width: 410
GlyphClass: 2
Flags: MW
HStem: 0 21G<-42.8047 73.1953 -42.8047 -42.8047 169.196 285.196 169.196 169.196> 432 104<213.597 322.941> 508 20G<79.0928 190.094 190.094 190.094>
LayerCount: 2
Fore
SplineSet
79.0927734375 528 m 1xa0
 190.09375 528 l 1xa0
 181.090820312 489 l 1
 212.991210938 520.333007812 245.94140625 536 279.94140625 536 c 0
 365.94140625 536 396.705078125 483 372.233398438 377 c 2
 285.196289062 0 l 1
 169.196289062 0 l 1
 256.001953125 376 l 2
 260.158203125 394 258.8515625 407.833007812 252.083007812 417.5 c 0
 245.315429688 427.166992188 234.930664062 432 220.930664062 432 c 0xc0
 206.263671875 432 193.481445312 427.166992188 182.58203125 417.5 c 0
 171.68359375 407.833007812 164.157226562 394 160.000976562 376 c 2
 73.1953125 0 l 1
 -42.8046875 0 l 1
 79.0927734375 528 l 1xa0
EndSplineSet
EndChar

StartChar: o
Encoding: 111 111 81
Width: 411
GlyphClass: 2
Flags: MW
HStem: -8 104<135.025 147.682> 432 104<218.608 229.597>
LayerCount: 2
Fore
SplineSet
5.7373046875 37 m 0
 -16.00390625 67 -19.1015625 115.666992188 -3.556640625 183 c 2
 33.8447265625 345 l 2
 49.3896484375 412.333007812 74.9580078125 461 110.55078125 491 c 0
 146.14453125 521 191.274414062 536 245.94140625 536 c 0
 300.608398438 536 338.645507812 521 360.051757812 491 c 0
 381.458984375 461 384.390625 412.333007812 368.845703125 345 c 2
 331.444335938 183 l 2
 315.899414062 115.666992188 290.497070312 67 255.23828125 37 c 0
 219.978515625 7 175.015625 -8 120.348632812 -8 c 0
 65.681640625 -8 27.4775390625 7 5.7373046875 37 c 0
187.090820312 116.5 m 0
 198.913085938 130.166992188 208.288085938 152 215.213867188 182 c 2
 253.076171875 346 l 2
 260.001953125 376 260.709960938 397.833007812 255.198242188 411.5 c 0
 249.686523438 425.166992188 238.263671875 432 220.930664062 432 c 0
 204.263671875 432 190.01953125 425.166992188 178.197265625 411.5 c 0
 166.375 397.833007812 157.000976562 376 150.075195312 346 c 2
 112.212890625 182 l 2
 105.287109375 152 104.579101562 130.166992188 110.090820312 116.5 c 0
 115.602539062 102.833007812 126.692382812 96 143.358398438 96 c 0
 160.69140625 96 175.268554688 102.833007812 187.090820312 116.5 c 0
EndSplineSet
EndChar

StartChar: p
Encoding: 112 112 82
Width: 410
GlyphClass: 2
Flags: MW
HStem: -158 21G<-79.2822 36.7178 -79.2822 -79.2822> -8 103.998<140.681 152.69 127.356 177.348> 431.998 104<213.596 305.272> 508 20G<79.0928 79.0928>
LayerCount: 2
Fore
SplineSet
79.0927734375 528 m 1xd0
 191.091796875 527.998046875 l 1
 181.395507812 485.998046875 l 1
 211.7578125 519.331054688 246.60546875 535.998046875 285.938476562 535.998046875 c 0xe0
 324.60546875 535.998046875 352.1171875 522.331054688 368.474609375 494.998046875 c 0
 384.831054688 467.665039062 386.159179688 424.33203125 372.461914062 364.999023438 c 2
 325.826171875 162.999023438 l 2
 312.127929688 103.666015625 290.291015625 60.3330078125 260.313476562 33 c 0
 230.3359375 5.6669921875 196.34765625 -8 158.34765625 -8 c 0
 123.014648438 -8 97.0927734375 5.3330078125 80.5830078125 32 c 1
 36.7177734375 -158 l 1
 -79.2822265625 -158 l 1
 79.0927734375 528 l 1xd0
186.474609375 115.998046875 m 0
 197.885742188 129.331054688 207.1328125 151.331054688 214.212890625 181.998046875 c 2
 252.075195312 345.998046875 l 2
 259.000976562 375.998046875 259.874023438 397.831054688 254.696289062 411.498046875 c 0
 249.518554688 425.165039062 238.596679688 431.998046875 221.9296875 431.998046875 c 0
 205.262695312 431.998046875 191.017578125 425.165039062 179.1953125 411.498046875 c 0
 167.373046875 397.831054688 158 375.998046875 151.07421875 345.998046875 c 2
 113.211914062 181.998046875 l 2
 99.974609375 124.665039062 110.356445312 95.998046875 144.356445312 95.998046875 c 0
 161.0234375 95.998046875 175.0625 102.665039062 186.474609375 115.998046875 c 0
EndSplineSet
EndChar

StartChar: q
Encoding: 113 113 83
Width: 410
GlyphClass: 2
Flags: MW
HStem: -158 21G<133.718 248.718 133.718 133.718> -7.99805 104<62.0161 160.359> 432.002 103.998<211.599 223.94 185.607 228.599> 508 20G<296.093 407.093 407.093 407.093>
LayerCount: 2
Fore
SplineSet
177.583007812 32 m 1xd0
 148.758789062 5.3330078125 116.682617188 -7.998046875 81.349609375 -7.998046875 c 0
 42.6826171875 -7.998046875 14.6708984375 5.6689453125 -2.6865234375 33.001953125 c 0
 -20.04296875 60.3349609375 -21.87109375 103.66796875 -8.173828125 163.000976562 c 2
 38.4619140625 365.000976562 l 2
 52.16015625 424.333984375 73.6640625 467.666992188 102.974609375 495 c 0
 132.28515625 522.333007812 166.2734375 536 204.940429688 536 c 0xe0
 242.940429688 536 270.092773438 519.333007812 286.396484375 486 c 1
 296.092773438 528 l 1
 407.092773438 528 l 1
 248.717773438 -158 l 1
 133.717773438 -158 l 1
 177.583007812 32 l 1xd0
214.213867188 182.001953125 m 2
 252.078125 346.001953125 l 2
 259.00390625 376.001953125 259.7109375 397.834960938 254.19921875 411.501953125 c 0
 248.6875 425.168945312 237.265625 432.001953125 219.932617188 432.001953125 c 0
 203.265625 432.001953125 189.1875 425.168945312 177.69921875 411.501953125 c 0
 166.2109375 397.834960938 157.00390625 376.001953125 150.078125 346.001953125 c 2
 112.21484375 182.001953125 l 2
 105.134765625 151.334960938 104.22265625 129.334960938 109.477539062 116.001953125 c 0
 114.732421875 102.668945312 126.026367188 96.001953125 143.359375 96.001953125 c 0
 177.359375 96.001953125 200.977539062 124.668945312 214.213867188 182.001953125 c 2
EndSplineSet
EndChar

StartChar: r
Encoding: 114 114 84
Width: 306
GlyphClass: 2
Flags: MW
HStem: 0 21G<-42.8047 73.1953 -42.8047 -42.8047> 422 116<240.288 303.069> 508 20G<79.0928 190.093 190.093 190.093>
LayerCount: 2
Fore
SplineSet
79.0927734375 528 m 1xa0
 190.092773438 528 l 1xa0
 178.780273438 479 l 1
 197.0390625 500.333007812 215.70703125 515.5 234.78515625 524.5 c 0
 253.86328125 533.5 274.40234375 538 296.40234375 538 c 0
 309.735351562 538 321.426757812 536.666992188 331.478515625 534 c 1
 303.3125 412 l 1
 286.8515625 418.666992188 269.954101562 422 252.62109375 422 c 0xc0
 227.954101562 422 206.3125 414.166992188 187.696289062 398.5 c 0
 169.079101562 382.833007812 156.4609375 360.666015625 149.842773438 332 c 2
 73.1953125 0 l 1
 -42.8046875 0 l 1
 79.0927734375 528 l 1xa0
EndSplineSet
EndChar

StartChar: s
Encoding: 115 115 85
Width: 392
GlyphClass: 2
Flags: MW
HStem: -8 96.999<126.74 137.014> 440 95.999<211.605 220.774>
LayerCount: 2
Fore
SplineSet
-0.83984375 34.5 m 0
 -24.298828125 62.8330078125 -30.2587890625 101.999023438 -18.7158203125 151.999023438 c 2
 -17.330078125 157.999023438 l 1
 94.669921875 157.999023438 l 1
 93.2841796875 151.999023438 l 2
 88.6669921875 131.999023438 90.0888671875 116.499023438 97.548828125 105.499023438 c 0
 105.009765625 94.4990234375 117.740234375 88.9990234375 135.740234375 88.9990234375 c 0
 153.073242188 88.9990234375 167.35546875 93.83203125 178.587890625 103.499023438 c 0
 189.819335938 113.166015625 197.58984375 127.333007812 201.899414062 146 c 0
 205.131835938 160 203.7734375 172.166992188 197.826171875 182.5 c 0
 191.87890625 192.833007812 180.828125 202 164.674804688 210 c 2
 110.677734375 236 l 2
 74.0126953125 253.333007812 50.70703125 273.666015625 40.7607421875 296.999023438 c 0
 30.814453125 320.333007812 29.919921875 349.666015625 38.0771484375 384.999023438 c 0
 48.0810546875 428.33203125 71.392578125 464.33203125 108.010742188 492.999023438 c 0
 144.62890625 521.666015625 187.271484375 535.999023438 235.938476562 535.999023438 c 0
 284.60546875 535.999023438 320.62890625 521.666015625 344.010742188 492.999023438 c 0
 367.392578125 464.33203125 373.7734375 426.999023438 363.153320312 380.999023438 c 2
 360.844726562 370.999023438 l 1
 248.844726562 370.999023438 l 1
 250.229492188 376.999023438 l 2
 255.000976562 397.666015625 253.951171875 413.333007812 247.081054688 424 c 0
 240.2109375 434.666992188 228.774414062 440 212.774414062 440 c 0
 197.44140625 440 184.274414062 435.666992188 173.2734375 427 c 0
 162.272460938 418.333007812 154.92578125 406 151.231445312 390 c 0
 147.999023438 376 148.638671875 364.333007812 153.151367188 355 c 0
 157.663085938 345.666992188 168.329101562 337 185.149414062 329 c 2
 243.685546875 301 l 2
 277.836914062 284.333007812 300.514648438 264.166015625 311.717773438 240.5 c 0
 322.920898438 216.833007812 324.135742188 186 315.362304688 148 c 0
 304.7421875 102 280.91796875 64.5 243.889648438 35.5 c 0
 206.861328125 6.5 162.680664062 -8 111.34765625 -8 c 0
 60.0146484375 -8 22.6181640625 6.1669921875 -0.83984375 34.5 c 0
EndSplineSet
EndChar

StartChar: t
Encoding: 116 116 86
Width: 302
GlyphClass: 2
Flags: MW
HStem: 0 21G<147.195 177.195 177.195 181.195> 447 81<57.0928 97.3926 38.3926 116.093 232.093 297.393>
LayerCount: 2
Fore
SplineSet
213.392578125 447 m 1
 149.672851562 171 l 2
 139.361328125 126.333007812 156.538085938 104 201.205078125 104 c 2
 205.205078125 104 l 1
 181.1953125 0 l 1
 177.1953125 0 l 2
 117.1953125 0 74.734375 13.1669921875 49.814453125 39.5 c 0
 24.8935546875 65.8330078125 18.974609375 107.333007812 32.0576171875 164 c 2
 97.392578125 447 l 1
 38.392578125 447 l 1
 57.0927734375 528 l 1
 116.092773438 528 l 1
 137.564453125 621 l 1
 264.415039062 668 l 1
 232.092773438 528 l 1
 316.092773438 528 l 1
 297.392578125 447 l 1
 213.392578125 447 l 1
EndSplineSet
EndChar

StartChar: u
Encoding: 117 117 87
Width: 410
GlyphClass: 2
Flags: MW
HStem: -8 104<135.691 141.014> 508 20G<79.0918 195.092 195.092 195.092>
LayerCount: 2
Fore
SplineSet
0.5830078125 38.5 m 0
 -15.259765625 69.5 -16.1025390625 115.666992188 -1.9423828125 177 c 2
 79.091796875 528 l 1
 195.091796875 528 l 1
 119.598632812 201 l 2
 113.288085938 173.666015625 109.426757812 153.333007812 108.015625 140 c 0
 106.604492188 126.666992188 108.30859375 116 113.127929688 108 c 0
 117.947265625 100 128.024414062 96 143.357421875 96 c 0
 158.690429688 96 170.498046875 99.5 178.78125 106.5 c 0
 187.065429688 113.5 193.580078125 123.666992188 198.32421875 137 c 0
 203.069335938 150.333007812 208.827148438 171.666015625 215.599609375 200.999023438 c 2
 291.092773438 527.999023438 l 1
 407.092773438 527.999023438 l 1
 326.05859375 176.999023438 l 2
 316.362304688 134.999023438 303.806640625 100.83203125 288.39453125 74.4990234375 c 0
 272.981445312 48.166015625 251.787109375 27.8330078125 224.811523438 13.5 c 0
 197.8359375 -0.8330078125 162.680664062 -8 119.34765625 -8 c 0
 56.0146484375 -8 16.4267578125 7.5 0.5830078125 38.5 c 0
EndSplineSet
EndChar

StartChar: v
Encoding: 118 118 88
Width: 409
GlyphClass: 2
Flags: MW
HStem: 0 21G<59.1953 182.195 59.1953 59.1953> 508 20G<49.0928 177.093 177.093 177.093 308.093 436.093 436.093 436.093>
VStem: 49.0928 128<528 528> 59.1953 104.71
LayerCount: 2
Fore
SplineSet
49.0927734375 528 m 1xe0
 177.092773438 528 l 1xe0
 163.905273438 185 l 1
 308.092773438 528 l 1
 436.092773438 528 l 1
 182.1953125 0 l 1
 59.1953125 0 l 1xd0
 49.0927734375 528 l 1xe0
EndSplineSet
EndChar

StartChar: w
Encoding: 119 119 89
Width: 609
GlyphClass: 2
Flags: MW
HStem: 0 21G<47.1953 159.195 47.1953 47.1953 280.195 393.195 280.195 280.195> 508 20G<49.0928 177.093 177.093 177.093 294.093 390.093 390.093 390.093 507.093 636.093 636.093 636.093>
VStem: 49.0928 128<528 528> 294.766 80.1396
LayerCount: 2
Fore
SplineSet
49.0927734375 528 m 1
 177.092773438 528 l 1
 150.905273438 185 l 1
 294.092773438 528 l 1
 390.092773438 528 l 1
 374.905273438 185 l 1
 507.092773438 528 l 1
 636.092773438 528 l 1
 393.1953125 0 l 1
 280.1953125 0 l 1
 294.765625 323 l 1
 159.1953125 0 l 1
 47.1953125 0 l 1
 49.0927734375 528 l 1
EndSplineSet
EndChar

StartChar: x
Encoding: 120 120 90
Width: 380
GlyphClass: 2
Flags: MW
HStem: 0 21G<-72.8047 46.1953 -72.8047 -72.8047 167.195 285.195 167.195 167.195> 508 20G<56.0928 174.093 174.093 174.093 282.093 401.093 401.093 401.093>
LayerCount: 2
Fore
SplineSet
167.1953125 0 m 1
 136.36328125 148 l 1
 46.1953125 0 l 1
 -72.8046875 0 l 1
 109.453125 274 l 1
 56.0927734375 528 l 1
 174.092773438 528 l 1
 202.387695312 395 l 1
 282.092773438 528 l 1
 401.092773438 528 l 1
 226.9140625 276 l 1
 285.1953125 0 l 1
 167.1953125 0 l 1
EndSplineSet
EndChar

StartChar: y
Encoding: 121 121 91
Width: 409
GlyphClass: 2
Flags: MW
HStem: -158 102<-71.2822 -5.7334 -71.2822 -5.7334> 508 20G<49.0928 177.093 177.093 177.093 314.093 436.093 436.093 436.093>
VStem: 49.0928 128<528 528>
LayerCount: 2
Fore
SplineSet
436.092773438 528 m 1
 162.421875 -38.0009765625 l 2
 146.879882812 -70.66796875 128.608398438 -95.66796875 107.606445312 -113.000976562 c 0
 86.6044921875 -130.333984375 62.373046875 -142.166992188 34.9111328125 -148.5 c 0
 7.44921875 -154.833007812 -26.615234375 -158 -67.2822265625 -158 c 2
 -71.2822265625 -158 l 1
 -47.7333984375 -56 l 1
 -5.7333984375 -56 l 2
 28.93359375 -56 53.34375 -47 67.5 -29 c 1
 49.0927734375 528 l 1
 177.092773438 528 l 1
 173.984375 207 l 1
 314.092773438 528 l 1
 436.092773438 528 l 1
EndSplineSet
EndChar

StartChar: z
Encoding: 122 122 92
Width: 384
GlyphClass: 2
Flags: MW
HStem: 0 98<-23.1797 -23.1797 95.8203 262.195 -45.8047 -23.1797> 430 98<76.0928 245.468 53.4678 384.093 361.468 361.468>
LayerCount: 2
Fore
SplineSet
361.467773438 430 m 1
 95.8203125 98 l 1
 284.8203125 98 l 1
 262.1953125 0 l 1
 -45.8046875 0 l 1
 -23.1796875 98 l 1
 245.467773438 430 l 1
 53.4677734375 430 l 1
 76.0927734375 528 l 1
 384.092773438 528 l 1
 361.467773438 430 l 1
EndSplineSet
EndChar

StartChar: braceleft
Encoding: 123 123 93
Width: 319
GlyphClass: 2
Flags: MW
HStem: 636.999 103<317.258 324.258 324.258 344.258>
LayerCount: 2
Fore
SplineSet
39.189453125 -52 m 0
 23.4482421875 -30.6669921875 20.1943359375 -0.0009765625 29.4296875 39.9990234375 c 2
 67.984375 206.999023438 l 2
 73.9873046875 232.999023438 73.5908203125 251.499023438 66.7978515625 262.499023438 c 0
 60.00390625 273.499023438 43.9404296875 278.999023438 18.607421875 278.999023438 c 1
 42.3876953125 381.999023438 l 1
 67.720703125 381.999023438 86.3232421875 387.499023438 98.1953125 398.499023438 c 0
 110.068359375 409.499023438 119.083007812 428.33203125 125.239257812 454.999023438 c 2
 162.409179688 615.999023438 l 2
 171.64453125 655.999023438 189.057617188 686.666015625 214.649414062 707.999023438 c 0
 240.241210938 729.33203125 272.704101562 739.999023438 312.037109375 739.999023438 c 2
 368.037109375 739.999023438 l 1
 344.2578125 636.999023438 l 1
 324.2578125 636.999023438 l 2
 310.2578125 636.999023438 298.833984375 632.999023438 289.987304688 624.999023438 c 0
 281.140625 616.999023438 275.0234375 605.666015625 271.637695312 590.999023438 c 2
 242.317382812 463.999023438 l 2
 232.466796875 421.33203125 221.592773438 390.83203125 209.693359375 372.499023438 c 0
 197.793945312 354.166015625 178.099609375 340.333007812 150.612304688 331 c 1
 173.63671875 321 186.827148438 306.666992188 190.184570312 288 c 0
 193.541992188 269.333007812 190.372070312 239 180.67578125 197 c 2
 150.201171875 65 l 2
 146.815429688 50.3330078125 147.698242188 39 152.8515625 31 c 0
 158.004882812 23 167.581054688 19 181.581054688 19 c 2
 201.581054688 19 l 1
 177.801757812 -84 l 1
 121.801757812 -84 l 2
 82.46875 -84 54.931640625 -73.3330078125 39.189453125 -52 c 0
EndSplineSet
Substitution2: "'rtla' Right to Left Alternates lookup 0 subtable" braceright
EndChar

StartChar: bar
Encoding: 124 124 94
Width: 264
GlyphClass: 2
Flags: MW
VStem: -27.1982 302.235
LayerCount: 2
Fore
SplineSet
163.037109375 740 m 1
 275.037109375 740 l 1
 84.8017578125 -84 l 1
 -27.1982421875 -84 l 1
 163.037109375 740 l 1
EndSplineSet
EndChar

StartChar: braceright
Encoding: 125 125 95
Width: 319
GlyphClass: 2
Flags: MW
HStem: -84 103<-41.4189 -21.418 -21.418 -14.418 -41.4189 -8.19824 -65.1982 -21.418>
LayerCount: 2
Fore
SplineSet
-41.4189453125 19 m 1
 -21.41796875 19 l 2
 -7.41796875 19 4.005859375 23 12.8525390625 31 c 0
 21.69921875 39 27.81640625 50.3330078125 31.2021484375 65 c 2
 61.6767578125 197 l 2
 71.373046875 239 82.3759765625 269.333007812 94.685546875 288 c 0
 106.995117188 306.666992188 126.637695312 321 153.61328125 331 c 1
 130.435546875 340.334960938 117.12890625 354.16796875 113.694335938 372.5 c 0
 110.259765625 390.833007812 113.467773438 421.333007812 123.318359375 464 c 2
 152.638671875 591 l 2
 156.025390625 605.666992188 155.141601562 617 149.98828125 625 c 0
 144.834960938 633 135.258789062 637 121.258789062 637 c 2
 101.258789062 637 l 1
 125.038085938 740 l 1
 182.038085938 740 l 2
 221.37109375 740 248.741210938 729.333007812 264.149414062 708 c 0
 279.557617188 686.666992188 282.64453125 656 273.409179688 616 c 2
 236.240234375 455 l 2
 230.083007812 428.333007812 230.40234375 409.5 237.196289062 398.5 c 0
 243.989257812 387.5 260.052734375 382 285.385742188 382 c 1
 261.606445312 279 l 1
 236.272460938 279 217.668945312 273.5 205.796875 262.5 c 0
 193.923828125 251.5 184.986328125 233 178.983398438 207 c 2
 140.428710938 40 l 2
 131.194335938 0 113.947265625 -30.6669921875 88.6884765625 -52 c 0
 63.4306640625 -73.3330078125 31.134765625 -84 -8.1982421875 -84 c 2
 -65.1982421875 -84 l 1
 -41.4189453125 19 l 1
EndSplineSet
Substitution2: "'rtla' Right to Left Alternates lookup 0 subtable" braceleft
EndChar

StartChar: asciitilde
Encoding: 126 126 96
Width: 419
GlyphClass: 2
Flags: MW
HStem: 201.999 88.999<241.378 245.165> 247 88.998<122.768 126.221>
LayerCount: 2
Fore
SplineSet
-3.8583984375 238 m 1x40
 20.8115234375 272.666992188 44.0849609375 297.665039062 65.9580078125 312.998046875 c 0
 87.8310546875 328.331054688 110.767578125 335.998046875 134.767578125 335.998046875 c 0x40
 148.100585938 335.998046875 159.895507812 333.665039062 170.151367188 328.998046875 c 0
 180.40625 324.330078125 191.534179688 317.663085938 203.533203125 308.998046875 c 0
 210.456054688 304.329101562 217.494140625 300.162109375 224.647460938 296.498046875 c 0
 231.80078125 292.831054688 238.377929688 290.998046875 244.377929688 290.998046875 c 0
 255.044921875 290.998046875 264.647460938 294.331054688 273.186523438 300.998046875 c 0
 281.725585938 307.665039062 294.047851562 321.33203125 310.15234375 341.999023438 c 1
 371.456054688 299.999023438 l 1
 347.452148438 265.33203125 324.513671875 240.33203125 302.640625 224.999023438 c 0
 280.767578125 209.666015625 257.498046875 201.999023438 232.831054688 201.999023438 c 0x80
 220.1640625 201.999023438 208.369140625 204.33203125 197.447265625 208.999023438 c 0
 186.524414062 213.666015625 175.396484375 220.333007812 164.064453125 228.999023438 c 0
 162.372070312 230.33203125 158.782226562 232.83203125 153.295898438 236.499023438 c 0
 147.80859375 240.16796875 142.591796875 242.834960938 137.643554688 244.5 c 0
 132.6953125 246.166992188 128.220703125 247 124.220703125 247 c 0
 114.220703125 247 104.618164062 243.666992188 95.4111328125 237 c 0
 86.205078125 230.333007812 73.9599609375 217 58.67578125 197 c 1
 -3.8583984375 238 l 1x40
EndSplineSet
EndChar

StartChar: exclamdown
Encoding: 161 161 98
Width: 208
GlyphClass: 2
Flags: MW
HStem: -158 21G<-79.2822 46.7178 -79.2822 -79.2822> 397 131<84.0928 169.85 53.8496 200.093>
VStem: -79.2822 279.375
LayerCount: 2
Fore
SplineSet
84.0927734375 528 m 1
 200.092773438 528 l 1
 169.849609375 397 l 1
 53.849609375 397 l 1
 84.0927734375 528 l 1
52.0712890625 307 m 1
 130.071289062 307 l 1
 46.7177734375 -158 l 1
 -79.2822265625 -158 l 1
 52.0712890625 307 l 1
EndSplineSet
EndChar

StartChar: cent
Encoding: 162 162 99
Width: 443
GlyphClass: 2
Flags: MW
HStem: 432.001 104<213.263 236.94>
LayerCount: 2
Fore
SplineSet
252.61328125 344 m 1
 256.76953125 362.000976562 l 2
 262.15625 385.333984375 261.696289062 402.833984375 255.389648438 414.500976562 c 0
 249.083007812 426.16796875 237.9296875 432.000976562 221.9296875 432.000976562 c 0
 204.596679688 432.000976562 190.01953125 425.16796875 178.197265625 411.500976562 c 0
 166.375 397.833984375 157.001953125 376.000976562 150.075195312 346.000976562 c 2
 112.212890625 182.000976562 l 2
 105.287109375 152.000976562 104.579101562 130.16796875 110.090820312 116.500976562 c 0
 115.602539062 102.833984375 126.692382812 96.0009765625 143.358398438 96.0009765625 c 0
 160.025390625 96.0009765625 174.205078125 101.833984375 185.8984375 113.500976562 c 0
 197.591796875 125.16796875 206.208984375 143.000976562 211.75 167.000976562 c 2
 215.674804688 184.000976562 l 1
 327.674804688 184.000976562 l 1
 323.75 167.000976562 l 2
 312.514648438 118.333984375 293.958984375 79.833984375 268.084960938 51.5009765625 c 0
 242.2109375 23.16796875 210.016601562 5.0009765625 171.502929688 -2.9990234375 c 1
 149.108398438 -99.9990234375 l 1
 90.1083984375 -99.9990234375 l 1
 111.34765625 -7.9990234375 l 1
 59.65625 -6.666015625 23.7724609375 9.0009765625 3.69921875 39.0009765625 c 0
 -16.375 69.0009765625 -18.79296875 117.000976562 -3.5556640625 183.000976562 c 2
 33.8447265625 345.000976562 l 2
 49.08203125 411.000976562 73.6630859375 459.000976562 107.58984375 489.000976562 c 0
 141.515625 519.000976562 184.6328125 534.66796875 236.940429688 536.000976562 c 1
 259.795898438 635.000976562 l 1
 318.795898438 635.000976562 l 1
 294.786132812 531.000976562 l 1
 366.271484375 514.333984375 391.086914062 458.666992188 369.23046875 364 c 2
 364.61328125 344 l 1
 252.61328125 344 l 1
EndSplineSet
EndChar

StartChar: sterling
Encoding: 163 163 100
Width: 420
GlyphClass: 2
Flags: MW
HStem: 0.00195312 111<110.822 309.196> 289 111<211.542 305.916 185.916 331.542> 602.001 98.001<292.845 307.179>
VStem: 323.711 117<535.001 535.001>
LayerCount: 2
Fore
SplineSet
145.478515625 148.5 m 0
 136.836914062 134.166992188 125.28515625 121.668945312 110.822265625 111.001953125 c 1
 334.822265625 111.001953125 l 1
 309.196289062 0.001953125 l 1
 -47.8037109375 0.001953125 l 1
 -21.7158203125 113.001953125 l 1
 -2.1767578125 119.668945312 11.9267578125 129.501953125 20.5947265625 142.501953125 c 0
 29.263671875 155.501953125 36.751953125 175.668945312 43.0625 203.001953125 c 2
 62.9169921875 289.001953125 l 1
 1.9169921875 289.001953125 l 1
 27.5439453125 400.001953125 l 1
 88.5439453125 400.001953125 l 1
 120.633789062 539.001953125 l 2
 132.485351562 590.334960938 154.9765625 630.001953125 188.107421875 658.001953125 c 0
 221.239257812 686.001953125 264.803710938 700.001953125 318.803710938 700.001953125 c 0
 372.803710938 700.001953125 409.662109375 685.668945312 429.376953125 657.001953125 c 0
 449.091796875 628.334960938 452.870117188 587.66796875 440.7109375 535.000976562 c 1
 323.7109375 535.000976562 l 1
 329.405273438 559.66796875 330.407226562 577.000976562 326.715820312 587.000976562 c 0
 323.024414062 597.000976562 314.178710938 602.000976562 300.178710938 602.000976562 c 0
 285.51171875 602.000976562 273.844726562 597.66796875 265.176757812 589.000976562 c 0
 256.508789062 580.333984375 250.020507812 566.666992188 245.7109375 548 c 2
 211.541992188 400 l 1
 331.541992188 400 l 1
 305.916015625 289 l 1
 185.916015625 289 l 1
 165.599609375 201 l 2
 160.828125 180.333007812 154.12109375 162.833007812 145.478515625 148.5 c 0
EndSplineSet
EndChar

StartChar: currency
Encoding: 164 164 101
Width: 571
GlyphClass: 2
Flags: MW
HStem: 107 103<235.677 244.564> 412 103<301.758 310.312>
LayerCount: 2
Fore
SplineSet
336.130859375 134 m 1
 299.975585938 116 263.23046875 107 225.897460938 107 c 0
 187.23046875 107 154.641601562 116 128.129882812 134 c 1
 47.1240234375 69 l 1
 -9.5615234375 144 l 1
 70.67578125 210 l 1
 60.935546875 240 60.375 273.666992188 68.994140625 311 c 0
 77.3046875 347 93.7451171875 380.666992188 118.311523438 412 c 1
 67.779296875 479 l 1
 160.094726562 554 l 1
 209.857421875 488 l 1
 246.6796875 506 283.424804688 515 320.091796875 515 c 0
 356.758789062 515 389.013671875 506 416.858398438 488 c 1
 499.095703125 554 l 1
 555.780273438 479 l 1
 474.54296875 413 l 1
 485.155273438 381 486.305664062 347 477.995117188 311 c 0
 469.68359375 275 453.244140625 241.333007812 428.676757812 210 c 1
 479.208984375 143 l 1
 386.893554688 68 l 1
 336.130859375 134 l 1
326.372070312 239 m 0
 349.502929688 258.333007812 364.376953125 282.333007812 370.995117188 311 c 0
 377.61328125 339.666992188 373.821289062 363.666992188 359.6171875 383 c 0
 345.4140625 402.333007812 324.3125 412 296.3125 412 c 0
 268.3125 412 242.9140625 402.333007812 220.1171875 383 c 0
 197.321289062 363.666992188 182.61328125 339.666992188 175.995117188 311 c 0
 169.376953125 282.333007812 173.002929688 258.333007812 186.872070312 239 c 0
 200.7421875 219.666992188 221.676757812 210 249.676757812 210 c 0
 277.676757812 210 303.2421875 219.666992188 326.372070312 239 c 0
EndSplineSet
EndChar

StartChar: yen
Encoding: 165 165 102
Width: 409
GlyphClass: 2
Flags: MW
HStem: 0 21G<59.1953 182.195 59.1953 59.1953> 110 85<1.21387 84.5908 -18.4092 104.214 227.214 310.591> 248 85<33.0742 116.45 13.4502 124.074 271.074 342.45> 670 20G<80.4941 210.494 210.494 210.494 351.494 479.494 479.494 479.494>
VStem: 80.4941 130<690 690>
LayerCount: 2
Fore
SplineSet
84.5908203125 110 m 1
 -18.4091796875 110 l 1
 1.2138671875 195 l 1
 104.213867188 195 l 1
 116.450195312 248 l 1
 13.4501953125 248 l 1
 33.07421875 333 l 1
 124.07421875 333 l 1
 80.494140625 690 l 1
 210.494140625 690 l 1
 220.852539062 423 l 1
 351.494140625 690 l 1
 479.494140625 690 l 1
 271.07421875 333 l 1
 362.07421875 333 l 1
 342.450195312 248 l 1
 239.450195312 248 l 1
 227.213867188 195 l 1
 330.213867188 195 l 1
 310.590820312 110 l 1
 207.590820312 110 l 1
 182.1953125 0 l 1
 59.1953125 0 l 1
 84.5908203125 110 l 1
EndSplineSet
EndChar

StartChar: brokenbar
Encoding: 166 166 103
Width: 264
GlyphClass: 2
Flags: MW
VStem: -27.1982 302.235
LayerCount: 2
Fore
SplineSet
163.037109375 740 m 1
 275.037109375 740 l 1
 193.771484375 388 l 1
 81.771484375 388 l 1
 163.037109375 740 l 1
54.0673828125 268 m 1
 166.067382812 268 l 1
 84.8017578125 -84 l 1
 -27.1982421875 -84 l 1
 54.0673828125 268 l 1
EndSplineSet
EndChar

StartChar: section
Encoding: 167 167 104
Width: 409
GlyphClass: 2
Flags: MW
HStem: -168 92.001<91.6484 108.982 91.6484 131.409> 617.999 92<260.778 273.871>
LayerCount: 2
Fore
SplineSet
-25.009765625 -126.5 m 0
 -40.6220703125 -98.8330078125 -41.580078125 -55.33203125 -27.8828125 4.0009765625 c 1
 77.1171875 4.0009765625 l 1
 70.345703125 -25.33203125 68.07421875 -45.9990234375 70.3037109375 -57.9990234375 c 0
 72.533203125 -69.9990234375 82.6484375 -75.9990234375 100.6484375 -75.9990234375 c 0
 117.315429688 -75.9990234375 129.87890625 -70.666015625 138.341796875 -59.9990234375 c 0
 146.8046875 -49.33203125 153.267578125 -34.33203125 157.731445312 -14.9990234375 c 0
 162.65625 6.333984375 163.836914062 23.0009765625 161.274414062 35.0009765625 c 0
 158.711914062 47.0009765625 152.276367188 56.66796875 141.969726562 64.0009765625 c 0
 131.663085938 71.333984375 115.25390625 79.6669921875 92.7412109375 89 c 0
 53.6142578125 104.333007812 28.9873046875 126.166015625 18.861328125 154.499023438 c 0
 8.736328125 182.83203125 9.5224609375 222.33203125 21.2197265625 272.999023438 c 0
 30.146484375 311.666015625 43.251953125 343.166015625 60.537109375 367.499023438 c 0
 77.8212890625 391.83203125 102.182617188 409.999023438 133.620117188 421.999023438 c 1
 111.26171875 431.999023438 98.0712890625 448.499023438 94.0478515625 471.499023438 c 0
 90.025390625 494.499023438 91.8603515625 522.666015625 99.556640625 555.999023438 c 0
 111.407226562 607.33203125 133.12890625 645.83203125 164.721679688 671.499023438 c 0
 196.314453125 697.166015625 236.444335938 709.999023438 285.111328125 709.999023438 c 0
 339.778320312 709.999023438 374.623046875 696.33203125 389.645507812 668.999023438 c 0
 404.66796875 641.666015625 405.408203125 598.666015625 391.86328125 539.999023438 c 1
 286.86328125 539.999023438 l 1
 293.482421875 568.66796875 295.970703125 588.834960938 294.331054688 600.499023438 c 0
 292.69140625 612.166015625 282.87109375 617.999023438 264.87109375 617.999023438 c 0
 248.87109375 617.999023438 237.139648438 612.666015625 229.677734375 601.999023438 c 0
 222.21484375 591.33203125 216.174804688 575.999023438 211.557617188 555.999023438 c 0
 206.940429688 535.999023438 205.990234375 520.33203125 208.706054688 508.999023438 c 0
 211.422851562 497.666015625 217.729492188 488.166015625 227.626953125 480.499023438 c 0
 237.5234375 472.83203125 253.21484375 464.999023438 274.701171875 456.999023438 c 0
 314.495117188 441.666015625 339.326171875 419.999023438 349.1953125 391.999023438 c 0
 359.063476562 363.999023438 358.073242188 324.33203125 346.221679688 272.999023438 c 0
 337.140625 233.666015625 323.997070312 201.999023438 306.7890625 177.999023438 c 0
 289.581054688 153.999023438 265.3359375 136.33203125 234.052734375 124.999023438 c 1
 256.76953125 113.666015625 270.383789062 96.8330078125 274.89453125 74.5 c 0
 279.405273438 52.1669921875 277.659179688 23.6669921875 269.655273438 -11 c 0
 245.491210938 -115.666992188 182.409179688 -168 80.4091796875 -168 c 0
 25.7421875 -168 -9.3974609375 -154.166992188 -25.009765625 -126.5 c 0
209.598632812 201.000976562 m 0
 219.805664062 216.333984375 228.6796875 240.333984375 236.220703125 273.000976562 c 0
 243.916992188 306.333984375 246.163085938 330.500976562 242.958984375 345.500976562 c 0
 239.754882812 360.500976562 227.153320312 368.000976562 205.153320312 368.000976562 c 0
 183.153320312 368.000976562 167.216796875 360.333984375 157.34375 345.000976562 c 0
 147.470703125 329.66796875 138.762695312 305.66796875 131.220703125 273.000976562 c 0
 123.6796875 240.333984375 121.471679688 216.333984375 124.598632812 201.000976562 c 0
 127.725585938 185.66796875 139.956054688 178.000976562 161.2890625 178.000976562 c 0
 183.2890625 178.000976562 199.391601562 185.66796875 209.598632812 201.000976562 c 0
259.725585938 704.000976562 m 1024
EndSplineSet
EndChar

StartChar: dieresis
Encoding: 168 168 105
Width: 500
GlyphClass: 2
Flags: MW
HStem: 591 114<203.957 270.638 177.638 296.957 203.957 333.638 359.957 426.638>
VStem: 177.638 275.319<591 705>
LayerCount: 2
Fore
SplineSet
203.95703125 705 m 1
 296.95703125 705 l 1
 270.637695312 591 l 1
 177.637695312 591 l 1
 203.95703125 705 l 1
359.95703125 705 m 1
 452.95703125 705 l 1
 426.637695312 591 l 1
 333.637695312 591 l 1
 359.95703125 705 l 1
EndSplineSet
EndChar

StartChar: copyright
Encoding: 169 169 106
Width: 703
GlyphClass: 2
Flags: MW
HStem: -6 68<243.174 316.476> 149 74<314.343 322.592> 465 72.999<373.733 382.213> 624 68<377.956 451.256>
LayerCount: 2
Fore
SplineSet
56.2802734375 87 m 0
 15.9267578125 149 8.294921875 234.333007812 33.3828125 343 c 0
 58.7783203125 453 105.888671875 538.666992188 174.715820312 600 c 0
 243.54296875 661.333007812 327.956054688 692 427.956054688 692 c 0
 527.956054688 692 597.965820312 661 637.985351562 599 c 0
 678.00390625 537 685.470703125 451.666992188 660.3828125 343 c 0
 635.294921875 234.333007812 588.260742188 149 519.280273438 87 c 0
 450.299804688 25 366.142578125 -6 266.809570312 -6 c 0
 166.809570312 -6 96.6337890625 25 56.2802734375 87 c 0
476.977539062 135.5 m 0
 527.95703125 184.5 563.7578125 253.666992188 584.381835938 343 c 0
 605.16015625 433 601.166992188 502.333007812 572.40234375 551 c 0
 543.637695312 599.666992188 490.255859375 624 412.255859375 624 c 0
 333.588867188 624 268.599609375 599.5 217.287109375 550.5 c 0
 165.974609375 501.5 130.005859375 432.333007812 109.381835938 343 c 0
 88.603515625 253 92.5966796875 183.666992188 121.361328125 135 c 0
 150.125 86.3330078125 203.840820312 62 282.5078125 62 c 0
 361.174804688 62 425.998046875 86.5 476.977539062 135.5 c 0
221.596679688 181.5 m 0
 206.265625 203.166992188 204.139648438 237.999023438 215.220703125 285.999023438 c 2
 242.001953125 401.999023438 l 2
 253.083007812 449.999023438 271.25390625 484.666015625 296.51171875 505.999023438 c 0
 321.771484375 527.33203125 354.06640625 537.999023438 393.399414062 537.999023438 c 0
 471.399414062 537.999023438 501.010742188 497.33203125 482.233398438 415.999023438 c 2
 479.001953125 401.999023438 l 1
 399.001953125 401.999023438 l 1
 401.772460938 413.999023438 l 2
 405.620117188 430.666015625 405.2109375 443.333007812 400.544921875 452 c 0
 395.87890625 460.666992188 387.879882812 465 376.546875 465 c 0
 351.879882812 465 334.775390625 444.333007812 325.232421875 403 c 2
 297.990234375 285 l 2
 292.911132812 263 292.255859375 247.166992188 296.024414062 237.5 c 0
 299.791992188 227.833007812 308.009765625 223 320.676757812 223 c 0
 345.34375 223 361.677734375 240.333007812 369.681640625 275 c 2
 372.452148438 287 l 1
 452.452148438 287 l 1
 449.681640625 275 l 2
 439.985351562 233 422.712890625 201.5 397.864257812 180.5 c 0
 373.016601562 159.5 341.591796875 149 303.591796875 149 c 0
 264.258789062 149 236.926757812 159.833007812 221.596679688 181.5 c 0
EndSplineSet
EndChar

StartChar: ordfeminine
Encoding: 170 170 107
Width: 307
GlyphClass: 2
Flags: MW
HStem: 425 69.001<125.648 183.245> 561.001 54.999<191.713 241.41 211.41 228.713> 677 69<223.756 233.493>
LayerCount: 2
Fore
SplineSet
312.458007812 718 m 0
 327.1484375 699.333007812 330.955078125 674.666992188 323.875 644 c 2
 274.46875 430 l 1
 202.46875 430 l 1
 208.241210938 455 l 1
 196.599609375 445 185.8671875 437.5 176.045898438 432.5 c 0
 166.224609375 427.5 154.314453125 425 140.314453125 425 c 0
 110.981445312 425 90.77734375 433.5 79.7021484375 450.5 c 0
 68.626953125 467.5 66.7060546875 491.666992188 73.939453125 523 c 0
 80.8662109375 553 96.17578125 576 119.870117188 592 c 0
 143.563476562 608 174.077148438 616 211.41015625 616 c 2
 241.41015625 616 l 1
 248.798828125 648 l 2
 253.26171875 667.333007812 244.493164062 677 222.493164062 677 c 0
 212.493164062 677 203.955078125 674.666992188 196.877929688 670 c 0
 189.799804688 665.333007812 185.337890625 659 183.491210938 651 c 2
 182.798828125 648 l 1
 111.798828125 648 l 1
 112.259765625 650 l 2
 119.647460938 682 134.85546875 706 157.8828125 722 c 0
 180.909179688 738 208.08984375 746 239.422851562 746 c 0
 273.422851562 746 297.767578125 736.666992188 312.458007812 718 c 0
205.20703125 502.500976562 m 0
 213.182617188 508.16796875 218.247070312 515.66796875 220.401367188 525.000976562 c 2
 228.712890625 561.000976562 l 1
 207.712890625 561.000976562 l 2
 175.712890625 561.000976562 157.01953125 549.333984375 151.6328125 526.000976562 c 0
 149.477539062 516.66796875 150.708007812 509.000976562 155.322265625 503.000976562 c 0
 159.9375 497.000976562 167.578125 494.000976562 178.245117188 494.000976562 c 0
 188.245117188 494.000976562 197.232421875 496.833984375 205.20703125 502.500976562 c 0
251.741210938 847.000976562 m 1024
EndSplineSet
EndChar

StartChar: guillemotleft
Encoding: 171 171 108
Width: 442
GlyphClass: 2
Flags: W
LayerCount: 2
Fore
SplineSet
-8.85546875 264 m 1
 230.85546875 462 l 1
 205.4609375 352 l 1
 99.14453125 264 l 1
 164.828125 176 l 1
 139.432617188 66 l 1
 -8.85546875 264 l 1
184.14453125 264 m 1
 423.85546875 462 l 1
 398.4609375 352 l 1
 291.14453125 264 l 1
 357.828125 176 l 1
 332.432617188 66 l 1
 184.14453125 264 l 1
EndSplineSet
EndChar

StartChar: logicalnot
Encoding: 172 172 109
Width: 419
GlyphClass: 2
Flags: MW
HStem: 256 104<34.3076 242.297 10.2969 382.308>
LayerCount: 2
Fore
SplineSet
242.296875 256 m 1
 10.296875 256 l 1
 34.3076171875 360 l 1
 382.307617188 360 l 1
 334.979492188 155 l 1
 218.979492188 155 l 1
 242.296875 256 l 1
EndSplineSet
EndChar

StartChar: uni00AD
Encoding: 173 173 110
Width: 351
GlyphClass: 2
Flags: MW
HStem: 291 110<46.7734 296.378 21.3779 321.773>
VStem: 21.3779 300.396<291 401>
LayerCount: 2
Fore
SplineSet
46.7734375 401 m 1
 321.7734375 401 l 1
 296.377929688 291 l 1
 21.3779296875 291 l 1
 46.7734375 401 l 1
EndSplineSet
EndChar

StartChar: registered
Encoding: 174 174 111
Width: 428
GlyphClass: 2
Flags: MW
HStem: 315 38.001<189.36 229.252> 572.001 40<249.254 259.254 249.254 249.254> 656.001 37.999<262.751 301.646>
LayerCount: 2
Fore
SplineSet
87.0771484375 365.5 m 0
 65.1826171875 399.166992188 61.0869140625 445.66796875 74.78515625 505.000976562 c 0
 88.4833984375 564.333984375 114.34765625 610.666992188 152.375976562 644 c 0
 190.404296875 677.333007812 236.084960938 694 289.41796875 694 c 0
 344.084960938 694 382.622070312 676.833007812 405.028320312 642.5 c 0
 427.434570312 608.165039062 432.020507812 562.33203125 418.784179688 505 c 0
 405.240234375 446.333007812 379.375976562 400 341.193359375 366 c 0
 303.010742188 332 256.5859375 315 201.918945312 315 c 0
 147.251953125 315 108.971679688 331.833007812 87.0771484375 365.5 c 0
316.8125 392.500976562 m 0
 344.892578125 418.833984375 364.549804688 456.333984375 375.78515625 505.000976562 c 0
 387.021484375 553.66796875 384.47265625 591.000976562 368.142578125 617.000976562 c 0
 351.8125 643.000976562 322.646484375 656.000976562 280.646484375 656.000976562 c 0
 237.979492188 656.000976562 202.606445312 642.833984375 174.52734375 616.500976562 c 0
 146.448242188 590.16796875 126.8671875 553.000976562 115.78515625 505.000976562 c 0
 104.396484375 455.66796875 106.700195312 418.000976562 122.697265625 392.000976562 c 0
 138.694335938 366.000976562 168.026367188 353.000976562 210.693359375 353.000976562 c 0
 253.360351562 353.000976562 288.733398438 366.16796875 316.8125 392.500976562 c 0
214.48828125 612.000976562 m 1
 273.48828125 612.000976562 l 2
 314.821289062 612.000976562 330.639648438 591.000976562 320.943359375 549.000976562 c 0
 315.249023438 524.333984375 303.016601562 506.000976562 284.24609375 494.000976562 c 1
 293.543945312 400.000976562 l 1
 247.543945312 400.000976562 l 1
 240.706054688 483.000976562 l 1
 228.706054688 483.000976562 l 1
 209.543945312 400.000976562 l 1
 165.543945312 400.000976562 l 1
 214.48828125 612.000976562 l 1
247.709960938 522.000976562 m 2
 256.376953125 522.000976562 262.80078125 523.833984375 266.98046875 527.500976562 c 0
 271.159179688 531.16796875 274.404296875 538.000976562 276.712890625 548.000976562 c 0
 279.021484375 558.000976562 278.85546875 564.500976562 276.21484375 567.500976562 c 0
 273.57421875 570.500976562 267.920898438 572.000976562 259.25390625 572.000976562 c 2
 249.25390625 572.000976562 l 1
 237.709960938 522.000976562 l 1
 247.709960938 522.000976562 l 2
EndSplineSet
EndChar

StartChar: macron
Encoding: 175 175 112
Width: 500
GlyphClass: 2
Flags: MW
HStem: 596 104<208.803 421.792 184.792 445.803>
VStem: 184.792 261.011<596 700>
LayerCount: 2
Fore
SplineSet
208.802734375 700 m 1
 445.802734375 700 l 1
 421.791992188 596 l 1
 184.791992188 596 l 1
 208.802734375 700 l 1
EndSplineSet
EndChar

StartChar: degree
Encoding: 176 176 113
Width: 325
GlyphClass: 2
Flags: MW
HStem: 453 64<189.22 200.778> 637 64<222.367 233.591>
LayerCount: 2
Fore
SplineSet
102.473632812 488.5 m 0
 84.2705078125 512.166992188 79.248046875 541.666992188 87.40625 577 c 0
 95.5634765625 612.333007812 114.20703125 641.833007812 143.337890625 665.5 c 0
 172.46875 689.166992188 204.700195312 701 240.033203125 701 c 0
 276.033203125 701 303.134765625 689.166992188 321.337890625 665.5 c 0
 339.541015625 641.833007812 344.563476562 612.333007812 336.40625 577 c 0
 328.248046875 541.666992188 309.604492188 512.166992188 280.473632812 488.5 c 0
 251.342773438 464.833007812 218.778320312 453 182.778320312 453 c 0
 147.4453125 453 120.676757812 464.833007812 102.473632812 488.5 c 0
242.978515625 534 m 0
 256.594726562 545.333007812 265.404296875 559.66796875 269.40625 577.000976562 c 0
 273.407226562 594.333984375 271.216796875 608.666992188 262.833007812 620 c 0
 254.44921875 631.333007812 241.924804688 637 225.2578125 637 c 0
 208.590820312 637 193.615234375 631.333007812 180.33203125 620 c 0
 167.047851562 608.6640625 158.40625 594.331054688 154.405273438 577 c 0
 150.40234375 559.6640625 152.426757812 545.331054688 160.477539062 534 c 0
 168.528320312 522.666992188 180.88671875 517 197.553710938 517 c 0
 214.220703125 517 229.362304688 522.666992188 242.978515625 534 c 0
EndSplineSet
EndChar

StartChar: plusminus
Encoding: 177 177 114
Width: 419
GlyphClass: 2
Flags: MW
HStem: 9 111<-24.1006 305.272 -49.7275 330.899> 288 111<40.3115 136.685 14.6846 162.312 40.3115 247.685 273.312 369.685>
LayerCount: 2
Fore
SplineSet
136.684570312 288 m 1
 14.6845703125 288 l 1
 40.3115234375 399 l 1
 162.311523438 399 l 1
 190.477539062 521 l 1
 301.477539062 521 l 1
 273.311523438 399 l 1
 395.311523438 399 l 1
 369.684570312 288 l 1
 247.684570312 288 l 1
 219.518554688 166 l 1
 108.518554688 166 l 1
 136.684570312 288 l 1
-24.1005859375 120 m 1
 330.899414062 120 l 1
 305.272460938 9 l 1
 -49.7275390625 9 l 1
 -24.1005859375 120 l 1
EndSplineSet
EndChar

StartChar: uni00B2
Encoding: 178 178 115
Width: 283
GlyphClass: 2
Flags: MW
HStem: 430 74<155.553 266.468> 779.001 74<239.792 242.041>
VStem: 46.4678 295.418
LayerCount: 2
Fore
SplineSet
62.1669921875 498 m 1
 220.569335938 673.002929688 l 2
 231.186523438 684.3359375 238.840820312 693.668945312 243.534179688 701.001953125 c 0
 248.2265625 708.334960938 251.958984375 718.001953125 254.729492188 730.001953125 c 2
 259.80859375 752.001953125 l 2
 261.500976562 759.334960938 260.629882812 765.66796875 257.194335938 771.000976562 c 0
 253.758789062 776.333984375 247.041015625 779.000976562 237.041015625 779.000976562 c 0
 219.041015625 779.000976562 208.194335938 771.000976562 204.500976562 755.000976562 c 2
 197.34375 724.000976562 l 1
 117.34375 724.000976562 l 1
 126.34765625 763.000976562 l 2
 132.811523438 791.000976562 147.890625 813.000976562 171.584960938 829.000976562 c 0
 195.278320312 845.000976562 223.458984375 853.000976562 256.125976562 853.000976562 c 0
 289.458984375 853.000976562 313.740234375 844.833984375 328.969726562 828.500976562 c 0
 344.198242188 812.16796875 348.50390625 789.66796875 341.885742188 761.000976562 c 2
 334.728515625 730.000976562 l 2
 330.265625 710.66796875 324.071289062 694.66796875 316.147460938 682.000976562 c 0
 308.22265625 669.333984375 296.669921875 654.666992188 281.48828125 638 c 2
 155.552734375 504 l 1
 283.552734375 504 l 1
 266.467773438 430 l 1
 46.4677734375 430 l 1
 62.1669921875 498 l 1
EndSplineSet
EndChar

StartChar: uni00B3
Encoding: 179 179 116
Width: 278
GlyphClass: 2
Flags: MW
HStem: 424 74<157.833 168.417> 607 74<171.332 206.416 171.332 206.416> 778 75<233.125 237.144>
VStem: 63.7842 273.947<518 756>
LayerCount: 2
Fore
SplineSet
75.7392578125 448.5 m 0
 60.8427734375 464.833007812 56.8583984375 488 63.7841796875 518 c 2
 70.94140625 549 l 1
 150.94140625 549 l 1
 145.400390625 525 l 2
 141.245117188 507 148.5 498 167.166992188 498 c 0
 178.5 498 186.706054688 500.333007812 191.783203125 505 c 0
 196.860351562 509.666992188 200.708007812 517.666992188 203.32421875 529 c 2
 212.328125 568 l 2
 215.560546875 582 215.702148438 592 212.75390625 598 c 0
 209.806640625 604 201.33203125 607 187.33203125 607 c 2
 171.33203125 607 l 1
 188.416015625 681 l 1
 206.416015625 681 l 2
 219.083007812 681 228.19921875 683.666992188 233.762695312 689 c 0
 239.327148438 694.333007812 243.495117188 703 246.265625 715 c 2
 253.653320312 747 l 2
 256.116210938 757.666992188 255.7578125 765.5 252.579101562 770.5 c 0
 249.400390625 775.5 242.477539062 778 231.810546875 778 c 0
 213.143554688 778 201.732421875 769 197.577148438 751 c 2
 191.8046875 726 l 1
 111.8046875 726 l 1
 118.731445312 756 l 2
 125.811523438 786.666992188 140.98046875 810.5 164.23828125 827.5 c 0
 187.49609375 844.5 216.125 853 250.125 853 c 0
 285.458007812 853 310.663085938 844.5 325.73828125 827.5 c 0
 340.813476562 810.5 344.811523438 786.666992188 337.731445312 756 c 2
 329.881835938 722 l 2
 325.41796875 702.666992188 318.75 687.5 309.876953125 676.5 c 0
 301.004882812 665.5 286.567382812 655.666992188 266.56640625 647 c 1
 283.38671875 639 293.564453125 629.666992188 297.102539062 619 c 0
 300.639648438 608.333007812 300.099609375 593 295.482421875 573 c 2
 284.862304688 527 l 2
 277.166992188 493.666992188 261.612304688 468.166992188 238.201171875 450.5 c 0
 214.7890625 432.833007812 185.75 424 151.083007812 424 c 0
 115.75 424 90.6357421875 432.166992188 75.7392578125 448.5 c 0
EndSplineSet
EndChar

StartChar: acute
Encoding: 180 180 117
Width: 500
GlyphClass: 2
Flags: MW
HStem: 590 136<191.407 444.805 191.407 444.805>
VStem: 191.407 253.397<590 726>
LayerCount: 2
Fore
SplineSet
321.8046875 726 m 1
 444.8046875 726 l 1
 290.407226562 590 l 1
 191.407226562 590 l 1
 321.8046875 726 l 1
EndSplineSet
EndChar

StartChar: uni00B5
Encoding: 181 181 118
Width: 410
GlyphClass: 2
Flags: MW
HStem: -158 21G<-79.2822 29.7178 -79.2822 -79.2822> -5 101<98.04 150.358> 508 20G<79.0928 195.093 195.093 195.093 291.093 407.093 407.093 407.093>
LayerCount: 2
Fore
SplineSet
79.0927734375 528 m 1
 195.092773438 528 l 1
 108.287109375 152 l 2
 104.130859375 134 105.4375 120.166992188 112.206054688 110.5 c 0
 118.973632812 100.833007812 129.358398438 96 143.358398438 96 c 0
 157.358398438 96 169.973632812 100.833007812 181.206054688 110.5 c 0
 192.4375 120.166992188 200.130859375 134 204.287109375 152 c 2
 291.092773438 528 l 1
 407.092773438 528 l 1
 285.1953125 0 l 1
 174.1953125 0 l 1
 183.198242188 39 l 1
 173.966796875 25 162.1328125 14.1669921875 147.6953125 6.5 c 0
 133.258789062 -1.1669921875 119.373046875 -5 106.040039062 -5 c 0
 90.0400390625 -5 77.06640625 -2 67.1181640625 4 c 1
 29.7177734375 -158 l 1
 -79.2822265625 -158 l 1
 79.0927734375 528 l 1
EndSplineSet
EndChar

StartChar: paragraph
Encoding: 182 182 119
Width: 553
GlyphClass: 2
Flags: MW
HStem: -158 21G<87.7178 198.718 87.7178 87.7178 259.718 369.718 259.718 259.718> 596 94<372.792 433.792 372.792 372.792>
LayerCount: 2
Fore
SplineSet
184.451171875 261 m 1
 152.24609375 263 125.915039062 273.831054688 105.455078125 293.498046875 c 0
 84.99609375 313.165039062 71.4208984375 338.83203125 64.732421875 370.499023438 c 0
 58.04296875 402.166015625 59.162109375 437.333007812 68.0888671875 476 c 0
 77.169921875 515.333007812 93.6484375 551.333007812 117.522460938 584 c 0
 141.397460938 616.666992188 170.694335938 642.5 205.4140625 661.5 c 0
 240.133789062 680.5 277.494140625 690 317.494140625 690 c 2
 565.494140625 690 l 1
 369.717773438 -158 l 1
 259.717773438 -158 l 1
 433.791992188 596 l 1
 372.791992188 596 l 1
 198.717773438 -158 l 1
 87.7177734375 -158 l 1
 184.451171875 261 l 1
EndSplineSet
EndChar

StartChar: periodcentered
Encoding: 183 183 120
Width: 175
GlyphClass: 2
Flags: MW
HStem: 214 132<25.0752 111.601 -5.39941 142.075>
VStem: -5.39941 147.475<214 346>
LayerCount: 2
Fore
SplineSet
25.0751953125 346 m 1
 142.075195312 346 l 1
 111.600585938 214 l 1
 -5.3994140625 214 l 1
 25.0751953125 346 l 1
EndSplineSet
EndChar

StartChar: cedilla
Encoding: 184 184 121
Width: 500
GlyphClass: 2
Flags: MW
HStem: -158 168<33.7178 233.504 33.7178 233.504>
VStem: 33.7178 199.786<-158 10>
LayerCount: 2
Fore
SplineSet
145.50390625 10 m 1
 233.50390625 10 l 1
 135.717773438 -158 l 1
 33.7177734375 -158 l 1
 145.50390625 10 l 1
EndSplineSet
EndChar

StartChar: uni00B9
Encoding: 185 185 122
Width: 215
GlyphClass: 2
Flags: MW
VStem: 103.649 179.091<708 847>
LayerCount: 2
Fore
SplineSet
177.577148438 751 m 1
 103.649414062 708 l 1
 125.8125 804 l 1
 199.740234375 847 l 1
 282.740234375 847 l 1
 186.467773438 430 l 1
 103.467773438 430 l 1
 177.577148438 751 l 1
EndSplineSet
EndChar

StartChar: ordmasculine
Encoding: 186 186 123
Width: 310
GlyphClass: 2
Flags: MW
HStem: 425 70<173.808 188.313> 676 70.001<225.756 232.928>
LayerCount: 2
Fore
SplineSet
91.931640625 451.5 m 0
 77.0107421875 469.166992188 74.244140625 498.333984375 83.6328125 539.000976562 c 2
 105.103515625 632.000976562 l 2
 114.493164062 672.668945312 130.7265625 701.8359375 153.8046875 719.500976562 c 0
 176.883789062 737.16796875 207.08984375 746.000976562 244.422851562 746.000976562 c 0
 280.422851562 746.000976562 305.883789062 737.16796875 320.8046875 719.500976562 c 0
 335.725585938 701.833984375 338.4921875 672.666992188 329.103515625 632 c 2
 307.6328125 539 l 2
 298.244140625 498.333007812 282.010742188 469.166015625 258.931640625 451.5 c 0
 235.853515625 433.833007812 206.313476562 425 170.313476562 425 c 0
 132.98046875 425 106.853515625 433.833007812 91.931640625 451.5 c 0
213.513671875 506 m 0
 220.874023438 513.333007812 226.477539062 525.333007812 230.325195312 542 c 2
 250.411132812 629 l 2
 254.258789062 645.666992188 254.196289062 657.666992188 250.22265625 665 c 0
 246.248046875 672.333007812 238.594726562 676 227.26171875 676 c 0
 215.928710938 676 206.415039062 672.333007812 198.72265625 665 c 0
 191.029296875 657.666992188 185.258789062 645.666992188 181.411132812 629 c 2
 161.325195312 542 l 2
 154.091796875 510.666992188 162.141601562 495 185.474609375 495 c 0
 196.807617188 495 206.154296875 498.666992188 213.513671875 506 c 0
253.740234375 847 m 1024
EndSplineSet
EndChar

StartChar: guillemotright
Encoding: 187 187 124
Width: 442
GlyphClass: 2
Flags: W
LayerCount: 2
Fore
SplineSet
-2.171875 176 m 1
 104.14453125 264 l 1
 38.4609375 352 l 1
 63.85546875 462 l 1
 212.14453125 264 l 1
 -27.5673828125 66 l 1
 -2.171875 176 l 1
190.828125 176 m 1
 297.14453125 264 l 1
 231.4609375 352 l 1
 256.85546875 462 l 1
 405.14453125 264 l 1
 165.432617188 66 l 1
 190.828125 176 l 1
EndSplineSet
EndChar

StartChar: onequarter
Encoding: 188 188 125
Width: 696
GlyphClass: 3
Flags: MW
HStem: 0 21G<57.1953 139.195 57.1953 57.1953 481.195 563.195 481.195 481.195> 64 74<375.055 375.055 458.055 495.971 357.971 375.055 595.055 606.971> 670 20G<163.494 246.494 246.494 246.494>
LayerCount: 2
Fore
SplineSet
141.330078125 594 m 1
 67.4033203125 551 l 1
 89.56640625 647 l 1
 163.494140625 690 l 1
 246.494140625 690 l 1
 150.221679688 273 l 1
 67.2216796875 273 l 1
 141.330078125 594 l 1
606.970703125 64 m 1
 577.970703125 64 l 1
 563.1953125 0 l 1
 481.1953125 0 l 1
 495.970703125 64 l 1
 357.970703125 64 l 1
 375.0546875 138 l 1
 530.466796875 417 l 1
 612.466796875 417 l 1
 458.0546875 138 l 1
 513.0546875 138 l 1
 531.754882812 219 l 1
 613.754882812 219 l 1
 595.0546875 138 l 1
 624.0546875 138 l 1
 606.970703125 64 l 1
478.340820312 698 m 1
 560.340820312 698 l 1
 139.1953125 0 l 1
 57.1953125 0 l 1
 478.340820312 698 l 1
EndSplineSet
Ligature2: "'frac' Diagonal Fractions lookup 2 subtable" one slash four
EndChar

StartChar: onehalf
Encoding: 189 189 126
Width: 692
GlyphClass: 3
Flags: MW
HStem: 0 74<465.279 576.195> 349.001 74<549.52 551.769> 670 20G<163.494 246.494 246.494 246.494>
LayerCount: 2
Fore
SplineSet
141.330078125 594 m 1
 67.4033203125 551 l 1
 89.56640625 647 l 1
 163.494140625 690 l 1
 246.494140625 690 l 1
 150.221679688 273 l 1
 67.2216796875 273 l 1
 141.330078125 594 l 1
371.893554688 68 m 1
 530.295898438 243.001953125 l 2
 540.913085938 254.334960938 548.567382812 263.66796875 553.260742188 271.000976562 c 0
 557.953125 278.333984375 561.685546875 288.000976562 564.455078125 300.000976562 c 2
 569.534179688 322.000976562 l 2
 571.228515625 329.3359375 570.357421875 335.668945312 566.920898438 341.000976562 c 0
 563.485351562 346.333984375 556.768554688 349.000976562 546.768554688 349.000976562 c 0
 528.768554688 349.000976562 517.920898438 341.000976562 514.227539062 325.000976562 c 2
 507.0703125 294.000976562 l 1
 427.0703125 294.000976562 l 1
 436.07421875 333.000976562 l 2
 442.538085938 361.000976562 457.6171875 383.000976562 481.311523438 399.000976562 c 0
 505.006835938 415.000976562 533.186523438 423.000976562 565.852539062 423.000976562 c 0
 599.185546875 423.000976562 623.466796875 414.833984375 638.696289062 398.500976562 c 0
 653.924804688 382.16796875 658.23046875 359.66796875 651.612304688 331.000976562 c 2
 644.455078125 300.000976562 l 2
 639.9921875 280.66796875 633.797851562 264.66796875 625.874023438 252.000976562 c 0
 617.94921875 239.333984375 606.396484375 224.666992188 591.215820312 208 c 2
 465.279296875 74 l 1
 593.279296875 74 l 1
 576.1953125 0 l 1
 356.1953125 0 l 1
 371.893554688 68 l 1
478.340820312 698.001953125 m 1
 560.340820312 698.001953125 l 1
 139.1953125 0.001953125 l 1
 57.1953125 0.001953125 l 1
 478.340820312 698.001953125 l 1
EndSplineSet
Ligature2: "'frac' Diagonal Fractions lookup 2 subtable" one slash two
EndChar

StartChar: threequarters
Encoding: 190 190 127
Width: 759
GlyphClass: 3
Flags: MW
HStem: 0 21G<120.195 202.195 120.195 120.195 544.195 626.195 544.195 544.195> 64 74<438.055 438.055 521.055 558.971 420.971 438.055 658.055 669.971> 267 74<121.587 132.17> 450 74<135.086 170.17 135.086 170.17> 621 75<196.879 200.898>
LayerCount: 2
Fore
SplineSet
39.4931640625 291.5 m 0
 24.5966796875 307.833007812 20.6123046875 331 27.5380859375 361 c 2
 34.6953125 392 l 1
 114.6953125 392 l 1
 109.154296875 368 l 2
 104.999023438 350 112.25390625 341 130.920898438 341 c 0
 142.25390625 341 150.459960938 343.333007812 155.537109375 348 c 0
 160.614257812 352.666992188 164.4609375 360.666992188 167.078125 372 c 2
 176.08203125 411 l 2
 179.313476562 425 179.455078125 435 176.5078125 441 c 0
 173.559570312 447 165.0859375 450 151.0859375 450 c 2
 135.0859375 450 l 1
 152.169921875 524 l 1
 170.169921875 524 l 2
 182.836914062 524 191.952148438 526.666992188 197.516601562 532 c 0
 203.081054688 537.333007812 207.249023438 546 210.01953125 558 c 2
 217.407226562 590 l 2
 219.870117188 600.666992188 219.510742188 608.5 216.33203125 613.5 c 0
 213.154296875 618.5 206.231445312 621 195.564453125 621 c 0
 176.897460938 621 165.486328125 612 161.330078125 594 c 2
 155.55859375 569 l 1
 75.55859375 569 l 1
 82.4853515625 599 l 2
 89.564453125 629.666992188 104.734375 653.5 127.9921875 670.5 c 0
 151.25 687.5 179.87890625 696 213.87890625 696 c 0
 249.211914062 696 274.416992188 687.5 289.4921875 670.5 c 0
 304.567382812 653.5 308.564453125 629.666992188 301.485351562 599 c 2
 293.635742188 565 l 2
 289.171875 545.666992188 282.50390625 530.5 273.630859375 519.5 c 0
 264.758789062 508.5 250.321289062 498.666992188 230.3203125 490 c 1
 247.140625 482 257.318359375 472.666992188 260.85546875 462 c 0
 264.393554688 451.333007812 263.853515625 436 259.236328125 416 c 2
 248.616210938 370 l 2
 240.920898438 336.666992188 225.366210938 311.166992188 201.955078125 293.5 c 0
 178.54296875 275.833007812 149.50390625 267 114.836914062 267 c 0
 79.50390625 267 54.388671875 275.166992188 39.4931640625 291.5 c 0
669.970703125 64 m 1
 640.970703125 64 l 1
 626.1953125 0 l 1
 544.1953125 0 l 1
 558.970703125 64 l 1
 420.970703125 64 l 1
 438.0546875 138 l 1
 593.466796875 417 l 1
 675.466796875 417 l 1
 521.0546875 138 l 1
 576.0546875 138 l 1
 594.754882812 219 l 1
 676.754882812 219 l 1
 658.0546875 138 l 1
 687.0546875 138 l 1
 669.970703125 64 l 1
541.340820312 698 m 1
 623.340820312 698 l 1
 202.1953125 0 l 1
 120.1953125 0 l 1
 541.340820312 698 l 1
EndSplineSet
Ligature2: "'frac' Diagonal Fractions lookup 2 subtable" three slash four
EndChar

StartChar: questiondown
Encoding: 191 191 128
Width: 376
GlyphClass: 2
Flags: MW
HStem: -168 105<77.6504 97.0767> 401 127<175.093 254.773 145.773 284.093>
VStem: 164.275 116<35 35>
LayerCount: 2
Fore
SplineSet
175.092773438 528 m 1
 284.092773438 528 l 1
 254.7734375 401 l 1
 145.7734375 401 l 1
 175.092773438 528 l 1
-41.9326171875 -124 m 0
 -64.828125 -94.6669921875 -70.2724609375 -54.0009765625 -58.267578125 -2.0009765625 c 0
 -52.1103515625 24.666015625 -43.9287109375 47.8330078125 -33.7216796875 67.5 c 0
 -23.513671875 87.1669921875 -6.4091796875 110 17.5927734375 136 c 2
 70.751953125 193 l 2
 86.6005859375 209.666992188 97.5244140625 224.5 103.526367188 237.5 c 0
 109.52734375 250.5 115.067382812 268 120.146484375 290 c 2
 129.381835938 330 l 1
 238.381835938 330 l 1
 229.146484375 290 l 2
 222.06640625 259.333007812 214.564453125 235.5 206.639648438 218.5 c 0
 198.71484375 201.5 182.520507812 179 158.055664062 151 c 2
 110.358398438 96 l 2
 95.84375 79.3330078125 85.046875 64.3330078125 77.96875 51 c 0
 70.890625 37.6669921875 64.9658203125 20.6669921875 60.1953125 0 c 0
 50.498046875 -42 61.650390625 -63 93.650390625 -63 c 0
 114.317382812 -63 129.176757812 -55.6669921875 138.229492188 -41 c 0
 147.282226562 -26.3330078125 155.963867188 -1 164.275390625 35 c 1
 280.275390625 35 l 1
 264.421875 -33.6669921875 239.48046875 -84.6669921875 205.452148438 -118 c 0
 171.423828125 -151.333007812 125.743164062 -168 68.41015625 -168 c 0
 17.7431640625 -168 -19.0380859375 -153.333007812 -41.9326171875 -124 c 0
EndSplineSet
EndChar

StartChar: Agrave
Encoding: 192 192 129
Width: 485
GlyphClass: 2
Flags: MW
HStem: 0 21G<-77.8047 50.1953 -77.8047 -77.8047 267.195 267.195 267.195 395.195> 134 110<157.526 270.131 109.131 273.526> 670 20G<258.494 378.494 378.494 378.494>
VStem: 270.131 125.064 280.17 98.3242
LayerCount: 2
Fore
SplineSet
270.130859375 134 m 1xf0
 109.130859375 134 l 1
 50.1953125 0 l 1
 -77.8046875 0 l 1
 258.494140625 690 l 1
 378.494140625 690 l 1xe8
 395.1953125 0 l 1
 267.1953125 0 l 1
 270.130859375 134 l 1xf0
273.526367188 244 m 1
 280.169921875 524 l 1
 157.526367188 244 l 1
 273.526367188 244 l 1
223.206054688 888 m 1
 346.206054688 888 l 1
 413.807617188 752 l 1
 314.807617188 752 l 1
 223.206054688 888 l 1
EndSplineSet
EndChar

StartChar: Aacute
Encoding: 193 193 130
Width: 485
GlyphClass: 2
Flags: MW
HStem: 0 21G<-77.8047 50.1953 -77.8047 -77.8047 267.195 267.195 267.195 395.195> 134 110<157.526 270.131 109.131 273.526> 670 20G<258.494 378.494 378.494 378.494>
VStem: 270.131 125.064 280.17 98.3242
LayerCount: 2
Fore
SplineSet
270.130859375 134 m 1xf0
 109.130859375 134 l 1
 50.1953125 0 l 1
 -77.8046875 0 l 1
 258.494140625 690 l 1
 378.494140625 690 l 1xe8
 395.1953125 0 l 1
 267.1953125 0 l 1
 270.130859375 134 l 1xf0
273.526367188 244 m 1
 280.169921875 524 l 1
 157.526367188 244 l 1
 273.526367188 244 l 1
382.206054688 888 m 1
 505.206054688 888 l 1
 350.807617188 752 l 1
 251.807617188 752 l 1
 382.206054688 888 l 1
EndSplineSet
EndChar

StartChar: Acircumflex
Encoding: 194 194 131
Width: 485
GlyphClass: 2
Flags: MW
HStem: 0 21G<-77.8047 50.1953 -77.8047 -77.8047 267.195 267.195 267.195 395.195> 134 110<157.526 270.131 109.131 273.526> 670 20G<258.494 378.494 378.494 378.494>
VStem: 270.131 125.064 280.17 98.3242
LayerCount: 2
Fore
SplineSet
270.130859375 134 m 1xf0
 109.130859375 134 l 1
 50.1953125 0 l 1
 -77.8046875 0 l 1
 258.494140625 690 l 1
 378.494140625 690 l 1xe8
 395.1953125 0 l 1
 267.1953125 0 l 1
 270.130859375 134 l 1xf0
273.526367188 244 m 1
 280.169921875 524 l 1
 157.526367188 244 l 1
 273.526367188 244 l 1
322.590820312 894 m 1
 405.590820312 894 l 1
 474.422851562 746 l 1
 387.422851562 746 l 1
 349.891601562 826 l 1
 274.422851562 746 l 1
 187.422851562 746 l 1
 322.590820312 894 l 1
EndSplineSet
EndChar

StartChar: Atilde
Encoding: 195 195 132
Width: 485
GlyphClass: 2
Flags: MW
HStem: 0 21G<-77.8047 50.1953 -77.8047 -77.8047 267.195 267.195 267.195 395.195> 134 110<157.526 270.131 109.131 273.526> 670 20G<258.494 378.494 378.494 378.494> 754.999 90<374.833 410.612> 789.999 90<285.247 320.692>
VStem: 270.131 125.064 280.17 98.3242
LayerCount: 2
Fore
SplineSet
270.130859375 134 m 1xe4
 109.130859375 134 l 1
 50.1953125 0 l 1
 -77.8046875 0 l 1
 258.494140625 690 l 1
 378.494140625 690 l 1xe2
 395.1953125 0 l 1
 267.1953125 0 l 1
 270.130859375 134 l 1xe4
273.526367188 244 m 1
 280.169921875 524 l 1
 157.526367188 244 l 1
 273.526367188 244 l 1
241.047851562 844 m 1
 257.612304688 858 270.97265625 867.499023438 281.126953125 872.499023438 c 0
 291.28125 877.499023438 302.69140625 879.999023438 315.358398438 879.999023438 c 0xe8
 326.025390625 879.999023438 334.973632812 878.33203125 342.204101562 874.999023438 c 0
 349.434570312 871.666015625 356.690429688 866.999023438 363.971679688 860.999023438 c 0
 372.586914062 854.999023438 379.625 850.83203125 385.0859375 848.499023438 c 0
 390.547851562 846.166015625 397.278320312 844.999023438 405.278320312 844.999023438 c 0
 415.9453125 844.999023438 425.522460938 847.499023438 434.009765625 852.499023438 c 0
 442.499023438 857.499023438 456.255859375 867.999023438 475.282226562 883.999023438 c 1
 454.041992188 791.999023438 l 1
 438.143554688 777.999023438 425.244140625 768.33203125 415.346679688 762.999023438 c 0
 405.44921875 757.666015625 393.833007812 754.999023438 380.5 754.999023438 c 0xf0
 369.166992188 754.999023438 360.21875 756.666015625 353.655273438 759.999023438 c 0
 347.091796875 763.33203125 339.501953125 767.999023438 330.887695312 773.999023438 c 0
 322.786132812 779.33203125 316.208984375 783.33203125 311.158203125 785.999023438 c 0
 306.106445312 788.666015625 299.247070312 789.999023438 290.580078125 789.999023438 c 0xe8
 279.913085938 789.999023438 269.797851562 787.33203125 260.233398438 781.999023438 c 0
 250.66796875 776.66015625 237.115234375 766.327148438 219.577148438 751 c 1
 241.047851562 844 l 1
EndSplineSet
EndChar

StartChar: Adieresis
Encoding: 196 196 133
Width: 485
GlyphClass: 2
Flags: MW
HStem: 0 21G<-77.8047 50.1953 -77.8047 -77.8047 267.195 267.195 267.195 395.195> 134 110<157.526 270.131 109.131 273.526> 670 20G<258.494 378.494 378.494 378.494> 753 114<234.357 301.039 208.039 327.357 234.357 364.039 390.357 457.039>
VStem: 270.131 125.064 280.17 98.3242
LayerCount: 2
Fore
SplineSet
270.130859375 134 m 1xf8
 109.130859375 134 l 1
 50.1953125 0 l 1
 -77.8046875 0 l 1
 258.494140625 690 l 1
 378.494140625 690 l 1xf4
 395.1953125 0 l 1
 267.1953125 0 l 1
 270.130859375 134 l 1xf8
273.526367188 244 m 1
 280.169921875 524 l 1
 157.526367188 244 l 1
 273.526367188 244 l 1
234.357421875 867 m 1
 327.357421875 867 l 1
 301.0390625 753 l 1
 208.0390625 753 l 1
 234.357421875 867 l 1
390.357421875 867 m 1
 483.357421875 867 l 1
 457.0390625 753 l 1
 364.0390625 753 l 1
 390.357421875 867 l 1
EndSplineSet
EndChar

StartChar: Aring
Encoding: 197 197 134
Width: 485
GlyphClass: 2
Flags: MW
HStem: 0.000976562 21G<-77.8047 50.1953 -77.8047 -77.8047> 134.001 110<109.132 273.525> 809.001 49.001<343.947 352.3>
VStem: 270.131 125.064 280.168 98.3262
LayerCount: 2
Fore
SplineSet
270.130859375 134 m 1xf0
 109.131835938 134.000976562 l 1
 50.1953125 0.0009765625 l 1
 -77.8046875 0.0009765625 l 1
 258.494140625 690.000976562 l 1
 249.828125 698.66796875 243.958007812 709.334960938 240.881835938 722.000976562 c 0
 237.806640625 734.670898438 237.961914062 748.337890625 241.34765625 763.001953125 c 0
 247.658203125 790.334960938 261.891601562 813.001953125 284.046875 831.001953125 c 0
 306.202148438 849.001953125 330.61328125 858.001953125 357.280273438 858.001953125 c 0
 383.947265625 858.001953125 404.202148438 849.001953125 418.046875 831.001953125 c 0
 431.891601562 813.001953125 435.658203125 790.334960938 429.34765625 763.001953125 c 0
 425.961914062 748.334960938 419.806640625 734.66796875 410.881835938 722.000976562 c 0
 401.95703125 709.333984375 391.162109375 698.666992188 378.494140625 690 c 1xe8
 395.1953125 0 l 1
 267.1953125 0 l 1
 270.130859375 134 l 1xf0
310.465820312 796.000976562 m 0
 300.131835938 787.333984375 293.423828125 776.333984375 290.345703125 763.000976562 c 0
 287.420898438 750.333984375 289.291015625 739.666992188 295.958007812 731 c 0
 302.624023438 722.333007812 312.290039062 718 324.95703125 718 c 0
 337.624023438 718 349.125 722.333007812 359.458984375 731 c 0
 369.79296875 739.669921875 376.422851562 750.336914062 379.346679688 763.000976562 c 0
 382.424804688 776.333984375 380.796875 787.333984375 374.46484375 796.000976562 c 0
 368.1328125 804.66796875 358.633789062 809.000976562 345.966796875 809.000976562 c 0
 332.633789062 809.000976562 320.799804688 804.66796875 310.465820312 796.000976562 c 0
273.525390625 244.000976562 m 1
 280.16796875 524.000976562 l 1
 157.525390625 244.000976562 l 1
 273.525390625 244.000976562 l 1
339.643554688 669.000976562 m 1024
EndSplineSet
EndChar

StartChar: AE
Encoding: 198 198 135
Width: 679
GlyphClass: 2
Flags: MW
HStem: 0 110<410.591 570.195> 133 110<195.296 292.9 129.9 318.296> 296 110<478.928 613.532 453.532 638.928> 579 111<518.867 518.867 518.867 703.867>
LayerCount: 2
Fore
SplineSet
518.8671875 579 m 1
 478.927734375 406 l 1
 638.927734375 406 l 1
 613.532226562 296 l 1
 453.532226562 296 l 1
 410.590820312 110 l 1
 595.590820312 110 l 1
 570.1953125 0 l 1
 262.1953125 0 l 1
 292.900390625 133 l 1
 129.900390625 133 l 1
 50.1953125 0 l 1
 -77.8046875 0 l 1
 341.494140625 690 l 1
 729.494140625 690 l 1
 703.8671875 579 l 1
 518.8671875 579 l 1
318.295898438 243 m 1
 396.098632812 580 l 1
 195.295898438 243 l 1
 318.295898438 243 l 1
EndSplineSet
EndChar

StartChar: Ccedilla
Encoding: 199 199 136
Width: 468
GlyphClass: 2
Flags: MW
HStem: -158 21G<14.7188 116.719 14.7188 14.7188> 589 111<285.804 298.177>
LayerCount: 2
Fore
SplineSet
333.319335938 477 m 1
 337.9375 497 l 2
 345.170898438 528.333007812 344.01953125 551.5 334.482421875 566.5 c 0
 324.9453125 581.5 309.176757812 589 287.176757812 589 c 0
 261.176757812 589 240.266601562 580 224.443359375 562 c 0
 208.62109375 544 196.5546875 517 188.243164062 481 c 2
 124.29296875 204 l 2
 108.748046875 136.666992188 125.642578125 103 174.975585938 103 c 0
 196.975585938 103 216.245117188 110.666992188 232.78515625 126 c 0
 249.325195312 141.333007812 261.05859375 164 267.984375 194 c 2
 272.139648438 212 l 1
 394.139648438 212 l 1
 389.752929688 193 l 2
 377.286132812 139 354.987304688 95.8330078125 322.85546875 63.5 c 0
 290.724609375 31.1669921875 252.427734375 9.6669921875 207.96484375 -1 c 1
 116.71875 -158 l 1
 14.71875 -158 l 1
 115.810546875 -6 l 1
 66.375 -0.6669921875 30.966796875 18.5 9.5859375 51.5 c 0
 -11.7958984375 84.5 -15.6376953125 130.666992188 -1.939453125 190 c 2
 69.8603515625 501 l 2
 84.9443359375 566.333007812 114.705078125 615.833007812 159.14453125 649.5 c 0
 203.583984375 683.166992188 255.803710938 700 315.803710938 700 c 0
 373.13671875 700 415.622070312 683.333007812 443.258789062 650 c 0
 470.896484375 616.666992188 476.866210938 566 461.166992188 498 c 2
 456.319335938 477 l 1
 333.319335938 477 l 1
EndSplineSet
EndChar

StartChar: Egrave
Encoding: 200 200 137
Width: 375
GlyphClass: 2
Flags: MW
HStem: 0 110<105.591 266.195> 296 110<173.928 308.532 148.532 333.928> 579 111<213.867 213.867 213.867 399.867>
LayerCount: 2
Fore
SplineSet
213.8671875 579 m 1
 173.927734375 406 l 1
 333.927734375 406 l 1
 308.532226562 296 l 1
 148.532226562 296 l 1
 105.590820312 110 l 1
 291.590820312 110 l 1
 266.1953125 0 l 1
 -41.8046875 0 l 1
 117.494140625 690 l 1
 425.494140625 690 l 1
 399.8671875 579 l 1
 213.8671875 579 l 1
180.206054688 888 m 1
 303.206054688 888 l 1
 370.807617188 752 l 1
 271.807617188 752 l 1
 180.206054688 888 l 1
EndSplineSet
EndChar

StartChar: Eacute
Encoding: 201 201 138
Width: 375
GlyphClass: 2
Flags: MW
HStem: 0 110<105.591 266.195> 296 110<173.928 308.532 148.532 333.928> 579 111<213.867 213.867 213.867 399.867>
LayerCount: 2
Fore
SplineSet
213.8671875 579 m 1
 173.927734375 406 l 1
 333.927734375 406 l 1
 308.532226562 296 l 1
 148.532226562 296 l 1
 105.590820312 110 l 1
 291.590820312 110 l 1
 266.1953125 0 l 1
 -41.8046875 0 l 1
 117.494140625 690 l 1
 425.494140625 690 l 1
 399.8671875 579 l 1
 213.8671875 579 l 1
339.206054688 888 m 1
 462.206054688 888 l 1
 307.807617188 752 l 1
 208.807617188 752 l 1
 339.206054688 888 l 1
EndSplineSet
EndChar

StartChar: Ecircumflex
Encoding: 202 202 139
Width: 375
GlyphClass: 2
Flags: MW
HStem: 0 110<105.591 266.195> 296 110<173.928 308.532 148.532 333.928> 579 111<213.867 213.867 213.867 399.867>
LayerCount: 2
Fore
SplineSet
213.8671875 579 m 1
 173.927734375 406 l 1
 333.927734375 406 l 1
 308.532226562 296 l 1
 148.532226562 296 l 1
 105.590820312 110 l 1
 291.590820312 110 l 1
 266.1953125 0 l 1
 -41.8046875 0 l 1
 117.494140625 690 l 1
 425.494140625 690 l 1
 399.8671875 579 l 1
 213.8671875 579 l 1
279.590820312 894 m 1
 362.590820312 894 l 1
 431.422851562 746 l 1
 344.422851562 746 l 1
 306.891601562 826 l 1
 231.422851562 746 l 1
 144.422851562 746 l 1
 279.590820312 894 l 1
EndSplineSet
EndChar

StartChar: Edieresis
Encoding: 203 203 140
Width: 375
GlyphClass: 2
Flags: MW
HStem: 0 110<105.591 266.195> 296 110<173.928 308.532 148.532 333.928> 579 111<213.867 213.867 213.867 399.867> 753 114<191.357 258.039 165.039 284.357 191.357 321.039 347.357 414.039>
LayerCount: 2
Fore
SplineSet
213.8671875 579 m 1
 173.927734375 406 l 1
 333.927734375 406 l 1
 308.532226562 296 l 1
 148.532226562 296 l 1
 105.590820312 110 l 1
 291.590820312 110 l 1
 266.1953125 0 l 1
 -41.8046875 0 l 1
 117.494140625 690 l 1
 425.494140625 690 l 1
 399.8671875 579 l 1
 213.8671875 579 l 1
191.357421875 867 m 1
 284.357421875 867 l 1
 258.0390625 753 l 1
 165.0390625 753 l 1
 191.357421875 867 l 1
347.357421875 867 m 1
 440.357421875 867 l 1
 414.0390625 753 l 1
 321.0390625 753 l 1
 347.357421875 867 l 1
EndSplineSet
EndChar

StartChar: Igrave
Encoding: 204 204 141
Width: 214
GlyphClass: 2
Flags: MW
HStem: 0 21G<-37.8047 84.1953 -37.8047 -37.8047> 670 20G<121.494 243.494 243.494 243.494>
VStem: -37.8047 315.612
LayerCount: 2
Fore
SplineSet
121.494140625 690 m 1
 243.494140625 690 l 1
 84.1953125 0 l 1
 -37.8046875 0 l 1
 121.494140625 690 l 1
87.2060546875 888 m 1
 210.206054688 888 l 1
 277.807617188 752 l 1
 178.807617188 752 l 1
 87.2060546875 888 l 1
EndSplineSet
EndChar

StartChar: Iacute
Encoding: 205 205 142
Width: 214
GlyphClass: 2
Flags: MW
HStem: 0 21G<-37.8047 84.1953 -37.8047 -37.8047> 670 20G<121.494 243.494 243.494 243.494>
LayerCount: 2
Fore
SplineSet
121.494140625 690 m 1
 243.494140625 690 l 1
 84.1953125 0 l 1
 -37.8046875 0 l 1
 121.494140625 690 l 1
246.206054688 888 m 1
 369.206054688 888 l 1
 214.807617188 752 l 1
 115.807617188 752 l 1
 246.206054688 888 l 1
EndSplineSet
EndChar

StartChar: Icircumflex
Encoding: 206 206 143
Width: 214
GlyphClass: 2
Flags: MW
HStem: 0 21G<-37.8047 84.1953 -37.8047 -37.8047> 670 20G<121.494 243.494 243.494 243.494>
LayerCount: 2
Fore
SplineSet
121.494140625 690 m 1
 243.494140625 690 l 1
 84.1953125 0 l 1
 -37.8046875 0 l 1
 121.494140625 690 l 1
186.590820312 894 m 1
 269.590820312 894 l 1
 338.422851562 746 l 1
 251.422851562 746 l 1
 213.891601562 826 l 1
 138.422851562 746 l 1
 51.4228515625 746 l 1
 186.590820312 894 l 1
EndSplineSet
EndChar

StartChar: Idieresis
Encoding: 207 207 144
Width: 214
GlyphClass: 2
Flags: MW
HStem: 0 21G<-37.8047 84.1953 -37.8047 -37.8047> 670 20G<121.494 243.494 243.494 243.494> 753 114<98.3574 165.039 72.0391 191.357 98.3574 228.039 254.357 321.039>
LayerCount: 2
Fore
SplineSet
121.494140625 690 m 1
 243.494140625 690 l 1
 84.1953125 0 l 1
 -37.8046875 0 l 1
 121.494140625 690 l 1
98.357421875 867 m 1
 191.357421875 867 l 1
 165.0390625 753 l 1
 72.0390625 753 l 1
 98.357421875 867 l 1
254.357421875 867 m 1
 347.357421875 867 l 1
 321.0390625 753 l 1
 228.0390625 753 l 1
 254.357421875 867 l 1
EndSplineSet
EndChar

StartChar: Eth
Encoding: 208 208 145
Width: 483
GlyphClass: 2
Flags: MW
HStem: 0 110.001<125.591 163.195> 300.001 110<194.851 255.455 169.455 280.851> 579.001 110.999<233.868 299.868 233.868 233.868>
LayerCount: 2
Fore
SplineSet
456.450195312 640 m 0
 483.754882812 606.666015625 489.865234375 557.333984375 474.782226562 492.000976562 c 2
 406.907226562 198.000976562 l 2
 391.977539062 133.333984375 362.29296875 84.1669921875 317.853515625 50.5 c 0
 273.4140625 16.8330078125 221.861328125 0 163.1953125 0 c 2
 -21.8046875 0 l 1
 47.455078125 300 l 1
 5.455078125 300 l 1
 30.8505859375 410 l 1
 72.8505859375 410 l 1
 137.494140625 690 l 1
 328.494140625 690 l 2
 386.494140625 690 429.146484375 673.333007812 456.450195312 640 c 0
346.93359375 471.000976562 m 2
 355.090820312 506.333984375 355.286132812 533.16796875 347.518554688 551.500976562 c 0
 339.750976562 569.833984375 323.868164062 579.000976562 299.868164062 579.000976562 c 2
 233.868164062 579.000976562 l 1
 194.850585938 410.000976562 l 1
 280.850585938 410.000976562 l 1
 255.455078125 300.000976562 l 1
 169.455078125 300.000976562 l 1
 125.590820312 110.000976562 l 1
 191.590820312 110.000976562 l 2
 214.924804688 110.000976562 234.834960938 119.000976562 251.32421875 137.000976562 c 0
 267.8125 155.000976562 279.750976562 180.000976562 287.138671875 212.000976562 c 2
 346.93359375 471.000976562 l 2
EndSplineSet
EndChar

StartChar: Ntilde
Encoding: 209 209 146
Width: 474
GlyphClass: 2
Flags: MW
HStem: 0 21G<-41.8047 81.1953 -41.8047 -41.8047 225.195 348.195 225.195 225.195> 670 20G<117.494 240.494 240.494 240.494 384.494 507.494 507.494 507.494> 754.999 90<368.833 404.612> 789.999 90<279.247 314.692>
LayerCount: 2
Fore
SplineSet
507.494140625 690 m 1xc0
 348.1953125 0 l 1
 225.1953125 0 l 1
 166.154296875 368 l 1
 81.1953125 0 l 1
 -41.8046875 0 l 1
 117.494140625 690 l 1
 240.494140625 690 l 1
 295.840820312 306 l 1
 384.494140625 690 l 1
 507.494140625 690 l 1xc0
235.047851562 844 m 1
 251.612304688 858 264.97265625 867.499023438 275.126953125 872.499023438 c 0
 285.28125 877.499023438 296.69140625 879.999023438 309.358398438 879.999023438 c 0xd0
 320.025390625 879.999023438 328.973632812 878.33203125 336.204101562 874.999023438 c 0
 343.434570312 871.666015625 350.690429688 866.999023438 357.971679688 860.999023438 c 0
 366.586914062 854.999023438 373.625 850.83203125 379.0859375 848.499023438 c 0
 384.547851562 846.166015625 391.278320312 844.999023438 399.278320312 844.999023438 c 0
 409.9453125 844.999023438 419.522460938 847.499023438 428.009765625 852.499023438 c 0
 436.498046875 857.499023438 450.254882812 867.999023438 469.282226562 883.999023438 c 1
 448.041992188 791.999023438 l 1
 432.142578125 777.999023438 419.243164062 768.33203125 409.346679688 762.999023438 c 0
 399.44921875 757.666015625 387.833007812 754.999023438 374.5 754.999023438 c 0xe0
 363.166992188 754.999023438 354.21875 756.666015625 347.655273438 759.999023438 c 0
 341.091796875 763.33203125 333.501953125 767.999023438 324.887695312 773.999023438 c 0
 316.786132812 779.33203125 310.208984375 783.33203125 305.158203125 785.999023438 c 0
 300.106445312 788.666015625 293.247070312 789.999023438 284.580078125 789.999023438 c 0xd0
 273.913085938 789.999023438 263.797851562 787.33203125 254.233398438 781.999023438 c 0
 244.66796875 776.66015625 231.115234375 766.327148438 213.577148438 751 c 1
 235.047851562 844 l 1
EndSplineSet
EndChar

StartChar: Ograve
Encoding: 210 210 147
Width: 468
GlyphClass: 2
Flags: MW
HStem: -8 110.999<150.307 174.681> 588.999 111.001<285.803 299.176>
LayerCount: 2
Fore
SplineSet
16.0068359375 42.5 m 0
 -10.8876953125 76.1669921875 -16.8701171875 125.333007812 -1.9404296875 190 c 2
 69.859375 501 l 2
 84.943359375 566.333007812 114.704101562 615.833007812 159.143554688 649.5 c 0
 203.583007812 683.166992188 255.802734375 700 315.802734375 700 c 0
 373.802734375 700 416.416015625 683.166992188 443.643554688 649.5 c 0
 470.87109375 615.833007812 476.943359375 566.333007812 461.859375 501 c 2
 390.059570312 190 l 2
 375.284179688 126 345.471679688 77 300.622070312 43 c 0
 255.772460938 9 204.014648438 -8 145.34765625 -8 c 0
 86.0146484375 -8 42.9013671875 8.8330078125 16.0068359375 42.5 c 0
234.591796875 129.499023438 m 0
 251.00390625 147.166015625 262.904296875 172 270.291992188 204 c 2
 334.2421875 481 l 2
 342.399414062 516.333007812 342.594726562 543.166015625 334.827148438 561.499023438 c 0
 327.059570312 579.83203125 311.17578125 588.999023438 287.17578125 588.999023438 c 0
 261.17578125 588.999023438 240.265625 579.999023438 224.442382812 561.999023438 c 0
 208.620117188 543.999023438 196.553710938 516.999023438 188.2421875 480.999023438 c 2
 124.291992188 203.999023438 l 2
 108.747070312 136.666015625 125.640625 102.999023438 174.973632812 102.999023438 c 0
 198.307617188 102.999023438 218.180664062 111.83203125 234.591796875 129.499023438 c 0
214.206054688 888 m 1
 337.206054688 888 l 1
 404.807617188 752 l 1
 305.807617188 752 l 1
 214.206054688 888 l 1
EndSplineSet
EndChar

StartChar: Oacute
Encoding: 211 211 148
Width: 468
GlyphClass: 2
Flags: MW
HStem: -8 110.999<150.307 174.681> 588.999 111.001<285.803 299.176>
LayerCount: 2
Fore
SplineSet
16.0068359375 42.5 m 0
 -10.8876953125 76.1669921875 -16.8701171875 125.333007812 -1.9404296875 190 c 2
 69.859375 501 l 2
 84.943359375 566.333007812 114.704101562 615.833007812 159.143554688 649.5 c 0
 203.583007812 683.166992188 255.802734375 700 315.802734375 700 c 0
 373.802734375 700 416.416015625 683.166992188 443.643554688 649.5 c 0
 470.87109375 615.833007812 476.943359375 566.333007812 461.859375 501 c 2
 390.059570312 190 l 2
 375.284179688 126 345.471679688 77 300.622070312 43 c 0
 255.772460938 9 204.014648438 -8 145.34765625 -8 c 0
 86.0146484375 -8 42.9013671875 8.8330078125 16.0068359375 42.5 c 0
234.591796875 129.499023438 m 0
 251.00390625 147.166015625 262.904296875 172 270.291992188 204 c 2
 334.2421875 481 l 2
 342.399414062 516.333007812 342.594726562 543.166015625 334.827148438 561.499023438 c 0
 327.059570312 579.83203125 311.17578125 588.999023438 287.17578125 588.999023438 c 0
 261.17578125 588.999023438 240.265625 579.999023438 224.442382812 561.999023438 c 0
 208.620117188 543.999023438 196.553710938 516.999023438 188.2421875 480.999023438 c 2
 124.291992188 203.999023438 l 2
 108.747070312 136.666015625 125.640625 102.999023438 174.973632812 102.999023438 c 0
 198.307617188 102.999023438 218.180664062 111.83203125 234.591796875 129.499023438 c 0
373.206054688 888 m 1
 496.206054688 888 l 1
 341.807617188 752 l 1
 242.807617188 752 l 1
 373.206054688 888 l 1
EndSplineSet
EndChar

StartChar: Ocircumflex
Encoding: 212 212 149
Width: 468
GlyphClass: 2
Flags: MW
HStem: -8 110.999<150.307 174.681> 588.999 111.001<285.803 299.176>
LayerCount: 2
Fore
SplineSet
16.0068359375 42.5 m 0
 -10.8876953125 76.1669921875 -16.8701171875 125.333007812 -1.9404296875 190 c 2
 69.859375 501 l 2
 84.943359375 566.333007812 114.704101562 615.833007812 159.143554688 649.5 c 0
 203.583007812 683.166992188 255.802734375 700 315.802734375 700 c 0
 373.802734375 700 416.416015625 683.166992188 443.643554688 649.5 c 0
 470.87109375 615.833007812 476.943359375 566.333007812 461.859375 501 c 2
 390.059570312 190 l 2
 375.284179688 126 345.471679688 77 300.622070312 43 c 0
 255.772460938 9 204.014648438 -8 145.34765625 -8 c 0
 86.0146484375 -8 42.9013671875 8.8330078125 16.0068359375 42.5 c 0
234.591796875 129.499023438 m 0
 251.00390625 147.166015625 262.904296875 172 270.291992188 204 c 2
 334.2421875 481 l 2
 342.399414062 516.333007812 342.594726562 543.166015625 334.827148438 561.499023438 c 0
 327.059570312 579.83203125 311.17578125 588.999023438 287.17578125 588.999023438 c 0
 261.17578125 588.999023438 240.265625 579.999023438 224.442382812 561.999023438 c 0
 208.620117188 543.999023438 196.553710938 516.999023438 188.2421875 480.999023438 c 2
 124.291992188 203.999023438 l 2
 108.747070312 136.666015625 125.640625 102.999023438 174.973632812 102.999023438 c 0
 198.307617188 102.999023438 218.180664062 111.83203125 234.591796875 129.499023438 c 0
313.590820312 894 m 1
 396.590820312 894 l 1
 465.422851562 746 l 1
 378.422851562 746 l 1
 340.891601562 826 l 1
 265.422851562 746 l 1
 178.422851562 746 l 1
 313.590820312 894 l 1
EndSplineSet
EndChar

StartChar: Otilde
Encoding: 213 213 150
Width: 468
GlyphClass: 2
Flags: MW
HStem: -8 110.999<150.307 174.681> 588.999 111.001<285.803 299.176> 754.999 90<365.833 401.612> 789.999 90<276.247 311.692>
LayerCount: 2
Fore
SplineSet
16.0068359375 42.5 m 0xc0
 -10.8876953125 76.1669921875 -16.8701171875 125.333007812 -1.9404296875 190 c 2
 69.859375 501 l 2
 84.943359375 566.333007812 114.704101562 615.833007812 159.143554688 649.5 c 0
 203.583007812 683.166992188 255.802734375 700 315.802734375 700 c 0
 373.802734375 700 416.416015625 683.166992188 443.643554688 649.5 c 0
 470.87109375 615.833007812 476.943359375 566.333007812 461.859375 501 c 2
 390.059570312 190 l 2
 375.284179688 126 345.471679688 77 300.622070312 43 c 0
 255.772460938 9 204.014648438 -8 145.34765625 -8 c 0
 86.0146484375 -8 42.9013671875 8.8330078125 16.0068359375 42.5 c 0xc0
234.591796875 129.499023438 m 0
 251.00390625 147.166015625 262.904296875 172 270.291992188 204 c 2
 334.2421875 481 l 2
 342.399414062 516.333007812 342.594726562 543.166015625 334.827148438 561.499023438 c 0
 327.059570312 579.83203125 311.17578125 588.999023438 287.17578125 588.999023438 c 0
 261.17578125 588.999023438 240.265625 579.999023438 224.442382812 561.999023438 c 0
 208.620117188 543.999023438 196.553710938 516.999023438 188.2421875 480.999023438 c 2
 124.291992188 203.999023438 l 2
 108.747070312 136.666015625 125.640625 102.999023438 174.973632812 102.999023438 c 0
 198.307617188 102.999023438 218.180664062 111.83203125 234.591796875 129.499023438 c 0
232.047851562 844 m 1
 248.612304688 858 261.97265625 867.499023438 272.126953125 872.499023438 c 0
 282.28125 877.499023438 293.69140625 879.999023438 306.358398438 879.999023438 c 0xd0
 317.025390625 879.999023438 325.973632812 878.33203125 333.204101562 874.999023438 c 0
 340.434570312 871.666015625 347.690429688 866.999023438 354.971679688 860.999023438 c 0
 363.586914062 854.999023438 370.625 850.83203125 376.0859375 848.499023438 c 0
 381.547851562 846.166015625 388.278320312 844.999023438 396.278320312 844.999023438 c 0
 406.9453125 844.999023438 416.522460938 847.499023438 425.009765625 852.499023438 c 0
 433.499023438 857.499023438 447.255859375 867.999023438 466.282226562 883.999023438 c 1
 445.041992188 791.999023438 l 1
 429.143554688 777.999023438 416.244140625 768.33203125 406.346679688 762.999023438 c 0
 396.44921875 757.666015625 384.833007812 754.999023438 371.5 754.999023438 c 0xe0
 360.166992188 754.999023438 351.21875 756.666015625 344.655273438 759.999023438 c 0
 338.091796875 763.33203125 330.501953125 767.999023438 321.887695312 773.999023438 c 0
 313.786132812 779.33203125 307.208984375 783.33203125 302.158203125 785.999023438 c 0
 297.106445312 788.666015625 290.247070312 789.999023438 281.580078125 789.999023438 c 0xd0
 270.913085938 789.999023438 260.797851562 787.33203125 251.233398438 781.999023438 c 0
 241.66796875 776.66015625 228.115234375 766.327148438 210.577148438 751 c 1
 232.047851562 844 l 1
EndSplineSet
EndChar

StartChar: Odieresis
Encoding: 214 214 151
Width: 468
GlyphClass: 2
Flags: MW
HStem: -8 110.999<150.307 174.681> 588.999 111.001<285.803 299.176> 753 114<225.357 292.039 199.039 318.357 225.357 355.039 381.357 448.039>
LayerCount: 2
Fore
SplineSet
16.0068359375 42.5 m 0
 -10.8876953125 76.1669921875 -16.8701171875 125.333007812 -1.9404296875 190 c 2
 69.859375 501 l 2
 84.943359375 566.333007812 114.704101562 615.833007812 159.143554688 649.5 c 0
 203.583007812 683.166992188 255.802734375 700 315.802734375 700 c 0
 373.802734375 700 416.416015625 683.166992188 443.643554688 649.5 c 0
 470.87109375 615.833007812 476.943359375 566.333007812 461.859375 501 c 2
 390.059570312 190 l 2
 375.284179688 126 345.471679688 77 300.622070312 43 c 0
 255.772460938 9 204.014648438 -8 145.34765625 -8 c 0
 86.0146484375 -8 42.9013671875 8.8330078125 16.0068359375 42.5 c 0
234.591796875 129.499023438 m 0
 251.00390625 147.166015625 262.904296875 172 270.291992188 204 c 2
 334.2421875 481 l 2
 342.399414062 516.333007812 342.594726562 543.166015625 334.827148438 561.499023438 c 0
 327.059570312 579.83203125 311.17578125 588.999023438 287.17578125 588.999023438 c 0
 261.17578125 588.999023438 240.265625 579.999023438 224.442382812 561.999023438 c 0
 208.620117188 543.999023438 196.553710938 516.999023438 188.2421875 480.999023438 c 2
 124.291992188 203.999023438 l 2
 108.747070312 136.666015625 125.640625 102.999023438 174.973632812 102.999023438 c 0
 198.307617188 102.999023438 218.180664062 111.83203125 234.591796875 129.499023438 c 0
225.357421875 867 m 1
 318.357421875 867 l 1
 292.0390625 753 l 1
 199.0390625 753 l 1
 225.357421875 867 l 1
381.357421875 867 m 1
 474.357421875 867 l 1
 448.0390625 753 l 1
 355.0390625 753 l 1
 381.357421875 867 l 1
EndSplineSet
EndChar

StartChar: multiply
Encoding: 215 215 152
Width: 419
GlyphClass: 2
Flags: W
LayerCount: 2
Fore
SplineSet
-0.017578125 181 m 1
 116.9140625 276 l 1
 43.6162109375 370 l 1
 133.469726562 443 l 1
 206.767578125 349 l 1
 322.469726562 443 l 1
 378.616210938 370 l 1
 262.9140625 276 l 1
 334.982421875 181 l 1
 245.12890625 108 l 1
 173.061523438 203 l 1
 56.12890625 108 l 1
 -0.017578125 181 l 1
EndSplineSet
EndChar

StartChar: Oslash
Encoding: 216 216 153
Width: 468
GlyphClass: 2
Flags: MW
HStem: -8 111<159.307 174.68> 589 111<285.803 301.841>
LayerCount: 2
Fore
SplineSet
454.333984375 633 m 1
 471.818359375 599 474.326171875 555 461.858398438 501 c 2
 390.05859375 190 l 2
 375.283203125 126 345.470703125 77 300.62109375 43 c 0
 255.771484375 9 204.013671875 -8 145.346679688 -8 c 0
 100.013671875 -8 63.9892578125 2 37.2744140625 22 c 1
 8.5771484375 -20 l 1
 -50.4228515625 -20 l 1
 4.27734375 61 l 1
 -12.1806640625 93.6669921875 -14.2529296875 136.666992188 -1.9404296875 190 c 2
 69.859375 501 l 2
 84.943359375 566.333007812 114.704101562 615.833007812 159.143554688 649.5 c 0
 203.583007812 683.166992188 255.802734375 700 315.802734375 700 c 0
 360.469726562 700 395.5703125 690.333007812 421.107421875 671 c 1
 452.958007812 718 l 1
 511.958007812 718 l 1
 454.333984375 633 l 1
135.603515625 253 m 1
 338.170898438 550 l 1
 333.506835938 576 316.5078125 589 287.174804688 589 c 0
 261.174804688 589 240.264648438 580 224.44140625 562 c 0
 208.619140625 544 196.552734375 517 188.241210938 481 c 2
 135.603515625 253 l 1
325.930664062 445 m 1
 120.439453125 144 l 1
 125.462890625 116.666992188 143.640625 103 174.973632812 103 c 0
 198.307617188 103 218.1796875 111.833007812 234.590820312 129.5 c 0
 251.002929688 147.166992188 262.903320312 172 270.291015625 204 c 2
 325.930664062 445 l 1
EndSplineSet
EndChar

StartChar: Ugrave
Encoding: 217 217 154
Width: 460
GlyphClass: 2
Flags: MW
HStem: -8 111.001<158.975 162.348> 670.001 20G<117.494 240.494 240.494 240.494 370.494 493.494 493.494 493.494>
LayerCount: 2
Fore
SplineSet
53.2734375 15.5 m 0
 28.5576171875 31.1669921875 11.3408203125 53.333984375 1.6259765625 82.0009765625 c 0
 -8.0888671875 110.66796875 -8.63671875 143.66796875 -0.017578125 181.000976562 c 2
 117.494140625 690.000976562 l 1
 240.494140625 690.000976562 l 1
 123.674804688 184.000976562 l 2
 117.2109375 156.000976562 117.810546875 135.500976562 125.4765625 122.500976562 c 0
 133.142578125 109.500976562 147.974609375 103.000976562 169.974609375 103.000976562 c 0
 213.307617188 103.000976562 241.208007812 130.000976562 253.674804688 184.000976562 c 2
 370.494140625 690.000976562 l 1
 493.494140625 690.000976562 l 1
 375.982421875 181.000976562 l 2
 367.36328125 143.66796875 351.744140625 110.66796875 329.125976562 82.0009765625 c 0
 306.5078125 53.333984375 279.057617188 31.1669921875 246.7734375 15.5 c 0
 214.489257812 -0.1669921875 180.34765625 -8 144.34765625 -8 c 0
 108.34765625 -8 77.9892578125 -0.1669921875 53.2734375 15.5 c 0
210.205078125 888 m 1
 333.205078125 888 l 1
 400.806640625 752 l 1
 301.806640625 752 l 1
 210.205078125 888 l 1
EndSplineSet
EndChar

StartChar: Uacute
Encoding: 218 218 155
Width: 460
GlyphClass: 2
Flags: MW
HStem: -8 111.001<158.975 162.348> 670.001 20G<117.494 240.494 240.494 240.494 370.494 493.494 493.494 493.494>
LayerCount: 2
Fore
SplineSet
53.2734375 15.5 m 0
 28.5576171875 31.1669921875 11.3408203125 53.333984375 1.6259765625 82.0009765625 c 0
 -8.0888671875 110.66796875 -8.63671875 143.66796875 -0.017578125 181.000976562 c 2
 117.494140625 690.000976562 l 1
 240.494140625 690.000976562 l 1
 123.674804688 184.000976562 l 2
 117.2109375 156.000976562 117.810546875 135.500976562 125.4765625 122.500976562 c 0
 133.142578125 109.500976562 147.974609375 103.000976562 169.974609375 103.000976562 c 0
 213.307617188 103.000976562 241.208007812 130.000976562 253.674804688 184.000976562 c 2
 370.494140625 690.000976562 l 1
 493.494140625 690.000976562 l 1
 375.982421875 181.000976562 l 2
 367.36328125 143.66796875 351.744140625 110.66796875 329.125976562 82.0009765625 c 0
 306.5078125 53.333984375 279.057617188 31.1669921875 246.7734375 15.5 c 0
 214.489257812 -0.1669921875 180.34765625 -8 144.34765625 -8 c 0
 108.34765625 -8 77.9892578125 -0.1669921875 53.2734375 15.5 c 0
369.205078125 888 m 1
 492.205078125 888 l 1
 337.806640625 752 l 1
 238.806640625 752 l 1
 369.205078125 888 l 1
EndSplineSet
EndChar

StartChar: Ucircumflex
Encoding: 219 219 156
Width: 460
GlyphClass: 2
Flags: MW
HStem: -8 111.001<158.975 162.348> 670.001 20G<117.494 240.494 240.494 240.494 370.494 493.494 493.494 493.494>
LayerCount: 2
Fore
SplineSet
53.2734375 15.5 m 0
 28.5576171875 31.1669921875 11.3408203125 53.333984375 1.6259765625 82.0009765625 c 0
 -8.0888671875 110.66796875 -8.63671875 143.66796875 -0.017578125 181.000976562 c 2
 117.494140625 690.000976562 l 1
 240.494140625 690.000976562 l 1
 123.674804688 184.000976562 l 2
 117.2109375 156.000976562 117.810546875 135.500976562 125.4765625 122.500976562 c 0
 133.142578125 109.500976562 147.974609375 103.000976562 169.974609375 103.000976562 c 0
 213.307617188 103.000976562 241.208007812 130.000976562 253.674804688 184.000976562 c 2
 370.494140625 690.000976562 l 1
 493.494140625 690.000976562 l 1
 375.982421875 181.000976562 l 2
 367.36328125 143.66796875 351.744140625 110.66796875 329.125976562 82.0009765625 c 0
 306.5078125 53.333984375 279.057617188 31.1669921875 246.7734375 15.5 c 0
 214.489257812 -0.1669921875 180.34765625 -8 144.34765625 -8 c 0
 108.34765625 -8 77.9892578125 -0.1669921875 53.2734375 15.5 c 0
309.58984375 894 m 1
 392.58984375 894 l 1
 461.421875 746 l 1
 374.421875 746 l 1
 336.890625 826 l 1
 261.421875 746 l 1
 174.421875 746 l 1
 309.58984375 894 l 1
EndSplineSet
EndChar

StartChar: Udieresis
Encoding: 220 220 157
Width: 460
GlyphClass: 2
Flags: MW
HStem: -8 111.001<158.975 162.348> 670.001 20G<117.494 240.494 240.494 240.494 370.494 493.494 493.494 493.494> 753 114<221.356 288.038 195.038 314.356 221.356 351.038 377.356 444.038>
LayerCount: 2
Fore
SplineSet
53.2734375 15.5 m 0
 28.5576171875 31.1669921875 11.3408203125 53.333984375 1.6259765625 82.0009765625 c 0
 -8.0888671875 110.66796875 -8.63671875 143.66796875 -0.017578125 181.000976562 c 2
 117.494140625 690.000976562 l 1
 240.494140625 690.000976562 l 1
 123.674804688 184.000976562 l 2
 117.2109375 156.000976562 117.810546875 135.500976562 125.4765625 122.500976562 c 0
 133.142578125 109.500976562 147.974609375 103.000976562 169.974609375 103.000976562 c 0
 213.307617188 103.000976562 241.208007812 130.000976562 253.674804688 184.000976562 c 2
 370.494140625 690.000976562 l 1
 493.494140625 690.000976562 l 1
 375.982421875 181.000976562 l 2
 367.36328125 143.66796875 351.744140625 110.66796875 329.125976562 82.0009765625 c 0
 306.5078125 53.333984375 279.057617188 31.1669921875 246.7734375 15.5 c 0
 214.489257812 -0.1669921875 180.34765625 -8 144.34765625 -8 c 0
 108.34765625 -8 77.9892578125 -0.1669921875 53.2734375 15.5 c 0
221.356445312 867 m 1
 314.356445312 867 l 1
 288.038085938 753 l 1
 195.038085938 753 l 1
 221.356445312 867 l 1
377.356445312 867 m 1
 470.356445312 867 l 1
 444.038085938 753 l 1
 351.038085938 753 l 1
 377.356445312 867 l 1
EndSplineSet
EndChar

StartChar: Yacute
Encoding: 221 221 158
Width: 415
GlyphClass: 2
Flags: MW
HStem: 0 21G<62.1953 185.195 62.1953 62.1953> 670 20G<81.4941 216.494 216.494 216.494 348.494 484.494 484.494 484.494>
VStem: 81.4941 135<690 690>
LayerCount: 2
Fore
SplineSet
247.298828125 269 m 1
 185.1953125 0 l 1
 62.1953125 0 l 1
 124.759765625 271 l 1
 81.494140625 690 l 1
 216.494140625 690 l 1
 221.544921875 426 l 1
 348.494140625 690 l 1
 484.494140625 690 l 1
 247.298828125 269 l 1
346.206054688 888 m 1
 469.206054688 888 l 1
 314.807617188 752 l 1
 215.807617188 752 l 1
 346.206054688 888 l 1
EndSplineSet
EndChar

StartChar: Thorn
Encoding: 222 222 159
Width: 434
GlyphClass: 2
Flags: MW
HStem: 0 21G<-41.8047 80.1953 -41.8047 -41.8047> 144 110<138.836 177.439 113.439 198.836> 468 111<213.867 248.242 188.242 277.867> 670 20G<117.494 239.494 239.494 239.494>
LayerCount: 2
Fore
SplineSet
410.900390625 525 m 0
 431.58984375 489 433.546875 434.666992188 416.770507812 362 c 0
 399.83984375 288.666992188 372.385742188 234 334.408203125 198 c 0
 296.4296875 162 244.106445312 144 177.439453125 144 c 2
 113.439453125 144 l 1
 80.1953125 0 l 1
 -41.8046875 0 l 1
 117.494140625 690 l 1
 239.494140625 690 l 1
 213.8671875 579 l 1
 277.8671875 579 l 2
 345.8671875 579 390.211914062 561 410.900390625 525 c 0
259.454101562 280.5 m 0
 273.866210938 298.166992188 285.3046875 325.333007812 293.770507812 362 c 0
 302.081054688 398 303.071289062 424.666992188 296.739257812 442 c 0
 290.408203125 459.333007812 274.2421875 468 248.2421875 468 c 2
 188.2421875 468 l 1
 138.8359375 254 l 1
 198.8359375 254 l 2
 224.8359375 254 245.04296875 262.833007812 259.454101562 280.5 c 0
EndSplineSet
EndChar

StartChar: germandbls
Encoding: 223 223 160
Width: 420
GlyphClass: 2
Flags: MW
HStem: -5 98<149.666 153.04 127.04 165.664> 596 104<255.124 272.457>
LayerCount: 2
Fore
SplineSet
149.666015625 93 m 1
 165.6640625 93 l 2
 177.6640625 93 187.29296875 97.1669921875 194.549804688 105.5 c 0
 201.810546875 113.833007812 208.067382812 126.5 213.321289062 143.5 c 0
 218.579101562 160.5 225.518554688 187.666992188 234.137695312 225 c 0
 241.986328125 259 247.091796875 284 249.452148438 300 c 0
 251.813476562 316 251.327148438 328.333007812 247.995117188 337 c 0
 244.663085938 345.666992188 236.997070312 350 224.997070312 350 c 2
 206.997070312 350 l 1
 229.390625 447 l 1
 245.390625 447 l 2
 260.723632812 447 271.776367188 453 278.546875 465 c 0
 285.317382812 477 292.01171875 497.333007812 298.629882812 526 c 0
 304.016601562 549.333007812 303.889648438 566.833007812 298.25 578.5 c 0
 292.609375 590.166992188 281.123046875 596 263.790039062 596 c 0
 246.45703125 596 232.059570312 590.666992188 220.596679688 580 c 0
 209.133789062 569.333007812 201.09375 554 196.4765625 534 c 2
 73.193359375 0 l 1
 -42.806640625 0 l 1
 77.013671875 519 l 2
 104.872070312 639.666992188 175.133789062 700 287.80078125 700 c 0
 340.467773438 700 378.120117188 685.5 400.7578125 656.5 c 0
 423.395507812 627.5 428.866210938 587.666992188 417.168945312 537 c 0
 408.857421875 501 398.99609375 474.166992188 387.583984375 456.5 c 0
 376.172851562 438.833007812 358.030273438 422.333007812 333.157226562 407 c 1
 348.029296875 396.333007812 358.130859375 384.5 363.4609375 371.5 c 0
 368.79296875 358.5 370.291015625 341.166992188 367.956054688 319.5 c 0
 365.62109375 297.833007812 359.681640625 266.333007812 350.139648438 225 c 0
 335.979492188 163.666992188 322.359375 117.666992188 309.279296875 87 c 0
 296.19921875 56.3330078125 277.72265625 33.3330078125 253.849609375 18 c 0
 229.9765625 2.6669921875 196.373046875 -5 153.040039062 -5 c 2
 127.040039062 -5 l 1
 149.666015625 93 l 1
EndSplineSet
EndChar

StartChar: agrave
Encoding: 224 224 161
Width: 405
GlyphClass: 2
Flags: MW
HStem: -8.00098 100.999<55.3496 142> -0.000976562 21G<172.196 280.196 172.196 172.196> 228.999 81<175.398 235.766 191.766 217.065> 434 102<218.608 223.394>
LayerCount: 2
Fore
SplineSet
350.935546875 490.5 m 0xb0
 372.265625 460.166992188 377.006835938 419.33203125 365.15625 367.999023438 c 2
 280.196289062 -0.0009765625 l 1
 172.196289062 -0.0009765625 l 1x70
 182.354492188 43.9990234375 l 1
 164.19921875 25.9990234375 147.4921875 12.83203125 132.235351562 4.4990234375 c 0
 116.977539062 -3.833984375 98.6826171875 -8.0009765625 77.349609375 -8.0009765625 c 0
 33.349609375 -8.0009765625 3.4912109375 6.33203125 -12.22265625 34.9990234375 c 0
 -27.9375 63.666015625 -29.8701171875 103.666015625 -18.0185546875 154.999023438 c 0
 -6.6298828125 204.33203125 17.181640625 242.499023438 53.416015625 269.499023438 c 0
 89.6494140625 296.499023438 135.765625 309.999023438 191.765625 309.999023438 c 2
 235.765625 309.999023438 l 1
 251.233398438 376.999023438 l 2
 255.543945312 395.666015625 254.647460938 409.833007812 248.545898438 419.5 c 0
 242.444335938 429.166992188 231.393554688 434 215.393554688 434 c 0
 200.7265625 434 187.982421875 429.333007812 177.16015625 420 c 0
 166.338867188 410.666992188 159.081054688 398 155.387695312 382 c 2
 153.540039062 374 l 1
 46.5400390625 374 l 1
 47.4638671875 378 l 2
 59.46875 430 83.216796875 469.333007812 118.706054688 496 c 0
 154.196289062 522.666992188 195.274414062 536 241.94140625 536 c 0
 293.274414062 536 329.60546875 520.833007812 350.935546875 490.5 c 0xb0
175.20703125 110.498046875 m 0
 187.567382812 122.165039062 196.056640625 137.999023438 200.673828125 157.999023438 c 2
 217.065429688 228.999023438 l 1
 187.065429688 228.999023438 l 2
 163.731445312 228.999023438 144.666992188 223.666015625 129.87109375 212.999023438 c 0
 115.076171875 202.33203125 104.830078125 184.665039062 99.1357421875 159.998046875 c 0
 94.056640625 137.998046875 94.541015625 121.331054688 100.591796875 109.998046875 c 0
 106.642578125 98.6650390625 118.000976562 92.998046875 134.666992188 92.998046875 c 0xb0
 149.333984375 92.998046875 162.84765625 98.8310546875 175.20703125 110.498046875 c 0
144.806640625 725.999023438 m 1
 267.806640625 725.999023438 l 1
 335.409179688 589.999023438 l 1
 236.409179688 589.999023438 l 1
 144.806640625 725.999023438 l 1
EndSplineSet
EndChar

StartChar: aacute
Encoding: 225 225 162
Width: 405
GlyphClass: 2
Flags: MW
HStem: -8.00098 100.999<55.3496 142> -0.000976562 21G<172.196 280.196 172.196 172.196> 228.999 81<175.398 235.766 191.766 217.065> 434 102<218.608 223.394>
LayerCount: 2
Fore
SplineSet
350.935546875 490.5 m 0xb0
 372.265625 460.166992188 377.006835938 419.33203125 365.15625 367.999023438 c 2
 280.196289062 -0.0009765625 l 1
 172.196289062 -0.0009765625 l 1x70
 182.354492188 43.9990234375 l 1
 164.19921875 25.9990234375 147.4921875 12.83203125 132.235351562 4.4990234375 c 0
 116.977539062 -3.833984375 98.6826171875 -8.0009765625 77.349609375 -8.0009765625 c 0
 33.349609375 -8.0009765625 3.4912109375 6.33203125 -12.22265625 34.9990234375 c 0
 -27.9375 63.666015625 -29.8701171875 103.666015625 -18.0185546875 154.999023438 c 0
 -6.6298828125 204.33203125 17.181640625 242.499023438 53.416015625 269.499023438 c 0
 89.6494140625 296.499023438 135.765625 309.999023438 191.765625 309.999023438 c 2
 235.765625 309.999023438 l 1
 251.233398438 376.999023438 l 2
 255.543945312 395.666015625 254.647460938 409.833007812 248.545898438 419.5 c 0
 242.444335938 429.166992188 231.393554688 434 215.393554688 434 c 0
 200.7265625 434 187.982421875 429.333007812 177.16015625 420 c 0
 166.338867188 410.666992188 159.081054688 398 155.387695312 382 c 2
 153.540039062 374 l 1
 46.5400390625 374 l 1
 47.4638671875 378 l 2
 59.46875 430 83.216796875 469.333007812 118.706054688 496 c 0
 154.196289062 522.666992188 195.274414062 536 241.94140625 536 c 0
 293.274414062 536 329.60546875 520.833007812 350.935546875 490.5 c 0xb0
175.20703125 110.498046875 m 0
 187.567382812 122.165039062 196.056640625 137.999023438 200.673828125 157.999023438 c 2
 217.065429688 228.999023438 l 1
 187.065429688 228.999023438 l 2
 163.731445312 228.999023438 144.666992188 223.666015625 129.87109375 212.999023438 c 0
 115.076171875 202.33203125 104.830078125 184.665039062 99.1357421875 159.998046875 c 0
 94.056640625 137.998046875 94.541015625 121.331054688 100.591796875 109.998046875 c 0
 106.642578125 98.6650390625 118.000976562 92.998046875 134.666992188 92.998046875 c 0xb0
 149.333984375 92.998046875 162.84765625 98.8310546875 175.20703125 110.498046875 c 0
303.806640625 725.999023438 m 1
 426.806640625 725.999023438 l 1
 272.409179688 589.999023438 l 1
 173.409179688 589.999023438 l 1
 303.806640625 725.999023438 l 1
EndSplineSet
EndChar

StartChar: acircumflex
Encoding: 226 226 163
Width: 405
GlyphClass: 2
Flags: MW
HStem: -8.00098 100.999<55.3496 142> -0.000976562 21G<172.196 280.196 172.196 172.196> 228.999 81<175.398 235.766 191.766 217.065> 434 102<218.608 223.394>
LayerCount: 2
Fore
SplineSet
350.935546875 490.5 m 0xb0
 372.265625 460.166992188 377.006835938 419.33203125 365.15625 367.999023438 c 2
 280.196289062 -0.0009765625 l 1
 172.196289062 -0.0009765625 l 1x70
 182.354492188 43.9990234375 l 1
 164.19921875 25.9990234375 147.4921875 12.83203125 132.235351562 4.4990234375 c 0
 116.977539062 -3.833984375 98.6826171875 -8.0009765625 77.349609375 -8.0009765625 c 0
 33.349609375 -8.0009765625 3.4912109375 6.33203125 -12.22265625 34.9990234375 c 0
 -27.9375 63.666015625 -29.8701171875 103.666015625 -18.0185546875 154.999023438 c 0
 -6.6298828125 204.33203125 17.181640625 242.499023438 53.416015625 269.499023438 c 0
 89.6494140625 296.499023438 135.765625 309.999023438 191.765625 309.999023438 c 2
 235.765625 309.999023438 l 1
 251.233398438 376.999023438 l 2
 255.543945312 395.666015625 254.647460938 409.833007812 248.545898438 419.5 c 0
 242.444335938 429.166992188 231.393554688 434 215.393554688 434 c 0
 200.7265625 434 187.982421875 429.333007812 177.16015625 420 c 0
 166.338867188 410.666992188 159.081054688 398 155.387695312 382 c 2
 153.540039062 374 l 1
 46.5400390625 374 l 1
 47.4638671875 378 l 2
 59.46875 430 83.216796875 469.333007812 118.706054688 496 c 0
 154.196289062 522.666992188 195.274414062 536 241.94140625 536 c 0
 293.274414062 536 329.60546875 520.833007812 350.935546875 490.5 c 0xb0
175.20703125 110.498046875 m 0
 187.567382812 122.165039062 196.056640625 137.999023438 200.673828125 157.999023438 c 2
 217.065429688 228.999023438 l 1
 187.065429688 228.999023438 l 2
 163.731445312 228.999023438 144.666992188 223.666015625 129.87109375 212.999023438 c 0
 115.076171875 202.33203125 104.830078125 184.665039062 99.1357421875 159.998046875 c 0
 94.056640625 137.998046875 94.541015625 121.331054688 100.591796875 109.998046875 c 0
 106.642578125 98.6650390625 118.000976562 92.998046875 134.666992188 92.998046875 c 0xb0
 149.333984375 92.998046875 162.84765625 98.8310546875 175.20703125 110.498046875 c 0
244.192382812 731.999023438 m 1
 327.192382812 731.999023438 l 1
 396.0234375 583.999023438 l 1
 309.0234375 583.999023438 l 1
 271.493164062 663.999023438 l 1
 196.0234375 583.999023438 l 1
 109.0234375 583.999023438 l 1
 244.192382812 731.999023438 l 1
EndSplineSet
EndChar

StartChar: atilde
Encoding: 227 227 164
Width: 405
GlyphClass: 2
Flags: MW
HStem: -8.00098 100.999<55.3496 142> -0.000976562 21G<172.196 280.196 172.196 172.196> 228.999 81<175.398 235.766 191.766 217.065> 434 102<218.608 223.394> 592.999 90<296.436 332.215> 627.999 90<206.848 242.295>
LayerCount: 2
Fore
SplineSet
350.935546875 490.5 m 0xb0
 372.265625 460.166992188 377.006835938 419.33203125 365.15625 367.999023438 c 2
 280.196289062 -0.0009765625 l 1
 172.196289062 -0.0009765625 l 1x70
 182.354492188 43.9990234375 l 1
 164.19921875 25.9990234375 147.4921875 12.83203125 132.235351562 4.4990234375 c 0
 116.977539062 -3.833984375 98.6826171875 -8.0009765625 77.349609375 -8.0009765625 c 0
 33.349609375 -8.0009765625 3.4912109375 6.33203125 -12.22265625 34.9990234375 c 0
 -27.9375 63.666015625 -29.8701171875 103.666015625 -18.0185546875 154.999023438 c 0
 -6.6298828125 204.33203125 17.181640625 242.499023438 53.416015625 269.499023438 c 0
 89.6494140625 296.499023438 135.765625 309.999023438 191.765625 309.999023438 c 2
 235.765625 309.999023438 l 1
 251.233398438 376.999023438 l 2
 255.543945312 395.666015625 254.647460938 409.833007812 248.545898438 419.5 c 0
 242.444335938 429.166992188 231.393554688 434 215.393554688 434 c 0
 200.7265625 434 187.982421875 429.333007812 177.16015625 420 c 0
 166.338867188 410.666992188 159.081054688 398 155.387695312 382 c 2
 153.540039062 374 l 1
 46.5400390625 374 l 1
 47.4638671875 378 l 2
 59.46875 430 83.216796875 469.333007812 118.706054688 496 c 0
 154.196289062 522.666992188 195.274414062 536 241.94140625 536 c 0
 293.274414062 536 329.60546875 520.833007812 350.935546875 490.5 c 0xb0
175.20703125 110.498046875 m 0
 187.567382812 122.165039062 196.056640625 137.999023438 200.673828125 157.999023438 c 2
 217.065429688 228.999023438 l 1
 187.065429688 228.999023438 l 2
 163.731445312 228.999023438 144.666992188 223.666015625 129.87109375 212.999023438 c 0
 115.076171875 202.33203125 104.830078125 184.665039062 99.1357421875 159.998046875 c 0
 94.056640625 137.998046875 94.541015625 121.331054688 100.591796875 109.998046875 c 0
 106.642578125 98.6650390625 118.000976562 92.998046875 134.666992188 92.998046875 c 0xb0
 149.333984375 92.998046875 162.84765625 98.8310546875 175.20703125 110.498046875 c 0
162.6484375 681.999023438 m 1
 179.213867188 695.999023438 192.576171875 705.499023438 202.73046875 710.499023438 c 0
 212.884765625 715.499023438 224.294921875 717.999023438 236.961914062 717.999023438 c 0x34
 247.62890625 717.999023438 256.577148438 716.33203125 263.807617188 712.999023438 c 0
 271.038085938 709.666015625 278.293945312 704.999023438 285.575195312 698.999023438 c 0
 294.190429688 692.999023438 301.228515625 688.83203125 306.689453125 686.499023438 c 0
 312.151367188 684.166015625 318.881835938 682.999023438 326.881835938 682.999023438 c 0
 337.548828125 682.999023438 347.125976562 685.499023438 355.61328125 690.499023438 c 0
 364.1015625 695.499023438 377.858398438 705.999023438 396.884765625 721.999023438 c 1
 375.64453125 629.999023438 l 1
 359.745117188 615.999023438 346.846679688 606.33203125 336.94921875 600.999023438 c 0
 327.05078125 595.666015625 315.435546875 592.999023438 302.102539062 592.999023438 c 0x38
 290.768554688 592.999023438 281.8203125 594.666015625 275.256835938 597.999023438 c 0
 268.693359375 601.33203125 261.103515625 605.999023438 252.489257812 611.999023438 c 0
 244.38671875 617.33203125 237.810546875 621.33203125 232.759765625 623.999023438 c 0
 227.708007812 626.666015625 220.848632812 627.999023438 212.181640625 627.999023438 c 0x34
 201.514648438 627.999023438 191.399414062 625.33203125 181.834960938 619.999023438 c 0
 172.26953125 614.661132812 158.716796875 604.328125 141.177734375 588.999023438 c 1
 162.6484375 681.999023438 l 1
EndSplineSet
EndChar

StartChar: adieresis
Encoding: 228 228 165
Width: 405
GlyphClass: 2
Flags: MW
HStem: -8.00098 100.999<55.3496 142> -0.000976562 21G<172.196 280.196 172.196 172.196> 228.999 81<175.398 235.766 191.766 217.065> 434 102<218.608 223.394> 590.999 114<155.959 222.64 129.64 248.959 155.959 285.64 311.959 378.64>
LayerCount: 2
Fore
SplineSet
350.935546875 490.5 m 0xb8
 372.265625 460.166992188 377.006835938 419.33203125 365.15625 367.999023438 c 2
 280.196289062 -0.0009765625 l 1
 172.196289062 -0.0009765625 l 1x78
 182.354492188 43.9990234375 l 1
 164.19921875 25.9990234375 147.4921875 12.83203125 132.235351562 4.4990234375 c 0
 116.977539062 -3.833984375 98.6826171875 -8.0009765625 77.349609375 -8.0009765625 c 0
 33.349609375 -8.0009765625 3.4912109375 6.33203125 -12.22265625 34.9990234375 c 0
 -27.9375 63.666015625 -29.8701171875 103.666015625 -18.0185546875 154.999023438 c 0
 -6.6298828125 204.33203125 17.181640625 242.499023438 53.416015625 269.499023438 c 0
 89.6494140625 296.499023438 135.765625 309.999023438 191.765625 309.999023438 c 2
 235.765625 309.999023438 l 1
 251.233398438 376.999023438 l 2
 255.543945312 395.666015625 254.647460938 409.833007812 248.545898438 419.5 c 0
 242.444335938 429.166992188 231.393554688 434 215.393554688 434 c 0
 200.7265625 434 187.982421875 429.333007812 177.16015625 420 c 0
 166.338867188 410.666992188 159.081054688 398 155.387695312 382 c 2
 153.540039062 374 l 1
 46.5400390625 374 l 1
 47.4638671875 378 l 2
 59.46875 430 83.216796875 469.333007812 118.706054688 496 c 0
 154.196289062 522.666992188 195.274414062 536 241.94140625 536 c 0
 293.274414062 536 329.60546875 520.833007812 350.935546875 490.5 c 0xb8
175.20703125 110.498046875 m 0
 187.567382812 122.165039062 196.056640625 137.999023438 200.673828125 157.999023438 c 2
 217.065429688 228.999023438 l 1
 187.065429688 228.999023438 l 2
 163.731445312 228.999023438 144.666992188 223.666015625 129.87109375 212.999023438 c 0
 115.076171875 202.33203125 104.830078125 184.665039062 99.1357421875 159.998046875 c 0
 94.056640625 137.998046875 94.541015625 121.331054688 100.591796875 109.998046875 c 0
 106.642578125 98.6650390625 118.000976562 92.998046875 134.666992188 92.998046875 c 0xb8
 149.333984375 92.998046875 162.84765625 98.8310546875 175.20703125 110.498046875 c 0
155.958984375 704.999023438 m 1
 248.958984375 704.999023438 l 1
 222.639648438 590.999023438 l 1
 129.639648438 590.999023438 l 1
 155.958984375 704.999023438 l 1
311.958984375 704.999023438 m 1
 404.958984375 704.999023438 l 1
 378.639648438 590.999023438 l 1
 285.639648438 590.999023438 l 1
 311.958984375 704.999023438 l 1
EndSplineSet
EndChar

StartChar: aring
Encoding: 229 229 166
Width: 405
GlyphClass: 2
Flags: MW
HStem: -8.00098 100.999<55.3496 142> -0.000976562 21G<172.196 280.196 172.196 172.196> 228.999 81<175.398 235.766 191.766 217.065> 434 102<218.608 223.394> 536.999 49<246.819 255.506> 677 48.999<272.473 280.829>
LayerCount: 2
Fore
SplineSet
350.935546875 490.5 m 0xbc
 372.265625 460.166992188 377.006835938 419.33203125 365.15625 367.999023438 c 2
 280.196289062 -0.0009765625 l 1
 172.196289062 -0.0009765625 l 1x7c
 182.354492188 43.9990234375 l 1
 164.19921875 25.9990234375 147.4921875 12.83203125 132.235351562 4.4990234375 c 0
 116.977539062 -3.833984375 98.6826171875 -8.0009765625 77.349609375 -8.0009765625 c 0
 33.349609375 -8.0009765625 3.4912109375 6.33203125 -12.22265625 34.9990234375 c 0
 -27.9375 63.666015625 -29.8701171875 103.666015625 -18.0185546875 154.999023438 c 0
 -6.6298828125 204.33203125 17.181640625 242.499023438 53.416015625 269.499023438 c 0
 89.6494140625 296.499023438 135.765625 309.999023438 191.765625 309.999023438 c 2
 235.765625 309.999023438 l 1
 251.233398438 376.999023438 l 2
 255.543945312 395.666015625 254.647460938 409.833007812 248.545898438 419.5 c 0
 242.444335938 429.166992188 231.393554688 434 215.393554688 434 c 0
 200.7265625 434 187.982421875 429.333007812 177.16015625 420 c 0
 166.338867188 410.666992188 159.081054688 398 155.387695312 382 c 2
 153.540039062 374 l 1
 46.5400390625 374 l 1
 47.4638671875 378 l 2
 59.46875 430 83.216796875 469.333007812 118.706054688 496 c 0
 154.196289062 522.666992188 195.274414062 536 241.94140625 536 c 0
 293.274414062 536 329.60546875 520.833007812 350.935546875 490.5 c 0xbc
175.20703125 110.498046875 m 0
 187.567382812 122.165039062 196.056640625 137.999023438 200.673828125 157.999023438 c 2
 217.065429688 228.999023438 l 1
 187.065429688 228.999023438 l 2
 163.731445312 228.999023438 144.666992188 223.666015625 129.87109375 212.999023438 c 0
 115.076171875 202.33203125 104.830078125 184.665039062 99.1357421875 159.998046875 c 0
 94.056640625 137.998046875 94.541015625 121.331054688 100.591796875 109.998046875 c 0
 106.642578125 98.6650390625 118.000976562 92.998046875 134.666992188 92.998046875 c 0xbc
 149.333984375 92.998046875 162.84765625 98.8310546875 175.20703125 110.498046875 c 0
181.40625 563.999023438 m 0
 167.561523438 581.999023438 163.717773438 604.33203125 169.874023438 630.999023438 c 0
 176.184570312 658.33203125 190.41796875 680.999023438 212.573242188 698.999023438 c 0
 234.729492188 716.999023438 259.139648438 725.999023438 285.806640625 725.999023438 c 0
 312.473632812 725.999023438 332.729492188 716.999023438 346.573242188 698.999023438 c 0
 360.41796875 680.999023438 364.184570312 658.33203125 357.874023438 630.999023438 c 0
 351.717773438 604.33203125 337.561523438 581.999023438 315.40625 563.999023438 c 0
 293.250976562 545.999023438 268.83984375 536.999023438 242.172851562 536.999023438 c 0
 215.505859375 536.999023438 195.250976562 545.999023438 181.40625 563.999023438 c 0
287.986328125 598.999023438 m 0
 298.321289062 607.669921875 304.952148438 618.337890625 307.875976562 631 c 0
 310.954101562 644.333007812 309.326171875 655.333007812 302.994140625 664 c 0
 296.662109375 672.666992188 287.162109375 677 274.495117188 677 c 0
 261.161132812 677 249.328125 672.666992188 238.994140625 664 c 0
 228.66015625 655.333007812 221.954101562 644.333007812 218.875976562 631 c 0
 215.951171875 618.333007812 217.655273438 607.666015625 223.987304688 598.999023438 c 0
 230.319335938 590.33203125 240.15234375 585.999023438 253.485351562 585.999023438 c 0
 266.15234375 585.999023438 277.65234375 590.33203125 287.986328125 598.999023438 c 0
EndSplineSet
EndChar

StartChar: ae
Encoding: 230 230 167
Width: 621
GlyphClass: 2
Flags: MW
HStem: -8.00098 100.999<78.6821 142> 223 83.998<351.073 454.073 351.073 550.679 331.679 454.073> 434 102<218.607 223.393>
LayerCount: 2
Fore
SplineSet
320.596679688 175 m 2
 308.129882812 121 319.23046875 93.998046875 353.897460938 93.998046875 c 0
 387.897460938 93.998046875 410.052734375 116.331054688 420.365234375 160.998046875 c 2
 421.51953125 165.998046875 l 1
 534.51953125 165.998046875 l 1
 533.134765625 159.998046875 l 2
 520.359375 104.665039062 496.53515625 62.83203125 461.66015625 34.4990234375 c 0
 426.786132812 6.166015625 383.348632812 -8.0009765625 331.348632812 -8.0009765625 c 0
 280.681640625 -8.0009765625 245.015625 4.9990234375 224.352539062 30.9990234375 c 1
 187.016601562 4.9990234375 146.348632812 -8.0009765625 102.348632812 -8.0009765625 c 0
 55.015625 -8.0009765625 20.234375 6.666015625 -1.9931640625 35.9990234375 c 0
 -24.220703125 65.33203125 -29.5634765625 104.999023438 -18.01953125 154.999023438 c 0
 -6.630859375 204.33203125 17.1806640625 242.499023438 53.4150390625 269.499023438 c 0
 89.6484375 296.499023438 135.764648438 309.999023438 191.764648438 309.999023438 c 2
 235.764648438 309.999023438 l 1
 251.232421875 376.999023438 l 2
 255.54296875 395.666015625 254.646484375 409.833007812 248.544921875 419.5 c 0
 242.443359375 429.166992188 231.392578125 434 215.392578125 434 c 0
 200.725585938 434 187.981445312 429.333007812 177.159179688 420 c 0
 166.337890625 410.666992188 159.080078125 398 155.38671875 382 c 2
 153.5390625 374 l 1
 46.5390625 374 l 1
 47.462890625 378 l 2
 59.4677734375 430 83.2158203125 469.333007812 118.705078125 496 c 0
 154.1953125 522.666992188 195.2734375 536 241.940429688 536 c 0
 283.940429688 536 316.477539062 525.333007812 339.552734375 504 c 1
 370.477539062 525.333007812 408.2734375 536 452.940429688 536 c 0
 506.940429688 536 544.88671875 519.166992188 566.78125 485.5 c 0
 588.67578125 451.833007812 591.387695312 399.333007812 574.919921875 328 c 2
 550.678710938 223 l 1
 331.678710938 223 l 1
 320.596679688 175 l 2
388.197265625 411.498046875 m 0
 376.375 397.831054688 367.002929688 375.998046875 360.077148438 345.998046875 c 2
 351.073242188 306.998046875 l 1
 454.073242188 306.998046875 l 1
 463.077148438 345.998046875 l 2
 470.002929688 375.998046875 470.709960938 397.831054688 465.198242188 411.498046875 c 0
 459.685546875 425.165039062 448.596679688 431.998046875 431.930664062 431.998046875 c 0
 414.59765625 431.998046875 400.01953125 425.165039062 388.197265625 411.498046875 c 0
217.065429688 228.998046875 m 1
 187.065429688 228.999023438 l 2
 163.731445312 228.999023438 144.666992188 223.666015625 129.87109375 212.999023438 c 0
 115.076171875 202.33203125 104.830078125 184.665039062 99.1357421875 159.998046875 c 0
 94.056640625 137.998046875 94.541015625 121.331054688 100.591796875 109.998046875 c 0
 106.642578125 98.6650390625 118.000976562 92.998046875 134.666992188 92.998046875 c 0
 149.333984375 92.998046875 162.84765625 98.8310546875 175.20703125 110.498046875 c 0
 187.567382812 122.165039062 196.056640625 137.998046875 200.673828125 157.998046875 c 2
 217.065429688 228.998046875 l 1
EndSplineSet
EndChar

StartChar: ccedilla
Encoding: 231 231 168
Width: 407
GlyphClass: 2
Flags: MW
HStem: -158 21G<-10.2842 91.7158 -10.2842 -10.2842> 432 104<218.607 229.928>
LayerCount: 2
Fore
SplineSet
252.61328125 344 m 1
 256.767578125 362 l 2
 262.154296875 385.333007812 261.694335938 402.833007812 255.387695312 414.5 c 0
 249.081054688 426.166992188 237.927734375 432 221.927734375 432 c 0
 204.594726562 432 190.017578125 425.166992188 178.1953125 411.5 c 0
 166.373046875 397.833007812 156.999023438 376 150.073242188 346 c 2
 112.2109375 182 l 2
 105.28515625 152 104.577148438 130.166992188 110.088867188 116.5 c 0
 115.600585938 102.833007812 126.690429688 96 143.356445312 96 c 0
 160.0234375 96 174.203125 101.833007812 185.896484375 113.5 c 0
 197.58984375 125.166992188 206.20703125 143 211.748046875 167 c 2
 215.672851562 184 l 1
 327.672851562 184 l 1
 323.748046875 167 l 2
 302.662109375 75.6669921875 256.143554688 20 184.193359375 0 c 1
 91.7158203125 -158 l 1
 -10.2841796875 -158 l 1
 90.8076171875 -6 l 1
 46.5517578125 -1.3330078125 16.220703125 16 -0.1865234375 46 c 0
 -16.5927734375 76 -17.716796875 121.666992188 -3.5576171875 183 c 2
 33.84375 345 l 2
 49.388671875 412.333007812 74.95703125 461 110.549804688 491 c 0
 146.143554688 521 191.2734375 536 245.940429688 536 c 0
 298.607421875 536 335.630859375 521.666992188 357.012695312 493 c 0
 378.39453125 464.333007812 382.466796875 421.333007812 369.23046875 364 c 2
 364.61328125 344 l 1
 252.61328125 344 l 1
EndSplineSet
EndChar

StartChar: egrave
Encoding: 232 232 169
Width: 411
GlyphClass: 2
Flags: MW
HStem: -8 101.999<126.561 146.679> 223 83.999<121.679 244.07 141.07 244.07 141.07 340.679> 431.999 104.001<215.607 229.595>
LayerCount: 2
Fore
SplineSet
121.678710938 223 m 1
 110.594726562 174.999023438 l 2
 98.1279296875 120.999023438 109.227539062 93.9990234375 143.89453125 93.9990234375 c 0
 177.89453125 93.9990234375 200.049804688 116.33203125 210.362304688 160.999023438 c 2
 211.516601562 165.999023438 l 1
 323.516601562 165.999023438 l 1
 322.131835938 159.999023438 l 2
 309.357421875 104.666015625 285.69921875 62.8330078125 251.158203125 34.5 c 0
 216.616210938 6.1669921875 173.012695312 -8 120.345703125 -8 c 0
 67.0126953125 -8 29.3740234375 8 7.4287109375 40 c 0
 -14.5166015625 72 -16.947265625 125 0.13671875 199 c 2
 29.9189453125 328 l 2
 46.541015625 400 72.533203125 452.666992188 107.895507812 486 c 0
 143.258789062 519.333007812 188.2734375 536 242.940429688 536 c 0
 296.940429688 536 334.848632812 519 356.666015625 485 c 0
 378.483398438 451 381.234375 398.666992188 364.919921875 328 c 2
 340.678710938 223 l 1
 121.678710938 223 l 1
178.1953125 411.499023438 m 0
 166.373046875 397.83203125 157 375.999023438 150.07421875 345.999023438 c 2
 141.0703125 306.999023438 l 1
 244.0703125 306.999023438 l 1
 253.07421875 345.999023438 l 2
 260 375.999023438 260.708007812 397.83203125 255.196289062 411.499023438 c 0
 249.684570312 425.166015625 238.26171875 431.999023438 220.928710938 431.999023438 c 0
 204.26171875 431.999023438 190.017578125 425.166015625 178.1953125 411.499023438 c 0
147.803710938 725.999023438 m 1
 270.803710938 725.999023438 l 1
 338.40625 589.999023438 l 1
 239.40625 589.999023438 l 1
 147.803710938 725.999023438 l 1
EndSplineSet
EndChar

StartChar: eacute
Encoding: 233 233 170
Width: 411
GlyphClass: 2
Flags: MW
HStem: -8 101.999<126.561 146.679> 223 83.999<121.679 244.07 141.07 244.07 141.07 340.679> 431.999 104.001<215.607 229.595>
LayerCount: 2
Fore
SplineSet
121.678710938 223 m 1
 110.594726562 174.999023438 l 2
 98.1279296875 120.999023438 109.227539062 93.9990234375 143.89453125 93.9990234375 c 0
 177.89453125 93.9990234375 200.049804688 116.33203125 210.362304688 160.999023438 c 2
 211.516601562 165.999023438 l 1
 323.516601562 165.999023438 l 1
 322.131835938 159.999023438 l 2
 309.357421875 104.666015625 285.69921875 62.8330078125 251.158203125 34.5 c 0
 216.616210938 6.1669921875 173.012695312 -8 120.345703125 -8 c 0
 67.0126953125 -8 29.3740234375 8 7.4287109375 40 c 0
 -14.5166015625 72 -16.947265625 125 0.13671875 199 c 2
 29.9189453125 328 l 2
 46.541015625 400 72.533203125 452.666992188 107.895507812 486 c 0
 143.258789062 519.333007812 188.2734375 536 242.940429688 536 c 0
 296.940429688 536 334.848632812 519 356.666015625 485 c 0
 378.483398438 451 381.234375 398.666992188 364.919921875 328 c 2
 340.678710938 223 l 1
 121.678710938 223 l 1
178.1953125 411.499023438 m 0
 166.373046875 397.83203125 157 375.999023438 150.07421875 345.999023438 c 2
 141.0703125 306.999023438 l 1
 244.0703125 306.999023438 l 1
 253.07421875 345.999023438 l 2
 260 375.999023438 260.708007812 397.83203125 255.196289062 411.499023438 c 0
 249.684570312 425.166015625 238.26171875 431.999023438 220.928710938 431.999023438 c 0
 204.26171875 431.999023438 190.017578125 425.166015625 178.1953125 411.499023438 c 0
306.803710938 725.999023438 m 1
 429.803710938 725.999023438 l 1
 275.40625 589.999023438 l 1
 176.40625 589.999023438 l 1
 306.803710938 725.999023438 l 1
EndSplineSet
EndChar

